<?xml version="1.0" encoding="utf-8"?>
<!-- Generator: Adobe Illustrator 20.1.0, SVG Export Plug-In . SVG Version: 6.00 Build 0)  -->
<svg version="1.1" id="Layer_1" xmlns="http://www.w3.org/2000/svg" xmlns:xlink="http://www.w3.org/1999/xlink" x="0px" y="0px"
	 viewBox="0 0 2186.1 506.7" style="enable-background:new 0 0 2186.1 506.7;" xml:space="preserve">
<style type="text/css">
	.st0{fill-rule:evenodd;clip-rule:evenodd;}
</style>
<path class="st0" d="M2180.1,438.3v-17.3h-3.3v-2.3h-3.9v2.3h-5.3V415h-5.9v-2.6h-8.6v-4.6h-6.9v4.6h-2.6v2.6h-2v5.9h-6.3v17.3h-3
	v-8.7h-8.6v-6.9h-12.5v6.9H2097V420h-24.4v9.5h-17.5V417h-12.5v-9.9h-24.4v-27.4h-34V417h-4.9v14.2h-11.5V414h-35.6v15.2h-9.2v-42.5
	h-6.9v-2h-10.9v2h-3.3v51.6h-7.9v-12h-14.3v-2.4h0v-8.3h-47.8h-5h-9V339h-54.6v82h-3.7v-51.8h-21.8v61.3h-4.2v-29.2h-10v-165h-81.7
	v177.5h-32.7v24.4h-16.2v-48.9h-10.7v-87.2h-5v-2.7H1541v2.7h-5v118.4h-9.2v17.7h-5.1l-6.5-7.8V198.5h-25.8h-6.8H1457v230l-0.2,1.9
	l-6.5,7.8h-2.4V331.6h-2.2v-5.2h-5.6v-7.8h-32.1v7.8h-5.6v5.2h-2.2v86.8h-3.5v-5.7v-2h-9.6v-9.4v-2h-15.4v2v9h-4.5v-2.6v-2h-6.9v2
	v2.6h-0.2V305.7h-18v89.4h-0.3v-40v-2h-20.1v2v40h-38.5v-37.2v-2h-9.5v-74.7v-2h-16v2v7.2h-24.7v-4.4v-2h-7.9v-25.7v-2h-0.8v1.2
	c-2.7,2.1-6.2,0.2-8,3.5v2v2.1v2c2.1-4,5.3-2.3,8-3.6v20.6h-5.2v2v4.4h-4v2v66.7h-14.5v2v18.7h-2.2v2V415h-3.7V344v-2h-18.6v2v51
	h-4.9v-8.9v-2h-24.8V342v-2H1125V316v-2h-28.6v2V340v2v75.3h-2.9v-10.7h0.4l-0.4-2v0h0.4l-1.4-7l-1.3,6.7v-11.1h0.6l-0.4-2h0.4
	l-1.4-6.9l-1.2,6.1h-0.3v-3.6v-2h-1v-7.4h0.6l-0.4-2h0.4l-2.8-13.9l-2.8,13.9h0.4l-0.4,2h0.6v7.4h-1v2v3.6h-0.3l-1.2-6.1l-1.4,6.9
	h0.4l-0.4,2h0.6v11.3h-0.2l-1.4-6.8l-1.4,7h0.4l-0.4,2h0.6v3.8l-7-6.4l-3.4,3.1h-5.5v-0.6h0.4l-0.4-2v0h0.4l-1.4-7l-1.3,6.7v-11.1
	h0.6l-0.4-2h0.4l-1.4-6.9l-1.2,6.1h-0.3v-3.6v-2h-1v-7.4h0.6l-0.4-2h0.4l-2.8-13.9l-2.8,13.9h0.4l-0.4,2h0.6v7.4h-1v2v3.6h-0.3
	l-1.2-6.1l-1.4,6.9h0.4l-0.4,2h0.6v11.3h-0.2l-1.4-6.8l-1.4,7h0.4l-0.4,2h0.6v7h-5.4v-31.5v-2h-8.5v-73.5v-2h-8.6v-0.2v-2h-6.7v2
	v0.2h-12.4v-14.9v-2h-0.9v2v14.9h-6.9v-1.8v-2h-12.4v2v1.8h-6.7v2v78.2h-3.7v-15.6v-2h-16.8v-32.6v-2h-19.3V163.3v-2h-7.5V152v-2
	h-66.6v2v9.3h-7.5v2v166.8h-24.2v2v0.3h-13v2v1.5h-4.8v2v0.2h-3.9v2v5.6v2h1.7v82.4h-4.7v-40.9v-2h-10.7v-85.2v-2h-5v-0.7v-2h-36.2
	v2v0.7h-5v2v103.5h-17.6v-17.5v-2h-8.6l-6.2-48.5v-97v-2l-11.7-8.6l-5.9-79.8l-5.9,79.8l-11.7,8.6v2v97l-7.6,59.1V290v-2h-16.5v-2.8
	v-2h-12v-12.3v-2h-3v-18.3v-2h-2.2v2v18.3v2v12.3v2v2.8h-6v-2.8v-2v-12.3v-2v-18.3v-2h-2.1v2v18.3h-3v2v12.3h-12v2v2.8H596v2v88
	h-12.6v2v30.1H579v2v18.2h-2v-21.8v-2h-3.2V303.7v-2H572v-18.5v-2h-14.7v2v18.5h-1.6v2v102.8h-8.8v-37v-2h-5.5v-85.2v-2H464v-4.2v-2
	h-3.3v-1.4h-20v-3.2v-2h-1v2v3.2h-9.1v1.4h-7.1v2v104.6h-7.8v-44.2v-2h-25.6v2V367l-3.2-2.6l-0.4-0.3h-0.4h-10.3v-28.9v-2h-34.3v2
	v28.9H312v-21.8v-2h-33.8v2v18.9c-30.7-13-58.6-27.8-83.8-44.5c-26.9-17.8-50.7-37.7-71.6-59.5v-0.8v-0.9v-2h-4.4v2v0.9H96.9v-0.9
	v-2h-4.4v2v1.7C71.7,279.1,47.9,299,21,316.8c-6.8,4.5-13.8,8.8-21,13.1v2v0.9v2c7.7-4.5,15.1-9.1,22.4-13.9
	c26.3-17.4,49.7-36.8,70.2-58v19.7c-20.8,19.9-44.6,37.5-71.5,52.7c-6.8,3.9-13.8,7.6-21.1,11.2v2v0.7v2c7.6-3.8,15.1-7.7,22.3-11.7
	c26.3-14.9,49.7-32.1,70.3-51.5v76.3H46.9V350v-2H9.7v2v14.2H0v2v0.5v2h6.8v7.2H0v2v0.5v2h9.7v18.1H3.7v2v29.9H0v2v4v2v8v2v56.4v2
	h1333h67h786.1v-68.4H2180.1z M562.4,288.4v-3.3h2.2v3.3H562.4z M564.7,292.6v6.6h-2.2v-6.6H564.7z M567.8,299.2v-6.6h2.2v6.6H567.8
	z M567.8,288.4v-3.3h2.2v3.3H567.8z M570.1,283.1v0.1h-2.2v-0.1H570.1z M562.4,283.1h2.2v0.1h-2.2V283.1z M9.7,368.6v7.2h-1v-7.2
	H9.7z M88,375.8v-7.2h4.5v7.2H88z M78.1,375.8v-7.2h8v7.2H78.1z M68.2,375.8v-7.2h8v7.2H68.2z M58.3,375.8v-7.2h8v7.2H58.3z
	 M48.4,375.8v-7.2h8v7.2H48.4z M278.1,389.5H268v2v10.8h-4.7v-19.4v-2h-23.8v2v11h-11v-13.7h49.6V389.5z M202.3,407.6h-9.7v-10.2v-2
	h-6.9v-15.1h16.7V407.6z M148.7,401.4v-10.6v-2h-7.8v-8.5h19.5v21.1H148.7z M185.6,335.1c2.4,1.4,4.9,2.9,7.4,4.3
	c16.1,9.1,33.2,17.4,51.5,24.8h-16v-1.4h-26.2v1.4h-16.7v-27.5V335.1z M145.6,368.6v7.2h-4.8v-7.2H145.6z M155.5,368.6v7.2h-8v-7.2
	H155.5z M160.4,368.6v7.2h-2.9v-7.2H160.4z M246.7,375.8v-7.2h8v7.2H246.7z M236.8,375.8v-7.2h8v7.2H236.8z M202.3,368.6v7.2h-5.2
	v-7.2H202.3z M228.5,375.8v-7.2h6.3v7.2H228.5z M187.2,375.8v-7.2h8v7.2H187.2z M264.6,368.6v7.2h-8v-7.2H264.6z M274.5,368.6v7.2
	h-8v-7.2H274.5z M278.1,368.6v7.2h-1.7v-7.2H278.1z M192.9,320.8c24.4,16.2,51.4,30.6,81,43.3h-17.5c-22.3-8.4-43-18.1-62.2-29
	c-26.9-15.2-50.7-32.8-71.5-52.7v-19.7C143.3,284,166.6,303.4,192.9,320.8z M184.9,334.6h-24.5v2v27.5h-19.5v-10.8v-2h-18.1v-63.4
	C141.1,305.2,161.8,320.8,184.9,334.6z M99.4,380.3h3.3v5.1l-4.2-4.2L99.4,380.3z M102.7,361.6l-4.2-4.2l4.2-4.2v0.1V361.6z
	 M104.6,351.3l3-3h0l3,3H104.6z M107.6,271.6L107.6,271.6l-8.8-8.8h17.6L107.6,271.6z M116.8,286.2l-9.1,9.1h0l-9.1-9.1l9.1-9.1h0
	L116.8,286.2z M116.8,310l-9.1,9.1h0l-9.1-9.1l9.1-9.1h0L116.8,310z M116.8,333.7l-9.1,9.1h0l-9.1-9.1l9.1-9.1h0L116.8,333.7z
	 M110.4,321.8l8-8v15.9L110.4,321.8z M110.4,298.1l8-8v15.9L110.4,298.1z M110.4,274.3l8-8v15.9L110.4,274.3z M110.4,345.5l8-7.9
	v13.7h-2.2L110.4,345.5z M104.9,274.3l-8,8v-15.9L104.9,274.3z M104.9,298.1l-8,8v-15.9L104.9,298.1z M104.9,321.8l-8,8v-16
	L104.9,321.8z M104.9,345.5l-8,8v-15.9L104.9,345.5z M99.8,364.1h-2.9v-2.9L99.8,364.1z M102.7,368.6v2.8l-4.3,4.3h-1.5v-7.2H102.7z
	 M102.7,390.8v2h-5.8V385L102.7,390.8z M331,398.8v9.7h-9.2v-28.3h19.7v16.6H331V398.8z M324.1,368.6v7.2h-8v-7.2H324.1z M312,385
	v-4.8h3l0.9,0.9L312,385z M312,408.5V401l3.9,3.9l-3.7,3.6H312z M312,395.5v-5l5.5-5.5V401L312,395.5z M314.1,375.8H312v-7.2h2.2
	V375.8z M334,368.6v7.2h-8v-7.2H334z M341.5,368.6v7.2h-5.6v-7.2H341.5z M375.8,368.6h7.7v7.2h-7.7V368.6z M385.7,368.6l4.4,3.6v3.6
	h-4.6v-7.2H385.7z M92.6,380.3v12.5H77v-5v-2h-7.1v2v17.4H46.9v-24.9H92.6z"/>
</svg>
