<?xml version="1.0" encoding="utf-8"?>
<!-- Generator: Adobe Illustrator 20.1.0, SVG Export Plug-In . SVG Version: 6.00 Build 0)  -->
<svg version="1.1" id="Layer_1" xmlns="http://www.w3.org/2000/svg" xmlns:xlink="http://www.w3.org/1999/xlink" x="0px" y="0px"
	 viewBox="0 0 1533.4 137.5" style="enable-background:new 0 0 1533.4 137.5;" xml:space="preserve">
<style type="text/css">
	.st0{opacity:0.8;fill:#F04C43;}
	.st1{opacity:0.5;fill:#41B5E8;}
	.st2{fill:#FFFFFF;}
</style>
<path class="st0" d="M7.4,68.8c0,0,150.8,3.8,200.9,3.8c171.8,0,192.9-45.8,259.1-45.8c85.8,0,144.4,84.5,210.4,84.5
	c91,0,149.2-102.7,233.7-102.7c48.4,0,185.3,71.8,288.8,71.8c24.1,0,37.2-8.3,88.3-8.3c36.7,0,244.8-3.3,244.8-3.3
	s-204.5-3.4-246.2-3.4c-52.8,0-63.6-6.4-81.9-6.4c-144.5,0-233,70-292.1,70C829,129,764.4,28.6,683.6,28.6
	c-82.9,0-122.8,82.5-213.7,82.5c-93.6,0-57.6-45.7-283.8-45.7C69.2,65.3,7.4,68.8,7.4,68.8z"/>
<path class="st1" d="M7.4,68.6c0,0,247.3-11.9,313-11.9s122.4,74.7,210,74.7C647.8,131.4,684.7,0,757.2,0
	c77.6,0,119.4,88.9,365.7,88.9c96.6,0,76-23.2,166.2-23.2c90.2,0,230.6,2.9,230.6,2.9s-147.8,4.8-231.1,4.8s-75.8-24.2-166.6-24.2
	c-169.8,0-204.1,88.3-363.7,88.3c-76.1,0-116.1-128.3-215.4-128.3c-90,0-158.3,72.1-227.5,72.1S7.4,68.6,7.4,68.6z"/>
<g>
	<path class="st2" d="M1166.8,66.4c-4.5,0-8.9-0.2-13.2-0.5c-12.9-1-25.9-0.5-38.6,2.1c-0.1,0-0.3,0.1-0.4,0.1l1,0.2
		c13,3.2,26.4,4.1,39.7,2.9c3.9-0.3,7.9-0.5,11.8-0.5c14,0,33.8-0.1,56.8-0.2c4.9,0,9.8-0.5,14.6-1.4l0.1,0c0,0-0.1,0-0.1,0
		c-8.8-1.7-17.8-2.6-26.8-2.7C1193.6,66.4,1178.1,66.4,1166.8,66.4z"/>
	<path class="st2" d="M829.5,68.3c0.2,0.2,0.5,0.4,0.7,0.6c34.6,28.2,82,34.6,122.9,17c8-3.4,16-6.8,24.4-10
		c-27.4-5.5-50.6-12.3-70.7-19.6c-26-9.4-55-5-76.9,11.8L829.5,68.3z"/>
	<path class="st2" d="M660.7,65.5c-1.1,1.1-2.3,2.3-3.4,3.4c8.5,3.6,16.8,7.3,25,10.7c33.1,14,71.1,10.3,100.7-10
		c0.2-0.1,0.3-0.2,0.5-0.3c-0.2-0.1-0.3-0.2-0.5-0.3C752.1,48.3,713,44.3,678.7,58.2C672.8,60.6,666.8,63,660.7,65.5z"/>
	<path class="st2" d="M1508,68.2c-2.3,0-4.8-0.1-7.3-0.1c-35.5-0.2-145-0.9-232.8-1.3c-9.7,0-19.4,0.7-29,2.4l-0.2,0
		c2.3,0.4,4.7,0.9,7.3,1.2C1344.1,69.8,1481.9,68.4,1508,68.2z"/>
	<path class="st2" d="M783.4,69.3c0.3,0.2,0.5,0.4,0.8,0.5c13.8,9.3,31.9,8.8,45.1-1.3l0.2-0.2c-0.1-0.1-0.1-0.1-0.2-0.2
		c-12.1-9.8-29.2-10.4-42-1.6C786,67.5,784.7,68.4,783.4,69.3z"/>
	<path class="st2" d="M977.5,75.8c0.2,0,0.4,0.1,0.6,0.1c38.4,7.6,78,6.4,115.9-3.1c6.7-1.7,13.6-3.3,20.6-4.7
		c-0.8-0.2-1.7-0.4-2.5-0.6c-44.4-11.1-91.2-8.4-133.9,8C978,75.6,977.7,75.7,977.5,75.8z"/>
	<path class="st2" d="M334.2,75.5c12.9,0,22.6-3.3,33.1-7.9c-1.5-0.6-3-1.3-4.5-1.9c-7.4-2.5-15.3-4-24.8-4c-3.2,0-6.8,0.4-11.3,1
		c-12.8,2.5-27.2,4.6-43.5,6.3c19.3,1.7,35.2,4,48.6,6.6C332.6,75.5,333.3,75.5,334.2,75.5z"/>
	<path class="st2" d="M417.2,47.1c-16,7.8-31.4,15.5-46.7,21.6c26.9,11.4,53.6,32.6,125.7,32.6c0,0,0,0,0.1,0
		c20.3,0,40.3-5.4,57.8-15.6c9-5.2,17.7-10.9,26.4-16.5c-0.2-0.1-0.4-0.3-0.6-0.4C536.2,41.4,483.5,32,433.2,43.1
		C427.4,44.3,422.1,45.7,417.2,47.1z"/>
	<path class="st2" d="M276.5,68.4c2.3,0.2,4.4,0.4,6.4,0.6c0.1,0,0.2,0,0.3,0c-2.1-0.2-4.2-0.4-6.4-0.5
		C276.7,68.4,276.6,68.4,276.5,68.4z"/>
	<path class="st2" d="M28.1,67.7c-7.5,0.3-13,0.5-16.5,0.7c35.3,0.7,140.8,2.9,177.1,2.9c38.7,0,66.8-1.3,87.7-2.9
		c-19-1.5-46.6-2.7-89.1-2.7C159.3,65.7,73.1,67,28.1,67.7z"/>
	<path class="st2" d="M654.2,68.1c0-0.4,0-0.1,0-0.5c-3.5-1.5-7-3-10.5-4.4c-20.6-8.5-44.1-6.4-62.8,5.8l-0.3,0.2l0.3,0.2
		c16.8,10.6,37.6,12.6,56.2,5.5C642.8,72.6,648.5,70.4,654.2,68.1z"/>
</g>
</svg>
