<?xml version="1.0" encoding="utf-8"?>
<!-- Generator: Adobe Illustrator 19.2.1, SVG Export Plug-In . SVG Version: 6.00 Build 0)  -->
<svg version="1.1" id="Layer_1" xmlns="http://www.w3.org/2000/svg" xmlns:xlink="http://www.w3.org/1999/xlink" x="0px" y="0px"
	 viewBox="0 0 1203 803" style="enable-background:new 0 0 1203 803;" xml:space="preserve">
<style type="text/css">
	.st0{fill:none;stroke:#ABB1B7;stroke-width:2;stroke-linecap:round;stroke-linejoin:round;}
	.st1{fill:none;stroke:#ABB1B7;stroke-width:2;stroke-linecap:round;stroke-linejoin:round;stroke-dasharray:0,5.0035;}
	.st2{fill:none;stroke:#ABB1B7;stroke-width:2;stroke-linecap:round;stroke-linejoin:round;stroke-dasharray:0,4.9496;}
	.st3{fill:none;stroke:#ABB1B7;stroke-width:2;stroke-linecap:round;stroke-linejoin:round;stroke-dasharray:0,5.0091;}
	.st4{fill:none;stroke:#ABB1B7;stroke-width:2;stroke-linecap:round;stroke-linejoin:round;stroke-dasharray:0,5.0153;}
	.st5{fill:none;stroke:#ABB1B7;stroke-width:2;stroke-linecap:round;stroke-linejoin:round;stroke-dasharray:0,5.0074;}
	.st6{fill:none;stroke:#ABB1B7;stroke-width:2;stroke-linecap:round;stroke-linejoin:round;stroke-dasharray:0,4.9961;}
	.st7{fill:none;stroke:#ABB1B7;stroke-width:2;stroke-linecap:round;stroke-linejoin:round;stroke-dasharray:0,5.0117;}
	.st8{fill:none;stroke:#ABB1B7;stroke-width:2;stroke-linecap:round;stroke-linejoin:round;stroke-dasharray:0,5.0077;}
	.st9{fill:none;stroke:#ABB1B7;stroke-width:2;stroke-linecap:round;stroke-linejoin:round;stroke-dasharray:0,5.0093;}
	.st10{fill:none;stroke:#ABB1B7;stroke-width:2;stroke-linecap:round;stroke-linejoin:round;stroke-dasharray:0,5.0002;}
	.st11{fill:none;stroke:#ABB1B7;stroke-width:2;stroke-linecap:round;stroke-linejoin:round;stroke-dasharray:0,5.0063;}
	.st12{fill:none;stroke:#ABB1B7;stroke-width:2;stroke-linecap:round;stroke-linejoin:round;stroke-dasharray:0,5.0174;}
	
		.st13{fill:none;stroke:#ABB1B7;stroke-width:2;stroke-linecap:round;stroke-linejoin:round;stroke-miterlimit:10;stroke-dasharray:0,5;}
</style>
<g>
	<g>
		<line class="st0" x1="1.5" y1="476.5" x2="1.5" y2="476.5"/>
		<line class="st1" x1="6.3" y1="475.2" x2="1199.1" y2="142.2"/>
		<line class="st0" x1="1201.5" y1="141.5" x2="1201.5" y2="141.5"/>
		<line class="st2" x1="1197.9" y1="138.1" x2="1056.4" y2="3.2"/>
		<line class="st0" x1="1054.6" y1="1.5" x2="1054.6" y2="1.5"/>
		<line class="st3" x1="1050.6" y1="4.6" x2="28.9" y2="800"/>
		<line class="st0" x1="26.9" y1="801.5" x2="26.9" y2="801.5"/>
		<line class="st4" x1="26.5" y1="796.5" x2="1.7" y2="479"/>
	</g>
</g>
<g>
	<g>
		<line class="st0" x1="952.7" y1="1.5" x2="952.7" y2="1.5"/>
		<line class="st5" x1="949.3" y1="5.2" x2="204.4" y2="799.7"/>
		<line class="st0" x1="202.7" y1="801.5" x2="202.7" y2="801.5"/>
		<line class="st6" x1="202.8" y1="796.5" x2="214.6" y2="419.5"/>
		<line class="st0" x1="214.7" y1="417" x2="214.7" y2="417"/>
		<line class="st7" x1="219" y1="414.5" x2="950.6" y2="2.7"/>
	</g>
</g>
<g>
	<g>
		<line class="st0" x1="1201.5" y1="510.6" x2="1201.5" y2="510.6"/>
		<line class="st8" x1="1196.5" y1="511.3" x2="20.7" y2="689.6"/>
		<line class="st0" x1="18.2" y1="690" x2="18.2" y2="690"/>
		<polyline class="st9" points="22.9,688.2 319.7,573.6 1199,510.8 		"/>
	</g>
</g>
<g>
	<g>
		<line class="st0" x1="65.3" y1="1.5" x2="65.3" y2="1.5"/>
		<polyline class="st10" points="69.8,3.5 559.4,222.9 1199.2,509.6 		"/>
		<line class="st0" x1="1201.5" y1="510.6" x2="1201.5" y2="510.6"/>
		<line class="st11" x1="1196.5" y1="510.1" x2="217.2" y2="417.2"/>
		<line class="st0" x1="214.7" y1="417" x2="214.7" y2="417"/>
		<line class="st12" x1="213" y1="412.3" x2="66.1" y2="3.9"/>
	</g>
</g>
<polygon class="st13" points="498.8,801.5 559.4,222.9 319.7,573.6 "/>
<line class="st13" x1="498.8" y1="801.5" x2="1201.5" y2="510.6"/>
</svg>
