<?xml version="1.0" encoding="utf-8"?>
<!-- Generator: Adobe Illustrator 19.2.0, SVG Export Plug-In . SVG Version: 6.00 Build 0)  -->
<svg version="1.1" id="Layer_1" xmlns="http://www.w3.org/2000/svg" xmlns:xlink="http://www.w3.org/1999/xlink" x="0px" y="0px"
	 viewBox="0 0 811.1 148.5" style="enable-background:new 0 0 811.1 148.5;" xml:space="preserve">
<style type="text/css">
	.st0{fill:#EB1D3B;}
	.st1{fill:#222222;}
	.st2{fill:#008FD7;}
</style>
<polygon id="Cross" class="st0" points="466.5,68.2 466.5,48.2 446.5,48.2 446.5,68.2 426.5,68.2 426.5,88.2 446.5,88.2 
	446.5,108.2 466.5,108.2 466.5,88.2 486.5,88.2 486.5,68.2 "/>
<g id="Emergency_Response_Team">
	<g id="Emergency">
		<path class="st1" d="M197.7,68.2v4h-9.9v4.1h8.9v3.8h-8.9v4.1H198v3.9h-14.7v-20H197.7z"/>
		<path class="st1" d="M224.3,75.6l-5.4,10.9h-2.7l-5.4-10.9v12.6h-4.5v-20h6l5.1,11l5.2-11h6v20h-4.5V75.6z"/>
		<path class="st1" d="M253.2,68.2v4h-9.9v4.1h8.9v3.8h-8.9v4.1h10.3v3.9h-14.7v-20H253.2z"/>
		<path class="st1" d="M278.6,74.8c0,3.2-1.3,5.3-3.8,6.2l5.1,7.1h-5.5l-4.4-6.4h-3.1v6.4h-4.5v-20h7.6c3.1,0,5.3,0.5,6.6,1.6
			C278,70.8,278.6,72.5,278.6,74.8z M273.3,77.2c0.6-0.5,0.8-1.3,0.8-2.4c0-1.1-0.3-1.8-0.9-2.2c-0.6-0.4-1.6-0.6-3-0.6h-3.3v5.9
			h3.3C271.7,77.9,272.7,77.7,273.3,77.2z"/>
		<path class="st1" d="M299.6,78h4.5v7.1c-2,2.2-4.7,3.3-8.2,3.3c-2.9,0-5.4-1-7.4-2.9c-2-1.9-3-4.4-3-7.4c0-3,1-5.4,3-7.4
			c2-2,4.5-3,7.3-3s5.4,0.9,7.5,2.8l-2.3,3.3c-0.9-0.8-1.7-1.3-2.5-1.6c-0.8-0.3-1.6-0.4-2.4-0.4c-1.7,0-3.1,0.6-4.3,1.7
			c-1.2,1.2-1.7,2.7-1.7,4.6c0,1.9,0.6,3.4,1.7,4.5c1.1,1.1,2.4,1.7,4,1.7c1.5,0,2.8-0.3,3.9-0.9V78z"/>
		<path class="st1" d="M328,68.2v4h-9.9v4.1h8.9v3.8h-8.9v4.1h10.3v3.9h-14.7v-20H328z"/>
		<path class="st1" d="M351.2,68.2h4.5v20h-4.5l-9.5-12.5v12.5h-4.5v-20h4.2l9.8,12.9V68.2z"/>
		<path class="st1" d="M373.2,84.2c2.2,0,4-0.9,5.4-2.6l2.9,2.9c-2.3,2.6-4.9,3.8-8,3.8s-5.6-1-7.6-2.9c-2-1.9-3-4.4-3-7.4
			c0-3,1-5.4,3-7.4c2-2,4.5-3,7.4-3c3.3,0,6,1.2,8.2,3.7l-2.8,3.1c-1.4-1.8-3.2-2.6-5.3-2.6c-1.7,0-3.1,0.5-4.3,1.6
			c-1.2,1.1-1.8,2.6-1.8,4.4c0,1.9,0.6,3.3,1.7,4.5C370.2,83.6,371.6,84.2,373.2,84.2z"/>
		<path class="st1" d="M397.5,88.1H393v-7.9l-6.9-12.1h4.8l4.3,7.4l4.3-7.4h4.8l-6.9,12.1V88.1z"/>
	</g>
	<g id="Response_Team">
		<path class="st1" d="M524.6,74.8c0,3.2-1.3,5.3-3.8,6.2l5.1,7.1h-5.5l-4.4-6.4h-3.1v6.4h-4.5v-20h7.6c3.1,0,5.3,0.5,6.6,1.6
			C523.9,70.8,524.6,72.5,524.6,74.8z M519.2,77.2c0.6-0.5,0.8-1.3,0.8-2.4s-0.3-1.8-0.9-2.2c-0.6-0.4-1.6-0.6-3-0.6h-3.3v5.9h3.3
			C517.6,77.9,518.6,77.7,519.2,77.2z"/>
		<path class="st1" d="M547.8,68.2v4h-10v4.1h9v3.8h-9v4.1h10.3v3.9h-14.7v-20H547.8z"/>
		<path class="st1" d="M561,72.2c-0.4,0.4-0.6,0.8-0.6,1.4c0,0.6,0.3,1,0.8,1.4c0.5,0.3,1.7,0.7,3.6,1.2c1.9,0.5,3.4,1.2,4.4,2.1
			c1,0.9,1.6,2.3,1.6,4.1c0,1.8-0.7,3.2-2,4.4c-1.3,1.1-3.1,1.7-5.3,1.7c-3.2,0-6-1.2-8.6-3.5l2.7-3.3c2.2,1.9,4.1,2.8,6,2.8
			c0.8,0,1.5-0.2,1.9-0.5c0.5-0.4,0.7-0.8,0.7-1.4c0-0.6-0.2-1.1-0.7-1.4c-0.5-0.4-1.5-0.7-2.9-1.1c-2.3-0.6-4-1.3-5.1-2.2
			c-1.1-0.9-1.6-2.3-1.6-4.2s0.7-3.4,2-4.4c1.4-1,3.1-1.5,5.1-1.5c1.3,0,2.7,0.2,4,0.7c1.3,0.5,2.5,1.1,3.5,1.9l-2.3,3.3
			c-1.7-1.3-3.5-2-5.4-2C562,71.6,561.5,71.8,561,72.2z"/>
		<path class="st1" d="M594.1,70c1.4,1.2,2.1,3,2.1,5.5c0,2.5-0.7,4.3-2.2,5.4c-1.4,1.1-3.6,1.7-6.6,1.7h-2.7v5.6h-4.5v-20h7.1
			C590.4,68.2,592.6,68.8,594.1,70z M590.8,77.8c0.5-0.6,0.8-1.5,0.8-2.6c0-1.2-0.3-2-1-2.5c-0.7-0.5-1.8-0.7-3.2-0.7h-2.5v6.7h3
			C589.2,78.7,590.2,78.4,590.8,77.8z"/>
		<path class="st1" d="M620.1,85.4c-2,2-4.5,3-7.5,3c-3,0-5.4-1-7.5-3c-2-2-3-4.4-3-7.4c0-2.9,1-5.4,3-7.4s4.5-3,7.5-3
			c3,0,5.4,1,7.5,3c2,2,3,4.4,3,7.4C623.1,81,622.1,83.4,620.1,85.4z M618.6,78.1c0-1.8-0.6-3.3-1.7-4.6c-1.1-1.3-2.5-1.9-4.2-1.9
			c-1.7,0-3.1,0.6-4.2,1.9c-1.1,1.3-1.7,2.8-1.7,4.6c0,1.8,0.6,3.3,1.7,4.5c1.1,1.2,2.5,1.9,4.2,1.9c1.7,0,3.1-0.6,4.2-1.9
			C618,81.4,618.6,79.8,618.6,78.1z"/>
		<path class="st1" d="M644.9,68.2h4.5v20h-4.5l-9.5-12.5v12.5h-4.5v-20h4.2l9.8,12.9V68.2z"/>
		<path class="st1" d="M663.3,72.2c-0.4,0.4-0.6,0.8-0.6,1.4c0,0.6,0.3,1,0.8,1.4c0.5,0.3,1.7,0.7,3.6,1.2c1.9,0.5,3.4,1.2,4.4,2.1
			c1,0.9,1.6,2.3,1.6,4.1c0,1.8-0.7,3.2-2,4.4c-1.3,1.1-3.1,1.7-5.3,1.7c-3.2,0-6-1.2-8.6-3.5l2.7-3.3c2.2,1.9,4.1,2.8,6,2.8
			c0.8,0,1.5-0.2,1.9-0.5c0.5-0.4,0.7-0.8,0.7-1.4c0-0.6-0.2-1.1-0.7-1.4c-0.5-0.4-1.5-0.7-2.9-1.1c-2.3-0.6-4-1.3-5.1-2.2
			c-1.1-0.9-1.6-2.3-1.6-4.2s0.7-3.4,2-4.4c1.4-1,3.1-1.5,5.1-1.5c1.3,0,2.7,0.2,4,0.7c1.3,0.5,2.5,1.1,3.5,1.9l-2.3,3.3
			c-1.7-1.3-3.5-2-5.4-2C664.3,71.6,663.7,71.8,663.3,72.2z"/>
		<path class="st1" d="M696.4,68.2v4h-10v4.1h9v3.8h-9v4.1h10.3v3.9h-14.7v-20H696.4z"/>
		<path class="st1" d="M728.1,72v16.1h-4.5V72H718v-3.9h15.8V72H728.1z"/>
		<path class="st1" d="M756.3,68.2v4h-10v4.1h9v3.8h-9v4.1h10.3v3.9h-14.7v-20H756.3z"/>
		<path class="st1" d="M778.4,88.2l-1.9-4.3h-8.4l-1.9,4.3h-4.7l8.6-20h4.3l8.6,20H778.4z M772.4,74.1l-2.5,5.8h5L772.4,74.1z"/>
		<path class="st1" d="M806.6,75.6l-5.4,10.9h-2.7l-5.4-10.9v12.6h-4.5v-20h6l5.1,11l5.2-11h6v20h-4.5V75.6z"/>
	</g>
</g>
<g id="Frame">
	<polygon class="st2" points="486.5,51.2 808.1,51.2 811.1,51.2 811.1,48.2 486.5,48.2 	"/>
	<polygon class="st2" points="186.4,51.2 426.5,51.2 426.5,48.2 183.4,48.2 183.4,51.2 	"/>
	<polygon class="st2" points="426.5,105.2 186.4,105.2 183.4,105.2 183.4,108.2 426.5,108.2 	"/>
	<polygon class="st2" points="808.1,105.2 486.5,105.2 486.5,108.2 811.1,108.2 811.1,105.2 	"/>
</g>
<g id="Teichert_Mark">
	<path class="st2" d="M87.9,2.1c12,19.8,23.4,39.9,34.6,59.9l-78-0.1l3.4-6.3L78.6,1.7C81.1-0.4,85.8-0.8,87.9,2.1z"/>
	<path class="st2" d="M140.7,93.8c8.8,15.2,18,30.3,26.6,45.4c0.6,2.5,0.2,4.4-1.1,6.3c-1.9,2.7-5.5,2.3-8.4,2.9H99.2l0-54.7
		C103,93.8,140.7,93.8,140.7,93.8z"/>
	<g>
		<path class="st2" d="M26.9,93.8C18,109,8.9,124.1,0.3,139.2c-0.6,2.5-0.2,4.4,1.1,6.3c1.9,2.7,5.5,2.3,8.4,3l58.6,0l0-54.7
			C64.6,93.8,26.9,93.8,26.9,93.8z"/>
	</g>
</g>
</svg>
