<?xml version="1.0" standalone="no"?>
<!DOCTYPE svg PUBLIC "-//W3C//DTD SVG 1.1//EN" "http://www.w3.org/Graphics/SVG/1.1/DTD/svg11.dtd" >
<!--
2016-12-1: Created with FontForge (http://fontforge.org)
-->
<svg xmlns="http://www.w3.org/2000/svg" xmlns:xlink="http://www.w3.org/1999/xlink" version="1.1">
<metadata>
Created by FontForge 20150715 at Thu Dec  1 21:28:07 2016
 By Dave McCarthy
Copyright (c) 2016, Dave McCarthy
</metadata>
<defs>
<font id="icons" horiz-adv-x="512" >
  <font-face 
    font-family="icons"
    font-weight="400"
    font-stretch="normal"
    units-per-em="512"
    panose-1="2 0 5 3 0 0 0 0 0 0"
    ascent="448"
    descent="-64"
    bbox="0 -65.5 515 448"
    underline-thickness="25.6"
    underline-position="-51.2"
    unicode-range="U+0020-F129"
  />
    <missing-glyph />
    <glyph glyph-name="space" unicode=" " horiz-adv-x="200" 
 />
    <glyph glyph-name="uniF10B" unicode="&#xf10b;" 
d="M256 81.2998c-6.59961 0 -13 2.60059 -17.7002 7.2998l-79.7002 79.7002c-9.7998 9.7998 -9.7998 25.6006 0 35.4004c9.80078 9.7998 25.6006 9.7998 35.4004 0l62 -62l62 62c9.7998 9.7998 25.5996 9.7998 35.4004 0c9.7998 -9.7998 9.7998 -25.6006 0 -35.4004
l-79.7002 -79.7002c-4.7002 -4.69922 -11.1006 -7.2998 -17.7002 -7.2998zM256 196.7c-13.7998 0 -25 11.2002 -25 25v56c0 13.7998 11.2002 25 25 25s25 -11.2002 25 -25v-56c0 -13.7998 -11.2002 -25 -25 -25zM256 398c-55 0 -106.8 -21.4004 -145.7 -60.2998
c-38.8994 -38.9004 -60.2998 -90.7002 -60.2998 -145.7s21.4004 -106.8 60.2998 -145.7c38.9004 -38.8994 90.7002 -60.2998 145.7 -60.2998s106.8 21.4004 145.7 60.2998c38.8994 38.9004 60.2998 90.7002 60.2998 145.7s-21.4004 106.8 -60.2998 145.7
c-38.9004 38.8994 -90.7002 60.2998 -145.7 60.2998zM256 448v0c141.4 0 256 -114.6 256 -256s-114.6 -256 -256 -256s-256 114.6 -256 256s114.6 256 256 256z" />
    <glyph glyph-name="uniF10E" unicode="&#xf10e;" 
d="M256 302.7c6.59961 0 13 -2.60059 17.7002 -7.2998l79.7002 -79.7002c9.7998 -9.7998 9.7998 -25.6006 0 -35.4004c-9.80078 -9.7998 -25.6006 -9.7998 -35.4004 0l-62 62l-62 -62c-9.7998 -9.7998 -25.5996 -9.7998 -35.4004 0
c-9.7998 9.7998 -9.7998 25.6006 0 35.4004l79.7002 79.7002c4.7002 4.69922 11.1006 7.2998 17.7002 7.2998zM256 187.3c13.7998 0 25 -11.2002 25 -25v-56c0 -13.7998 -11.2002 -25 -25 -25s-25 11.2002 -25 25v56c0 13.7998 11.2002 25 25 25zM256 -14
c55 0 106.8 21.4004 145.7 60.2998c38.8994 38.9004 60.2998 90.7002 60.2998 145.7s-21.4004 106.8 -60.2998 145.7c-38.9004 38.8994 -90.7002 60.2998 -145.7 60.2998s-106.8 -21.4004 -145.7 -60.2998c-38.8994 -38.9004 -60.2998 -90.7002 -60.2998 -145.7
s21.4004 -106.8 60.2998 -145.7c38.9004 -38.8994 90.7002 -60.2998 145.7 -60.2998zM256 -64v0c-141.4 0 -256 114.6 -256 256s114.6 256 256 256s256 -114.6 256 -256s-114.6 -256 -256 -256z" />
    <glyph glyph-name="uniF101" unicode="&#xf101;" 
d="M374.3 -57.5h-235.6c-72.4004 0 -131.3 58.9004 -131.3 131.3v235.5c0.0996094 72.2998 59 131.2 131.3 131.2h235.5c72.3994 0 131.3 -58.9004 131.3 -131.3v-235.5c0 -72.2998 -58.9004 -131.2 -131.2 -131.2zM138.7 390.5
c-44.7998 0 -81.2998 -36.5 -81.2998 -81.2998v-235.5c0 -44.7998 36.5 -81.2998 81.2998 -81.2998h235.5c44.7998 0 81.2998 36.5 81.2998 81.2998v235.6c0 44.7998 -36.5 81.2998 -81.2998 81.2998h-235.5v-0.0996094zM351.1 316
c0 16.5137 13.3867 29.9004 29.9004 29.9004s29.9004 -13.3867 29.9004 -29.9004s-13.3867 -29.9004 -29.9004 -29.9004s-29.9004 13.3867 -29.9004 29.9004zM251.5 62c-68.7002 0 -124.5 55.7998 -124.5 124.5s55.9004 124.6 124.6 124.6
c68.7002 0 124.601 -55.8994 124.601 -124.6s-56 -124.5 -124.7 -124.5zM251.5 261.1c-41.0996 0 -74.5996 -33.5 -74.5996 -74.5996s33.5 -74.5996 74.5996 -74.5996s74.5996 33.5 74.5996 74.5996s-33.5 74.5996 -74.5996 74.5996z" />
    <glyph glyph-name="uniF126" unicode="&#xf126;" 
d="M486.4 -60.7998c-0.200195 -0.100586 -0.400391 -0.100586 -0.600586 -0.200195h-0.599609h-1.2002h-108.6c-13.8008 0 -25 11.2002 -25 25s11.1992 25 25 25h48.1992l-167.6 167.6l-167.6 -167.5h48c13.7998 0 25 -11.1992 25 -25c0 -13.7998 -11.2002 -25 -25 -25
h-108.5h-1.2002h-0.600586h-0.599609s-0.5 0.100586 -0.700195 0.100586c-0.200195 0.0996094 -0.299805 0.0996094 -0.5 0.0996094c-0.299805 0 -0.5 0.100586 -0.799805 0.100586c-0.0996094 0.0996094 -0.299805 0.0996094 -0.400391 0.0996094
c-0.299805 0.0996094 -0.5 0.0996094 -0.799805 0.200195c-0.0996094 0 -0.299805 0.0996094 -0.399414 0.0996094c-0.300781 0.100586 -0.5 0.100586 -0.800781 0.200195c-0.0996094 0 -0.299805 0.0996094 -0.399414 0.0996094
c-0.200195 0 -0.5 0.100586 -0.700195 0.200195c-0.200195 0.100586 -0.299805 0.100586 -0.5 0.200195c-0.200195 0 -0.400391 0.0996094 -0.599609 0.200195c-0.100586 0.0996094 -0.300781 0.0996094 -0.5 0.200195c-0.100586 0 -0.300781 0.0996094 -0.5 0.199219
c-0.200195 0.100586 -0.400391 0.200195 -0.600586 0.300781c-0.0996094 0.0996094 -0.299805 0.0996094 -0.399414 0.199219c-0.300781 0.100586 -0.5 0.200195 -0.700195 0.300781c-0.100586 0.0996094 -0.299805 0.0996094 -0.400391 0.199219
c-0.200195 0.100586 -0.5 0.300781 -0.700195 0.400391c-0.0996094 0.0996094 -0.199219 0.0996094 -0.299805 0.200195c-0.200195 0.0996094 -0.5 0.200195 -0.700195 0.399414c-0.0996094 0 -0.199219 0.100586 -0.299805 0.200195
c-0.299805 0.200195 -0.5 0.299805 -0.700195 0.5c-0.0996094 0.100586 -0.299805 0.200195 -0.399414 0.299805c-0.200195 0.200195 -0.400391 0.300781 -0.600586 0.5c-0.199219 0.100586 -0.299805 0.300781 -0.5 0.400391
c-0.0996094 0.200195 -0.299805 0.299805 -0.399414 0.400391c-0.600586 0.5 -1.10059 1.09961 -1.7002 1.69922c-0.0996094 0.100586 -0.299805 0.300781 -0.400391 0.400391c-0.0996094 0.200195 -0.299805 0.299805 -0.399414 0.5
c-0.200195 0.200195 -0.299805 0.400391 -0.5 0.599609c-0.100586 0.200195 -0.200195 0.300781 -0.299805 0.400391c-0.200195 0.299805 -0.300781 0.5 -0.5 0.700195c0 0.0996094 -0.100586 0.200195 -0.200195 0.299805
c-0.100586 0.200195 -0.299805 0.5 -0.400391 0.700195c-0.0996094 0.0996094 -0.0996094 0.200195 -0.200195 0.299805c-0.0996094 0.200195 -0.299805 0.5 -0.399414 0.700195c-0.100586 0.0996094 -0.100586 0.299805 -0.200195 0.399414
c-0.0996094 0.300781 -0.200195 0.5 -0.299805 0.700195c-0.100586 0.100586 -0.100586 0.299805 -0.200195 0.400391c-0.0996094 0.200195 -0.200195 0.399414 -0.299805 0.599609c0 0.100586 -0.100586 0.299805 -0.200195 0.5
c-0.0996094 0.100586 -0.0996094 0.299805 -0.200195 0.5c0 0.200195 -0.0996094 0.400391 -0.200195 0.600586c-0.0996094 0.199219 -0.0996094 0.299805 -0.199219 0.5c-0.100586 0.199219 -0.100586 0.5 -0.200195 0.699219
c0 0.100586 -0.100586 0.300781 -0.100586 0.400391c-0.0996094 0.299805 -0.0996094 0.5 -0.199219 0.799805c0 0.100586 -0.100586 0.299805 -0.100586 0.400391c-0.0996094 0.299805 -0.0996094 0.5 -0.200195 0.799805
c-0.0996094 0.0996094 -0.0996094 0.299805 -0.0996094 0.400391c0 0.299805 -0.0996094 0.5 -0.0996094 0.799805c-0.100586 0.200195 -0.100586 0.299805 -0.100586 0.5s-0.0996094 0.5 -0.0996094 0.700195c-0.100586 0.299805 -0.100586 0.5 -0.100586 0.699219
v0.600586v2.5v0.599609c0.100586 0.299805 0.100586 0.5 0.100586 0.700195s0.0996094 0.5 0.0996094 0.700195c0.100586 0.200195 0.100586 0.299805 0.100586 0.5c0 0.299805 0.0996094 0.5 0.0996094 0.799805c0 0.0996094 0.0996094 0.299805 0.0996094 0.400391
c0.100586 0.299805 0.100586 0.5 0.200195 0.799805c0 0.0996094 0.100586 0.299805 0.100586 0.399414c0.0996094 0.300781 0.0996094 0.600586 0.199219 0.800781c0 0.0996094 0.100586 0.299805 0.100586 0.399414c0 0.200195 0.0996094 0.5 0.200195 0.700195
c0.0996094 0.200195 0.0996094 0.299805 0.199219 0.5c0 0.200195 0.100586 0.400391 0.200195 0.599609c0.100586 0.100586 0.100586 0.300781 0.200195 0.5c0 0.100586 0.0996094 0.300781 0.200195 0.5c0.0996094 0.200195 0.200195 0.400391 0.299805 0.600586
c0.0996094 0.0996094 0.0996094 0.299805 0.200195 0.399414c0.0996094 0.300781 0.200195 0.5 0.299805 0.700195c0.0996094 0.100586 0.0996094 0.299805 0.200195 0.400391c0.0996094 0.200195 0.299805 0.5 0.399414 0.700195
c0.100586 0.0996094 0.100586 0.199219 0.200195 0.299805c0.100586 0.200195 0.200195 0.5 0.400391 0.700195c0 0.0996094 0.0996094 0.199219 0.200195 0.299805c0.199219 0.299805 0.299805 0.5 0.5 0.700195c0.0996094 0.199219 0.199219 0.299805 0.299805 0.399414
c0.200195 0.200195 0.299805 0.400391 0.5 0.600586c0.0996094 0.199219 0.299805 0.299805 0.399414 0.5c0.100586 0.0996094 0.300781 0.299805 0.400391 0.399414c0.299805 0.299805 0.599609 0.600586 0.900391 0.900391l210.199 210.3l-210.3 210.3v0
c-0.299805 0.200195 -0.5 0.5 -0.799805 0.799805c-0.0996094 0.200195 -0.299805 0.300781 -0.400391 0.5c-0.0996094 0.200195 -0.299805 0.300781 -0.399414 0.5c-0.200195 0.200195 -0.299805 0.400391 -0.5 0.600586
c-0.100586 0.200195 -0.200195 0.299805 -0.299805 0.399414c-0.200195 0.300781 -0.300781 0.5 -0.5 0.700195c0 0.100586 -0.100586 0.200195 -0.200195 0.299805c-0.100586 0.200195 -0.299805 0.5 -0.400391 0.700195
c-0.0996094 0.100586 -0.0996094 0.200195 -0.200195 0.299805c-0.0996094 0.200195 -0.299805 0.5 -0.399414 0.700195c-0.100586 0.100586 -0.100586 0.299805 -0.200195 0.400391c-0.0996094 0.299805 -0.200195 0.5 -0.299805 0.700195
c-0.100586 0.0996094 -0.100586 0.299805 -0.200195 0.399414c-0.0996094 0.200195 -0.200195 0.400391 -0.299805 0.600586c-0.100586 0.0996094 -0.200195 0.299805 -0.200195 0.399414c-0.0996094 0.100586 -0.0996094 0.299805 -0.200195 0.5
c0 0.200195 -0.0996094 0.400391 -0.200195 0.600586c-0.0996094 0.199219 -0.0996094 0.299805 -0.199219 0.5c-0.100586 0.199219 -0.100586 0.5 -0.200195 0.699219c0 0.100586 -0.100586 0.300781 -0.100586 0.400391
c-0.0996094 0.299805 -0.0996094 0.5 -0.199219 0.799805c0 0.100586 -0.100586 0.299805 -0.100586 0.400391c-0.0996094 0.299805 -0.0996094 0.5 -0.200195 0.799805c-0.0996094 0.0996094 -0.0996094 0.299805 -0.0996094 0.400391
c0 0.299805 -0.0996094 0.5 -0.0996094 0.799805c-0.100586 0.200195 -0.100586 0.299805 -0.100586 0.5s-0.0996094 0.5 -0.0996094 0.700195c-0.100586 0.299805 -0.100586 0.5 -0.100586 0.699219v0.600586v2.5v0.599609
c0.100586 0.299805 0.100586 0.5 0.100586 0.700195s0.0996094 0.5 0.0996094 0.700195c0.100586 0.200195 0.100586 0.299805 0.100586 0.5c0 0.299805 0.0996094 0.5 0.0996094 0.799805c0 0.0996094 0.0996094 0.299805 0.0996094 0.400391
c0.100586 0.299805 0.100586 0.5 0.200195 0.799805c0 0.0996094 0.100586 0.299805 0.100586 0.399414c0.0996094 0.300781 0.0996094 0.600586 0.199219 0.800781c0 0.0996094 0.100586 0.299805 0.100586 0.399414c0 0.200195 0.0996094 0.5 0.200195 0.700195
c0.0996094 0.200195 0.0996094 0.299805 0.199219 0.5c0 0.200195 0.100586 0.400391 0.200195 0.599609c0.100586 0.100586 0.100586 0.300781 0.200195 0.5c0 0.200195 0.0996094 0.300781 0.200195 0.5c0.0996094 0.200195 0.200195 0.400391 0.299805 0.600586
c0.0996094 0.0996094 0.0996094 0.299805 0.200195 0.399414c0.0996094 0.300781 0.200195 0.5 0.299805 0.700195c0.0996094 0.100586 0.0996094 0.200195 0.299805 0.400391c0.100586 0.200195 0.299805 0.5 0.400391 0.700195
c0.0996094 0.0996094 0.0996094 0.199219 0.200195 0.299805c0.0996094 0.200195 0.199219 0.5 0.399414 0.700195c0 0.0996094 0.100586 0.199219 0.200195 0.299805c0.200195 0.299805 0.299805 0.5 0.5 0.700195
c0.0996094 0.0996094 0.200195 0.199219 0.200195 0.299805c0.200195 0.200195 0.299805 0.399414 0.5 0.599609c0.0996094 0.200195 0.299805 0.299805 0.399414 0.400391c0.100586 0.200195 0.300781 0.299805 0.400391 0.5c0.299805 0.299805 0.5 0.599609 0.900391 1v0
v0c0.299805 0.299805 0.599609 0.5 0.899414 0.799805c0.100586 0.0996094 0.299805 0.299805 0.400391 0.400391c0.200195 0.0996094 0.299805 0.299805 0.200195 0.599609c0.199219 0.200195 0.399414 0.400391 0.599609 0.5
c0.0996094 0.0996094 0.299805 0.200195 0.400391 0.299805c0.199219 0.200195 0.399414 0.400391 0.599609 0.5c0.200195 0 0.299805 0.100586 0.400391 0.200195c0.299805 0.0996094 0.5 0.299805 0.699219 0.400391c0.200195 0 0.300781 0.0996094 0.400391 0.199219
c0.299805 0.200195 0.5 0.300781 0.700195 0.400391c0.0996094 0 0.299805 0.0996094 0.399414 0.200195c0.200195 0.0996094 0.400391 0.200195 0.600586 0.299805c0.200195 0 0.299805 0.0996094 0.5 0.200195c0.200195 0.0996094 0.399414 0.200195 0.599609 0.299805
c0.200195 0 0.400391 0.0996094 0.600586 0.200195c0.199219 0.0996094 0.299805 0.0996094 0.5 0.200195c0.199219 0 0.399414 0.0996094 0.599609 0.199219c0.200195 0.100586 0.299805 0.100586 0.5 0.200195c0.200195 0 0.5 0.100586 0.700195 0.200195
c0.0996094 0 0.299805 0.0996094 0.399414 0.0996094c0.300781 0.100586 0.5 0.100586 0.800781 0.200195c0.199219 0 0.299805 0.100586 0.399414 0.100586c0.299805 0.0996094 0.5 0.0996094 0.799805 0.199219c0.100586 0.100586 0.300781 0.100586 0.400391 0.100586
c0.299805 0 0.5 0.0996094 0.799805 0.0996094c0.100586 0.100586 0.299805 0.100586 0.400391 0.100586c0.299805 0 0.5 0.0996094 0.799805 0.0996094h0.599609h0.600586h1.09961h0.200195h108.6c13.8008 0 25 -11.2002 25 -25s-11.1992 -25 -25 -25h-48.1992
l167.6 -167.6l167.6 167.6h-50.1992c-13.8008 0 -25 11.2002 -25 25s11.1992 25 25 25h108.5h1c6.69922 0.299805 13.5996 -2.2002 18.6992 -7.2998c9.80078 -9.7998 9.80078 -25.6006 0 -35.4004l-210.199 -210.3l210.3 -210.3v0
c0.299805 -0.200195 0.5 -0.5 0.799805 -0.799805c0.0996094 -0.200195 0.299805 -0.300781 0.400391 -0.5c0.0996094 -0.200195 0.299805 -0.300781 0.399414 -0.5c0.200195 -0.200195 0.299805 -0.400391 0.5 -0.600586
c0.100586 -0.200195 0.200195 -0.299805 0.299805 -0.399414c0.200195 -0.300781 0.300781 -0.5 0.5 -0.700195c0 -0.100586 0.100586 -0.200195 0.200195 -0.299805c0.100586 -0.200195 0.299805 -0.5 0.400391 -0.700195
c0.0996094 -0.100586 0.0996094 -0.200195 0.200195 -0.299805c0.0996094 -0.200195 0.299805 -0.5 0.399414 -0.700195c0.100586 -0.100586 0.100586 -0.299805 0.200195 -0.400391c0.0996094 -0.200195 0.200195 -0.399414 0.299805 -0.599609
c0 -0.200195 0.100586 -0.299805 0.200195 -0.5s0.200195 -0.400391 0.299805 -0.600586c0 -0.0996094 0.100586 -0.299805 0.200195 -0.5c0.0996094 -0.0996094 0.0996094 -0.299805 0.200195 -0.5c0 -0.199219 0.0996094 -0.399414 0.200195 -0.599609
c0.0996094 -0.200195 0.0996094 -0.299805 0.199219 -0.5c0 -0.200195 0.100586 -0.5 0.200195 -0.700195c0 -0.0996094 0.100586 -0.299805 0.100586 -0.399414c0.0996094 -0.300781 0.0996094 -0.5 0.199219 -0.800781
c0 -0.0996094 0.100586 -0.299805 0.100586 -0.399414c0.0996094 -0.299805 0.0996094 -0.5 0.200195 -0.799805c0.0996094 -0.100586 0.0996094 -0.300781 0.0996094 -0.400391c0 -0.299805 0.0996094 -0.5 0.0996094 -0.799805
c0.100586 -0.100586 0.100586 -0.299805 0.100586 -0.400391c0 -0.299805 0.0996094 -0.5 0.0996094 -0.799805v-0.599609v-0.600586v-1.09961v-0.200195v-0.200195v-1.09961v-0.600586v-0.599609c0 -0.299805 -0.0996094 -0.5 -0.0996094 -0.799805
c-0.100586 -0.100586 -0.100586 -0.299805 -0.100586 -0.400391c0 -0.299805 -0.0996094 -0.5 -0.0996094 -0.799805c-0.0996094 -0.0996094 -0.0996094 -0.299805 -0.0996094 -0.400391c-0.100586 -0.299805 -0.100586 -0.5 -0.200195 -0.799805
c0 -0.0996094 -0.100586 -0.299805 -0.100586 -0.399414c-0.0996094 -0.300781 -0.0996094 -0.5 -0.199219 -0.800781c0 -0.0996094 -0.100586 -0.299805 -0.100586 -0.399414c0 -0.200195 -0.0996094 -0.5 -0.200195 -0.700195
c-0.0996094 -0.200195 -0.0996094 -0.299805 -0.199219 -0.5c0 -0.200195 -0.100586 -0.400391 -0.200195 -0.599609c-0.100586 -0.100586 -0.100586 -0.300781 -0.200195 -0.5c0 -0.100586 -0.0996094 -0.300781 -0.200195 -0.5
c-0.0996094 -0.200195 -0.200195 -0.400391 -0.299805 -0.600586c0 -0.200195 -0.0996094 -0.299805 -0.200195 -0.5c-0.0996094 -0.200195 -0.200195 -0.399414 -0.299805 -0.599609c-0.0996094 -0.100586 -0.0996094 -0.299805 -0.200195 -0.400391
c-0.0996094 -0.200195 -0.299805 -0.5 -0.399414 -0.700195c-0.100586 -0.0996094 -0.100586 -0.199219 -0.200195 -0.299805c-0.100586 -0.200195 -0.200195 -0.5 -0.400391 -0.700195c0 -0.0996094 -0.0996094 -0.199219 -0.200195 -0.299805
c-0.199219 -0.299805 -0.299805 -0.5 -0.5 -0.700195c-0.0996094 -0.199219 -0.199219 -0.299805 -0.299805 -0.399414c-0.200195 -0.200195 -0.299805 -0.400391 -0.5 -0.600586c-0.0996094 -0.199219 -0.299805 -0.299805 -0.399414 -0.5
c-0.100586 -0.199219 -0.300781 -0.399414 -0.400391 -0.5c-0.299805 -0.199219 -0.5 -0.5 -0.799805 -0.799805v0v0c-0.299805 -0.299805 -0.600586 -0.5 -0.900391 -0.799805c-0.200195 -0.0996094 -0.299805 -0.299805 -0.5 -0.400391
c-0.200195 -0.0996094 -0.299805 -0.299805 -0.5 -0.399414c-0.200195 -0.200195 -0.399414 -0.299805 -0.599609 -0.5c-0.200195 -0.100586 -0.299805 -0.200195 -0.400391 -0.299805c-0.299805 -0.200195 -0.5 -0.300781 -0.700195 -0.5
c-0.0996094 0 -0.199219 -0.100586 -0.299805 -0.200195c-0.200195 -0.100586 -0.5 -0.299805 -0.700195 -0.400391c-0.0996094 -0.0996094 -0.199219 -0.0996094 -0.299805 -0.200195c-0.200195 -0.0996094 -0.5 -0.299805 -0.700195 -0.399414
c-0.199219 -0.100586 -0.299805 -0.100586 -0.399414 -0.200195c-0.299805 -0.0996094 -0.5 -0.200195 -0.700195 -0.299805c-0.0996094 -0.100586 -0.299805 -0.100586 -0.400391 -0.200195c-0.199219 -0.0996094 -0.399414 -0.200195 -0.599609 -0.299805
c-0.200195 -0.100586 -0.299805 -0.100586 -0.5 -0.200195s-0.400391 -0.0996094 -0.599609 -0.200195c-0.200195 0 -0.400391 -0.0996094 -0.600586 -0.200195c-0.200195 -0.0996094 -0.299805 -0.0996094 -0.5 -0.199219
c-0.200195 -0.100586 -0.5 -0.100586 -0.700195 -0.200195c-0.0996094 0 -0.299805 -0.100586 -0.399414 -0.100586c-0.200195 -0.0996094 -0.400391 -0.0996094 -0.700195 -0.199219c-0.0996094 0 -0.299805 -0.100586 -0.400391 -0.100586
c-0.299805 -0.0996094 -0.5 -0.0996094 -0.799805 -0.200195c-0.0996094 -0.0996094 -0.299805 -0.0996094 -0.399414 -0.0996094c-0.300781 0 -0.5 -0.0996094 -0.800781 -0.0996094c-0.199219 -0.100586 -0.299805 -0.100586 -0.5 -0.100586
c-0.199219 0 -0.5 -0.0996094 -0.699219 -0.0996094z" />
    <glyph glyph-name="uniF103" unicode="&#xf103;" 
d="M0 352.9c0 16.5 13.4004 30 30 30h452c16.5996 0 30 -13.4004 30 -30v-321.7c0 -16.6006 -13.4004 -30 -30 -30h-452c-16.5996 0 -30 13.3994 -30 30v321.7zM462 180h-0.0996094v137.9c0 8.2998 -6.7002 15 -15 15h-382c-8.30078 0 -15 -6.7002 -15 -15v-182.601
c66.6992 60 83.2998 -17.7998 137.899 -17.7998c101.7 0 118.7 99.9004 198.601 99.9004c37.3994 0 60.8994 -16.2002 75.5996 -37.4004zM204.2 175.1c-30.4004 0 -55.2002 24.8008 -55.2002 55.2002c0 30.5 24.7002 55.4004 55.2002 55.4004
s55.2998 -24.7998 55.2998 -55.2998s-24.7998 -55.3008 -55.2998 -55.3008z" />
    <glyph glyph-name="uniF104" unicode="&#xf104;" 
d="M127.2 200c13.8994 -1.09961 24.2002 -13.4004 23 -27.2998c-1.2998 -13.7002 -13.7998 -23.7002 -27.5 -22.5c-30.2998 2.59961 -55.2998 13.7998 -72.1006 23.7002c-13.0996 7.69922 -16.3994 25.1992 -7 37.0996v0c7.80078 9.7998 21.6006 12.2998 32.4004 6
c12.4004 -7.2998 30.2998 -15.2998 51.2002 -17zM478.2 286.9c6.2002 -7.7002 7.2002 -18.3008 2.7002 -27.3008c-12.3008 -23.6992 -21.8008 -34.3994 -28 -41.5c-4.7002 -5.2998 -4.7002 -5.2998 -5.5 -10c-20 -118.1 -62.8008 -193.899 -130.801 -231.899
c-31.7998 -17.7002 -69 -26.7002 -110.8 -26.7002c-3.39941 0 -6.7998 0.0996094 -10.2002 0.200195c-48.5996 1.7002 -104.399 15.2002 -166 40.2002c-12.7998 5.19922 -19 19.7998 -13.7998 32.5996c4 9.7002 13.2998 15.5996 23.2002 15.5996h0.700195
c3.2002 0 33.2998 0.800781 79.7998 18.2002c12.9004 4.90039 27.4004 -1.7002 32.2002 -14.5996c4.89941 -12.9004 -1.7002 -27.4004 -14.6006 -32.2002c-0.899414 -0.299805 -1.89941 -0.700195 -2.7998 -1c64.7002 -14.7998 117.601 -11 158 11.5
c53.9004 30.0996 88.5 94.4004 105.9 196.6c2.7998 16.4004 8.7002 24.7002 14.7998 31.8008c-9.40039 3.59961 -15.2002 8.19922 -17.5996 10.3994l-1.10059 1.10059c-0.200195 0.199219 -0.299805 0.299805 -0.5 0.5c-4.7002 5 -8.59961 9.7998 -12.0996 14
c-6.40039 7.69922 -10.9004 13.1992 -16.7002 16.5996c-4.09961 2.40039 -11.5996 5.59961 -29.4004 5.59961c-34.5 0 -62.5996 -27.5996 -63.3994 -61.7998c0 -16.8994 -12.6006 -27.3994 -35.5 -27.3994c-22.6006 0 -141 9.89941 -200 102.399
c-8.7998 13.7002 0.799805 32.1006 16.5 36.1006v0c10.7998 2.69922 20.2998 -3.30078 28 -11.4004c55.8994 -59 98.8994 -73 144.5 -73c12.5996 48.9004 57 85.0996 109.8 85.0996c51.4004 0 69.0996 -21.5 84.7002 -40.3994
c2.7998 -3.40039 5.7002 -6.90039 8.7998 -10.2998c1.90039 -1.10059 9.09961 -4.10059 23.4004 -0.400391c9.5 2.5 19.5996 -0.900391 25.7998 -8.59961zM111.1 127.2c7.7002 -1.7002 25.9004 -0.200195 50.8008 7c13.3994 3.7998 27.2998 -5.2002 30.2998 -19
c2.89941 -13.4004 -5.7998 -26.6006 -19.1006 -29.7998c-25.8994 -6.30078 -43.3994 -8.30078 -55.2998 -8.30078c-15.8994 0 -21.7998 2.60059 -24.5 4.2002c-11.8994 7.10059 -15.5996 22.5 -8.5 34.2998c5.60059 9.30078 16.2998 13.9004 26.2998 11.6006z" />
    <glyph glyph-name="uniF10A" unicode="&#xf10a;" 
d="M486.4 51.7998c-6.40039 0 -12.8008 2.40039 -17.7002 7.2998l-212.7 212.7l-212.7 -212.7c-9.7998 -9.7998 -25.5996 -9.7998 -35.3994 0c-9.80078 9.80078 -9.80078 25.6006 0 35.4004l230.399 230.4c4.7002 4.69922 11 7.2998 17.7002 7.2998
c6.59961 0 13 -2.60059 17.7002 -7.2998l230.399 -230.4c9.80078 -9.7998 9.80078 -25.5996 0 -35.4004c-4.89941 -4.89941 -11.2998 -7.2998 -17.6992 -7.2998z" />
    <glyph glyph-name="uniF105" unicode="&#xf105;" 
d="M379.6 143.9c51.9004 0 94.4004 -42.2002 94.4004 -94.1006c0 -51.8994 -42.2002 -94.0996 -94.0996 -94.0996c-0.800781 0 -1.5 0 -2.2002 0.0996094c-1 -0.0996094 -2.60059 -0.200195 -4.7998 -0.200195c-7.60059 0 -22 1.30078 -39.2002 9.2002
c-8.2998 3.90039 -18.1006 9.7002 -28.2002 18.5c4 8.7002 12.5996 24 28.7002 41.4004c20.2002 -19.7002 38 -19.1006 39.2002 -19.1006c1.5 0 4 0.100586 6.39941 0.100586c24.2998 0 44.1006 19.7998 44.1006 44.0996s-19.8008 44.1006 -44.1006 44.1006
c-7.5 0 -14.5996 -1.80078 -21.0996 -5.30078l-1.10059 -0.599609c-1.5 -0.799805 -37.3994 -22.4004 -85.5996 -109c-6.7998 -12.0996 -20.7998 -17.9004 -33.2998 -12s-17.9004 20.7998 -12 33.2998c9.2002 19.7002 19.2998 37.7002 30.0996 54
c-12.5 25.6006 -24.7998 48.5 -36.0996 67.9004v0s29.5996 34.7998 31.8994 42.2998c11.7002 -18.5996 24.8008 -41 38.3008 -67c2.19922 2.2002 4.2998 4.40039 6.5 6.5c19.0996 18.5996 33.7998 26.7002 37.5996 28.7002c13.5996 7.2998 29.0996 11.2002 44.5996 11.2002z
M379.6 419.7c51.9004 0 94 -42.2998 94 -94.2002s-42.1992 -94.0996 -94.0996 -94.0996c-15.7002 0 -31.2998 4 -45 11.5c-0.299805 0.199219 -0.5 0.299805 -0.799805 0.5c-5.10059 2.69922 -18.9004 11 -36.4004 28c-2.09961 2.09961 -4.2998 4.2998 -6.39941 6.5
c-15.6006 15 -34.2002 43.1992 -34.2002 43.1992c-10.7998 16.3008 -20.7998 34.3008 -30.1006 54c-5.89941 12.5 -0.5 27.4004 12 33.3008c12.5 5.89941 27.4004 0.5 33.3008 -12c3.69922 -7.80078 8.09961 -16.5 13.2998 -25.8008c12.0996 15.8008 28 30.6006 48.2998 40
c22.0996 10.2002 45.4004 9.10059 46.0996 9.10059zM379.6 281.5c24.4004 0 44.1006 19.7002 44.1006 44s-19.9004 44.2002 -44.2002 44.2002c-2.40039 0 -3.90039 0.200195 -6.2998 0c-2.40039 -0.200195 -31.6006 1.09961 -58 -43.7998
c4.7002 -5.7002 9.59961 -11.3008 14.8994 -16.6006c15.1006 -15.2002 25.9004 -21.2998 27.3008 -22l0.799805 -0.299805l0.299805 -0.200195c6.5 -3.5 13.5996 -5.2998 21.0996 -5.2998zM241.1 291.5c8.80078 -14.5996 24.3008 -32.4004 34 -42.9004
c-43 -71.5 -69.8994 -103.1 -70.1992 -103.699c-17.9004 -23 -49.8008 -51.6006 -84.5 -51.6006c-51.9004 0 -94.1006 42.2002 -94.1006 94.1006c0 51.8994 42.2002 94.0996 94.1006 94.0996c35 0 58.8994 -12.7998 84.1992 -48.4004
c11 17.1006 23.8008 36.1006 36.5 58.4004zM160.3 168.5c6.2998 7.7998 15.5 20 15.5 20s-7 14.4004 -17.0996 24.7998c-15 15.4004 -23.2998 18 -38.2998 18c-24.3008 0 -44.1006 -19.7998 -44.1006 -44.0996s19.7998 -44.1006 44.1006 -44.1006
c16.7998 0 32.1992 15.8008 39.8994 25.4004z" />
    <glyph glyph-name="uniF102" unicode="&#xf102;" 
d="M44.7002 380c0 19.8818 16.1172 36 36 36c19.8818 0 36 -16.1182 36 -36s-16.1182 -36 -36 -36c-19.8828 0 -36 16.1182 -36 36zM80.7998 316.3c13.7998 0 25 -11.2002 25 -25v-298.3c0 -13.7998 -11.2002 -25 -25 -25s-25 11.2002 -25 25v298.3
c0 13.7998 11.2002 25 25 25zM341.2 316.3c75.7002 0 137.3 -61.5996 137.399 -137.3v-186c0 -13.7998 -11.1992 -25 -25 -25c-13.7998 0 -25 11.2002 -25 25v186c0 48.2002 -39.1992 87.4004 -87.3994 87.4004s-87.4004 -39.2002 -87.4004 -87.4004v-186
c0 -13.7998 -11.2002 -25 -25 -25s-25 11.2002 -25 25v186v112.3c0 13.7998 11.2002 25 25 25s25 -11.2002 25 -25v-6.39941c23.7998 19.5996 54.2002 31.3994 87.4004 31.3994z" />
    <glyph glyph-name="uniF129" unicode="&#xf129;" 
d="M395.3 175.7c13.7998 0 25 -11.2002 25 -25v-181.3c0 -13.8008 -11.2002 -25 -25 -25h-362.5c-13.7998 0 -25 11.1992 -25 25v362.5c0 13.7998 11.2002 25 25 25h181.2c13.7998 0 25 -11.2002 25 -25c0 -13.8008 -11.2002 -25 -25 -25h-156.2v-312.4h312.5v156.2
c0 13.7998 11.2002 25 25 25zM505.6 419c0.100586 -0.599609 0.100586 -1.09961 0.100586 -1.7002v-171.7c0 -13.7998 -11.2002 -25 -25 -25s-25 11.2002 -25 25v111.301l-217.2 -217.2c-4.90039 -4.90039 -11.2998 -7.2998 -17.7002 -7.2998
c-6.39941 0 -12.7998 2.39941 -17.7002 7.2998c-9.7998 9.7998 -9.7998 25.5996 0 35.3994l217.2 217.2h-110.399c-13.8008 0 -25 11.2002 -25 25s11.1992 25 25 25h170.899h0.299805h0.5c0.400391 0 0.900391 -0.0996094 1.30078 -0.0996094h0.299805
c0.599609 0 1.2002 -0.100586 1.7002 -0.200195h0.199219c0.600586 -0.0996094 1.2002 -0.200195 1.7002 -0.299805v0c0.600586 -0.100586 1.2002 -0.299805 1.7998 -0.5v0c1.2002 -0.400391 2.30078 -0.799805 3.40039 -1.40039
c0 -0.0996094 0.0996094 -0.0996094 0.0996094 -0.0996094c1.10059 -0.5 2.10059 -1.10059 3 -1.7998c0.100586 -0.100586 0.200195 -0.100586 0.300781 -0.200195c0.399414 -0.299805 0.899414 -0.700195 1.2998 -1l0.0996094 -0.100586
c0.400391 -0.299805 0.700195 -0.699219 1.10059 -1l0.299805 -0.299805c0.399414 -0.299805 0.700195 -0.700195 1.09961 -1.09961l0.100586 -0.100586c0.399414 -0.399414 0.699219 -0.799805 1 -1.19922c0.0996094 -0.100586 0.0996094 -0.200195 0.199219 -0.300781
c0.700195 -0.899414 1.30078 -1.7998 1.90039 -2.7998l0.0996094 -0.0996094c0.600586 -1 1.10059 -2.10059 1.5 -3.2002v-0.0996094c0.400391 -1.10059 0.700195 -2.2002 1 -3.40039v-0.200195c0.200195 -1.09961 0.400391 -2.2002 0.5 -3.39941v-0.400391z" />
    <glyph glyph-name="uniF120" unicode="&#xf120;" 
d="M256 448c100 0 181 -81 181 -181h-362c0 100 81 181 181 181zM86.9004 -22.2002c12 -6.89941 30.0996 -12.8994 49.0996 -12.8994c23.7998 0 37 11.0996 37 27.6992c0 15.4004 -10.2002 24.4004 -36.0996 33.7002c-33.4004 12 -54.8008 29.7998 -54.8008 59
c0 33.1006 27.7002 58.4004 71.7002 58.4004c22 0 38.2002 -4.7998 48.7998 -10.2002l-9 -29.7998c-7.19922 3.89941 -21.3994 9.59961 -40.2998 9.59961c-23.5 0 -33.7002 -12.5996 -33.7002 -24.3994c0 -15.7002 11.7002 -22.9004 38.8008 -33.4004
c35.1992 -13.2002 52.3994 -31 52.3994 -60.2002c0 -32.5 -24.7002 -60.7998 -77.0996 -60.7998c-21.4004 0 -43.7002 6 -54.7998 12.5996zM219 -48.9004c0 9.2002 6.40039 15.9004 15.2998 15.9004c9 0 15.2998 -6.40039 15.2998 -15.9004
c0 -9 -6 -15.8994 -15.2998 -15.8994c-9 0 -15.2998 6.7998 -15.2998 15.8994zM283.5 -22.2002c12 -6.89941 30.0996 -12.8994 49.0996 -12.8994c23.8008 0 37 11.0996 37 27.6992c0 15.4004 -10.1992 24.4004 -36.0996 33.7002c-33.4004 12 -54.7998 29.7998 -54.7998 59
c0 33.1006 27.7002 58.4004 71.7002 58.4004c22 0 38.1992 -4.7998 48.7998 -10.2002l-9 -29.7998c-7.2002 3.89941 -21.4004 9.59961 -40.2998 9.59961c-23.5 0 -33.7002 -12.5996 -33.7002 -24.3994c0 -15.7002 11.7002 -22.9004 38.7998 -33.4004
c35.2002 -13.2002 52.4004 -31 52.4004 -60.2002c0 -32.5 -24.7002 -60.7998 -77.1006 -60.7998c-21.3994 0 -43.7002 6 -54.7998 12.5996zM415.6 -48.9004c0 9.2002 6.40039 15.9004 15.3008 15.9004c9 0 15.2998 -6.40039 15.2998 -15.9004
c0 -9 -6 -15.8994 -15.2998 -15.8994c-9 0 -15.3008 6.7998 -15.3008 15.8994z" />
    <glyph glyph-name="uniF10F" unicode="&#xf10f;" 
d="M479.8 117.5c13.7998 0 25 -11.2002 25 -25s-11.2002 -25 -25 -25h-56v-56c0 -13.7998 -11.2002 -25 -25 -25s-25 11.2002 -25 25v56h-56c-13.7998 0 -25 11.2002 -25 25s11.2002 25 25 25h56v56c0 13.7998 11.2002 25 25 25s25 -11.2002 25 -25v-56h56zM290.8 33.7998
c13.7998 0 25 -11.2002 24.9004 -24.8994c0 -13.8008 -11.2002 -25 -25 -25h-251.5c-7.60059 0 -14.7998 3.39941 -19.5 9.2998c-4.7002 5.89941 -6.5 13.5996 -4.90039 21c0.299805 1.2998 7.10059 31.5 26.7998 61.5996c25.5 38.9004 60.9004 60.9004 102.801 64.1006
c1.39941 2 2.69922 4 3.69922 5.89941c-1.09961 3.40039 -2.69922 8.10059 -5 14.7998c-19.1992 22.9004 -31.8994 59.1006 -32 80.5c-0.0996094 27.5 2.90039 38 8.90039 48.8008c0.200195 0.5 0.599609 1.19922 0.700195 1.39941v0s0.0996094 0.400391 0.299805 1.60059
c3.5 26.1992 14.5 50.3994 30.9004 68c19 20.2998 43.6992 31.0996 71.3994 31.0996h9.7002c28.0996 0 52.7998 -10.0996 71.5 -29.0996c17.7002 -18 28.4004 -42.7002 30.7998 -71.2002c0.100586 -1.2998 0.200195 -1.7998 0.200195 -1.7998
c0 -0.200195 0.5 -1.10059 0.799805 -1.7002c4.7998 -9.2998 8.7002 -19.2002 8.7002 -47.1006c0 -22.7998 -14.4004 -62.3994 -35.9004 -85c-9.5 -10 -25.2998 -10.3994 -35.2998 -0.899414s-10.3994 25.2998 -0.899414 35.2998
c12.7998 13.4004 22.0996 41.2002 22.0996 50.5c0 18 -1.7998 21.4004 -3.2002 24.2002c-2.7002 5.39941 -5.5 11.5 -6.39941 22.0996c-2.2002 26.2998 -17.2002 54.5 -52.5 54.5h-9.7002c-13.7002 0 -25.4004 -5.09961 -34.7998 -15.2002
c-9.40039 -10.0996 -15.8008 -24.5 -17.9004 -40.5996c-1.2998 -10 -4.09961 -15.5996 -6.7998 -20.5c-1.10059 -1.90039 -2.7998 -5 -2.7002 -24.5c0 -9.40039 9.40039 -37.2002 22.0996 -50.5996c2.40039 -2.60059 4.30078 -5.7002 5.5 -9.10059
c4 -11.7002 6.90039 -20.0996 8.5 -25.0996c0.700195 -1.90039 1.10059 -3.2998 1.40039 -4.2998c1.7998 -6.2002 1.40039 -12 -0.599609 -16.9004c-2.10059 -5.90039 -10.2002 -25.5996 -26.8008 -39.2002c-4.5 -3.59961 -10 -5.59961 -15.7998 -5.59961
c-29.5 0 -53.7002 -14.1006 -71.8994 -41.9004c-3.2002 -4.89941 -6 -9.7998 -8.30078 -14.5h215.7zM151.2 152.7c-0.100586 -0.200195 -0.100586 -0.299805 -0.200195 -0.5c0 -0.100586 -0.0996094 -0.200195 -0.0996094 -0.200195
c0.0996094 0.200195 0.199219 0.400391 0.299805 0.700195z" />
    <glyph glyph-name="uniF128" unicode="&#xf128;" 
d="M483.9 285.4c13.7998 0 25 -11.2002 25 -25c0 -13.8008 -11.2002 -25 -25 -25h-115.301v-271.4c0 -13.7998 -11.1992 -25 -25 -25c-13.7998 0 -25 11.2002 -25 25v271.4h-125.399v-271.4c0 -13.7998 -11.2002 -25 -25 -25s-25 11.2002 -25 25v271.4h-115.101
c-13.7998 0 -25 11.1992 -25 25c0 13.7998 11.2002 25 25 25h455.801zM458.6 420c0 13.8066 11.1934 25 25 25c13.8076 0 25 -11.1934 25 -25s-11.1924 -25 -25 -25c-13.8066 0 -25 11.1934 -25 25z" />
    <glyph glyph-name="uniF123" unicode="&#xf123;" 
d="M381.8 175.4c3.90039 -9.10059 5.90039 -18.8008 5.7998 -28.5v-98v-61.1006c0 -8 -6.59961 -14.3994 -14.5996 -14.0996c-7.7002 0.200195 -13.5996 6.7998 -13.5996 14.3994v37.3008c0 13 -10.5 23.5 -23.5 23.5v0c-13 0 -23.5 -10.5 -23.5 -23.5v-75.2002
c0 -8 -6.60059 -14.4004 -14.6006 -14.1006c-7.7002 0.200195 -13.5996 6.80078 -13.5996 14.4004v107.8c0 15.6006 -12.6006 28.2002 -28.2002 28.2002v0c-15.5996 0 -28.2002 -12.5996 -28.2002 -28.2002v-108.2c0 -8 -6.59961 -14.3994 -14.5996 -14.0996
c-7.7002 0.200195 -13.6006 6.7998 -13.6006 14.4004v74.8994c0 13 -10.5 23.5 -23.5 23.5v0c-13 0 -23.5 -10.5 -23.5 -23.5v-37.5996c0 -8 -6.59961 -14.4004 -14.5996 -14.1006c-7.7002 0.200195 -13.5996 6.80078 -13.5996 14.4004v60.7998v98
c0 9.7998 2 19.6006 5.7998 28.6006l112.2 263.6c5.09961 12 22.0996 12 27.1992 0zM173.6 161.7h164.801c5.09961 0 8.69922 5 7.09961 9.7998c-1.2998 3.7998 -2.7002 7.5 -4.2002 11.2002l-53.5 128.399v0c-1.7002 3.80078 -8.59961 13.1006 -31.7998 13.1006
c-23.9004 0 -30.0996 -9.2998 -31.7998 -13.1006v0l-53.5 -128.399c-1.5 -3.7002 -2.90039 -7.40039 -4.2002 -11.2002c-1.59961 -4.7998 2 -9.7998 7.09961 -9.7998z" />
    <glyph glyph-name="uniF107" unicode="&#xf107;" 
d="M256 51.7998c-6.59961 0 -13 2.60059 -17.7002 7.2998l-230.399 230.4c-9.80078 9.7998 -9.80078 25.5996 0 35.4004c9.7998 9.7998 25.5996 9.7998 35.3994 0l212.7 -212.7l212.7 212.7c9.7998 9.7998 25.5996 9.7998 35.3994 0
c9.80078 -9.80078 9.80078 -25.6006 0 -35.4004l-230.399 -230.4c-4.7002 -4.69922 -11.1006 -7.2998 -17.7002 -7.2998z" />
    <glyph glyph-name="uniF10D" unicode="&#xf10d;" 
d="M366.7 192c0 -6.59961 -2.60059 -13 -7.2998 -17.7002l-79.7002 -79.7002c-9.7998 -9.7998 -25.6006 -9.7998 -35.4004 0c-9.7998 9.80078 -9.7998 25.6006 0 35.4004l62 62l-62 62c-9.7998 9.7998 -9.7998 25.5996 0 35.4004c9.7998 9.7998 25.6006 9.7998 35.4004 0
l79.7002 -79.7002c4.69922 -4.7002 7.2998 -11.1006 7.2998 -17.7002zM251.3 192c0 -13.7998 -11.2002 -25 -25 -25h-56c-13.7998 0 -25 11.2002 -25 25s11.2002 25 25 25h56c13.7998 0 25 -11.2002 25 -25zM50 192c0 -55 21.4004 -106.8 60.2998 -145.7
c38.9004 -38.8994 90.7002 -60.2998 145.7 -60.2998s106.8 21.4004 145.7 60.2998c38.8994 38.9004 60.2998 90.7002 60.2998 145.7s-21.4004 106.8 -60.2998 145.7c-38.9004 38.8994 -90.7002 60.2998 -145.7 60.2998s-106.8 -21.4004 -145.7 -60.2998
c-38.8994 -38.9004 -60.2998 -90.7002 -60.2998 -145.7zM0 192v0c0 141.4 114.6 256 256 256s256 -114.6 256 -256s-114.6 -256 -256 -256s-256 114.6 -256 256z" />
    <glyph glyph-name="uniF11C" unicode="&#xf11c;" 
d="M364 358h37v-336.4h-32.2002l-3 4.10059l-211.8 277.7v-281.801h-37v336.4h35.9004l211.1 -276.4v276.4z" />
    <glyph glyph-name="uniF109" unicode="&#xf109;" 
d="M140.8 -63.4004c-6.39941 0 -12.7998 2.40039 -17.7002 7.30078c-9.7998 9.7998 -9.7998 25.5996 0 35.3994l212.7 212.7l-212.7 212.7c-9.7998 9.7998 -9.7998 25.5996 0 35.3994c9.80078 9.80078 25.6006 9.80078 35.4004 0l230.4 -230.399
c4.69922 -4.7002 7.2998 -11 7.2998 -17.7002c0 -6.59961 -2.60059 -13 -7.2998 -17.7002l-230.4 -230.399c-4.90039 -4.90039 -11.2998 -7.30078 -17.7002 -7.30078z" />
    <glyph glyph-name="uniF11B" unicode="&#xf11b;" 
d="M256 403c96.7998 0 185.8 -17.4004 256 -46.4004v-331.199c-70.2002 -29 -159.2 -46.4004 -256 -46.4004s-185.8 17.4004 -256 46.4004v331.199c70.2002 29 159.2 46.4004 256 46.4004zM359 79v37h-145v188h-71v-198v-27h45h171z" />
    <glyph glyph-name="uniF11E" unicode="&#xf11e;" 
d="M2 385.3h508v-386.7h-508v386.7zM367.1 49.4004h52.9004l-30 285.199h-54.7998l-74 -200.1l-70.7998 200.1h-55.6006l-32.2998 -285.199h50.9004l21.1992 180.6l62.6006 -180.6h43.2998l67.5 180.6z" />
    <glyph glyph-name="uniF124" unicode="&#xf124;" 
d="M173.9 353.5l-30 58c-6.40039 12.2998 -1.60059 27.4004 10.6992 33.7002c12.3008 6.2998 27.4004 1.5 33.8008 -10.7002l23 -44.5h89.3994l23 44.5c6.40039 12.2002 21.4004 17 33.7002 10.7002c12.2002 -6.40039 17 -21.4004 10.7002 -33.7002l-30 -58
c-4.2998 -8.2998 -12.7998 -13.5 -22.2002 -13.5h-119.9c-9.2998 0 -17.8994 5.2002 -22.1992 13.5zM398.1 193.3c3.80078 -7.2998 3.7002 -16.0996 -0.0996094 -23.3994l-119.9 -220.801c-4.5 -8.19922 -13 -13.0996 -22 -13.0996
c-2.09961 0 -4.19922 0.299805 -6.19922 0.799805c-11 2.7998 -18.8008 12.7998 -18.8008 24.2002v195.8c0 13.7998 11.2002 25 25 25c5 0 9.10059 4.10059 9.10059 9.10059s-4.10059 9.09961 -9.10059 9.09961c-3.2998 0 -5.5 -1.7002 -6.5 -2.7002
c-9.7998 -9.7998 -25.5996 -9.7998 -35.3994 0s-9.7998 25.6006 0 35.4004c11.2002 11.0996 26 17.2998 41.7998 17.2998c32.5996 0 59.0996 -26.5 59.0996 -59.0996c0 -23.7002 -14 -44.2002 -34.0996 -53.6006v-77.7998l66.5996 122.6l-46.8994 90.7002h-89.4004
l-46.8994 -90.7002l38.0996 -70.0996c6.59961 -12.0996 2.09961 -27.2998 -10 -33.9004c-12.0996 -6.59961 -27.2998 -2.09961 -33.9004 10l-44.3994 81.8008c-3.90039 7.2998 -4 16 -0.200195 23.3994l59.9004 116c4.2998 8.2998 12.7998 13.5 22.1992 13.5h119.9
c9.2998 0 17.9004 -5.2002 22.2002 -13.5z" />
    <glyph glyph-name="uniF113" unicode="&#xf113;" 
d="M103.7 122h47.2002v-159.5h-47.2002v65.2002h-47.2002v-65.2002h-47.0996v159.5h47.0996v-47.2002h47.2002v47.2002zM262.2 367.3h99.3994v-220.399h-352.199v220.399h99.2998l21.5 53.7002h110.5zM185.5 180.4c42.4004 0 76.7002 34.2998 76.7998 76.7998
c0 42.3994 -34.3994 76.7998 -76.7998 76.7998s-76.7998 -34.4004 -76.7998 -76.7998c0 -42.4004 34.3994 -76.7998 76.7998 -76.7998zM387.1 328.1h45.6006v-251.699h-231.101v45.5996h185.5v206.1zM457.1 257.6h45.5v-251.6h-231v45.5996h185.5v206z" />
    <glyph glyph-name="uniF110" unicode="&#xf110;" 
d="M408.8 374.4c55.7998 0 101.2 -45.4004 101.3 -101.2v-172c0 -55.7998 -45.3994 -101.2 -101.199 -101.2h-305.7c-55.7998 0 -101.2 45.4004 -101.2 101.2v172c0 55.7998 45.4004 101.2 101.2 101.2h305.6zM408.8 324.4h-305.6c-7.7002 0 -15 -1.7002 -21.6006 -4.80078
c3.7002 -8.5 8.90039 -16.1992 15.6006 -22.8994l105.899 -105.9c14.1006 -14.0996 32.9004 -21.8994 52.8008 -21.8994c19.8994 0 38.6992 7.7998 52.7998 21.8994l105.8 105.9c6.7998 6.7002 12 14.3994 15.7002 23c-6.5 3 -13.7998 4.7002 -21.4004 4.7002z
M103.2 49.9004h305.5h1.09961l-36 36c-9.7998 9.7998 -9.7998 25.5996 0 35.3994s25.6006 9.7998 35.4004 0l40.5996 -40.5996c1.40039 -1.40039 2.60059 -2.7002 3.90039 -4.10059c4 7.30078 6.2998 15.6006 6.2998 24.5v171.601
c-3.09961 -3.90039 -6.5 -7.7998 -10.0996 -11.4004l-105.801 -105.8c-23.5996 -23.5 -54.8994 -36.5 -88.1992 -36.5c-33.3008 0 -64.7002 13 -88.2002 36.5l-105.8 105.8c-3.5 3.60059 -6.80078 7.2998 -9.90039 11.2002v-171.3
c0 -8.90039 2.2998 -17.2002 6.2002 -24.4004c1.2002 1.2998 2.39941 2.60059 3.7002 3.90039l40.5996 40.5996c9.7998 9.7998 25.5996 9.7998 35.4004 0c9.7998 -9.7998 9.7998 -25.5996 0 -35.3994l-36 -36h1.2998z" />
    <glyph glyph-name="uniF10C" unicode="&#xf10c;" 
d="M145.3 192c0 6.59961 2.60059 13 7.2998 17.7002l79.7002 79.7002c9.7998 9.7998 25.6006 9.7998 35.4004 0c9.7998 -9.80078 9.7998 -25.6006 0 -35.4004l-62 -62l62 -62c9.7998 -9.7998 9.7998 -25.5996 0 -35.4004c-9.7998 -9.7998 -25.6006 -9.7998 -35.4004 0
l-79.7002 79.7002c-4.69922 4.7002 -7.2998 11.1006 -7.2998 17.7002zM260.7 192c0 13.7998 11.2002 25 25 25h56c13.7998 0 25 -11.2002 25 -25s-11.2002 -25 -25 -25h-56c-13.7998 0 -25 11.2002 -25 25zM462 192c0 55 -21.4004 106.8 -60.2998 145.7
c-38.9004 38.8994 -90.7002 60.2998 -145.7 60.2998s-106.8 -21.4004 -145.7 -60.2998c-38.8994 -38.9004 -60.2998 -90.7002 -60.2998 -145.7s21.4004 -106.8 60.2998 -145.7c38.9004 -38.8994 90.7002 -60.2998 145.7 -60.2998s106.8 21.4004 145.7 60.2998
c38.8994 38.9004 60.2998 90.7002 60.2998 145.7zM512 192v0c0 -141.4 -114.6 -256 -256 -256s-256 114.6 -256 256s114.6 256 256 256s256 -114.6 256 -256z" />
    <glyph glyph-name="uniF11D" unicode="&#xf11d;" 
d="M2 24.5996v334.801c0 12.0996 8.90039 22.2998 20.7998 23.8994l67.6006 9.40039c8 1.09961 15.0996 -5.10059 15.0996 -13.2002v-15.2998c0 -3.60059 -1.40039 -7 -4 -9.5l-39.7002 -38.7998v-246.801l39.7998 -39.7998c2.5 -2.5 3.90039 -5.89941 3.90039 -9.39941
v-15.4004c0 -8.09961 -7.09961 -14.2998 -15.0996 -13.2002l-67.6006 9.40039c-11.8994 1.59961 -20.7998 11.7998 -20.7998 23.8994zM408.4 379.5c0 8.09961 7.19922 14.2998 15.1992 13.2002l65.6006 -9.2998c11.8994 -1.7002 20.7998 -11.9004 20.7998 -23.9004v-335
c0 -12 -8.90039 -22.2002 -20.7998 -23.9004l-65.6006 -9.2998c-8 -1.09961 -15.1992 5.10059 -15.1992 13.2002v15.5996c0 3.40039 1.2998 6.7002 3.69922 9.2002l38 39.7998v246.801l-37.8994 38.7998c-2.40039 2.5 -3.7998 5.7998 -3.7998 9.2998v15.5zM302.7 335.5
c0 9 10.5 13.7998 17.2998 7.7998l83.9004 -74.2002c2.19922 -2 3.5 -4.7998 3.5 -7.7998v-138.8c0 -3 -1.30078 -5.7998 -3.5 -7.7998l-83.9004 -74.2002c-6.7002 -5.90039 -17.2998 -1.2002 -17.2998 7.7998v53.2998c0 3 1.2998 5.80078 3.5 7.80078l38.7002 34.1992
c2.19922 2 3.5 4.80078 3.5 7.80078v81c0 3 -1.30078 5.7998 -3.5 7.7998l-38.7002 34.2002c-2.2002 2 -3.5 4.7998 -3.5 7.7998v53.2998zM163.6 151.5c0 -3 1.30078 -5.7998 3.5 -7.7002l38.7002 -34.2002c2.2002 -2 3.5 -4.7998 3.5 -7.7998v-53.2998
c0 -9 -10.5996 -13.7002 -17.2998 -7.7998l-83.9004 74.2002c-2.19922 2 -3.5 4.7998 -3.5 7.7998v138.7c0 3 1.30078 5.7998 3.5 7.7998l83.9004 74.2002c6.7002 5.89941 17.2998 1.19922 17.2998 -7.80078v-53.2998c0 -3 -1.2998 -5.7998 -3.5 -7.7998l-38.7002 -34.2002
c-2.19922 -2 -3.5 -4.7998 -3.5 -7.7998v-81zM237.4 145.2l-28.2002 28.2002c-10.2998 10.2998 -10.2998 27 0 37.2998l28.2002 28.2002c10.2998 10.2998 27 10.2998 37.2998 0l28.2002 -28.2002c10.2998 -10.2998 10.2998 -27 0 -37.2998l-28.2002 -28.2002
c-10.4004 -10.2998 -27 -10.2998 -37.2998 0z" />
    <glyph glyph-name="uniF121" unicode="&#xf121;" 
d="M34.2002 301h480.8v-232h-480.8l-18.5 73.4004h-15.5v23.3994h33.0996l19.5 -72.7998h439.5v184h-439.5l-19.5 -72.7998h-33.0996v23.3994h15.5zM422.6 113.8v142.5h45.1006v-142.5h-45.1006zM348.6 113.8v142.5h45.1006v-142.5h-45.1006zM273.6 113.8v142.5h45.1006
v-142.5h-45.1006zM198 113.8v142.5h45.0996v-142.5h-45.0996zM122.5 113.8v142.5h45.0996v-142.5h-45.0996zM68.9004 256.3h23.0996v-142.6h-24.7002l-15.0996 59v23.5996z" />
    <glyph glyph-name="uniF127" unicode="&#xf127;" 
d="M260.1 71.4004c-58.1992 0 -105.6 47.3994 -105.6 105.6s47.4004 105.6 105.6 105.6c58.2002 0 105.601 -47.3994 105.601 -105.6s-47.4004 -105.6 -105.601 -105.6zM260.1 232.6c-30.6992 0 -55.5996 -24.8994 -55.5996 -55.5996s24.9004 -55.5996 55.5996 -55.5996
c30.7002 0 55.6006 24.8994 55.6006 55.5996s-25 55.5996 -55.6006 55.5996zM383.7 232.3c0 13.9727 11.3271 25.2998 25.2998 25.2998s25.2998 -11.3271 25.2998 -25.2998s-11.3271 -25.2998 -25.2998 -25.2998s-25.2998 11.3271 -25.2998 25.2998zM444.3 1.40039h-376.6
c-35 0 -63.6006 28.5 -63.6006 63.5996v195.3c0 35 28.5 63.6006 63.6006 63.6006h77l5.7002 17.1992c7.89941 23.8008 30.0996 39.8008 55.1992 39.8008h99.4004c25.0996 0 47.2998 -16 55.2002 -39.8008l5.7002 -17.1992h78.5c35 0 63.5996 -28.5 63.5996 -63.6006v-195.3
c-0.0996094 -35.0996 -28.5996 -63.5996 -63.7002 -63.5996zM67.7002 273.8c-7.5 0 -13.6006 -6.09961 -13.6006 -13.5996v-195.3c0 -7.5 6.10059 -13.6006 13.6006 -13.6006h376.6c7.5 0 13.6006 6.10059 13.6006 13.6006v195.399c0 7.5 -6.10059 13.6006 -13.6006 13.6006
h-96.5996c-10.7998 0 -20.2998 6.89941 -23.7002 17.0996l-11.4004 34.2998c-1.09961 3.2998 -4.19922 5.60059 -7.69922 5.60059h-99.4004c-3.5 0 -6.59961 -2.2002 -7.7002 -5.60059l-11.3994 -34.2998c-3.40039 -10.2002 -13 -17.0996 -23.7002 -17.0996h-95v-0.100586z
" />
    <glyph glyph-name="uniF125" unicode="&#xf125;" 
d="M46.9004 -62.2002c-7.2002 0 -14.7002 0.200195 -22.5 0.799805c-10.2002 0.700195 -18.9004 7.40039 -22.1006 17.1006s-0.200195 20.2998 7.60059 26.8994c0.399414 0.400391 50 43.5 46.8994 94c-1.39941 23.2002 6.7998 45.6006 23.2002 62.9004
c17.2998 18.4004 41.7998 29 67.2002 29c13.7998 0 25 -11.2002 25 -25s-11.2002 -25 -25 -25c-11.6006 0 -22.7998 -4.7998 -30.7998 -13.2002c-6.80078 -7.2002 -10.2002 -16.2998 -9.7002 -25.5996c2.09961 -35 -10.9004 -65.9004 -25.7002 -89.4004
c28.2998 4.2998 51.2002 14.2002 67.5 29.5c23.9004 22.2998 24.5 46.5 24.5 49.2002c0 13.7998 11.2002 25 25 25s25 -11.2002 25 -25c0 -23.2002 -10.5996 -57.7998 -40.4004 -85.7002c-22.6992 -21.3994 -64.1992 -45.5 -135.699 -45.5zM257.7 114.5h-0.600586
c-17.1992 0.0996094 -33.3994 7 -45.6992 19.2002c-12.3008 12.2998 -19.1006 28.5 -19.2002 45.7002c-0.100586 17.3994 6.5 33.5996 18.7002 45.8994c9.7998 9.7998 25.5996 9.7998 35.3994 0s9.7998 -25.5996 0 -35.3994
c-2.7002 -2.7002 -4.09961 -6.30078 -4.09961 -10.1006c0 -4 1.7002 -7.7998 4.59961 -10.7002c2.90039 -2.89941 6.7002 -4.59961 10.7998 -4.59961h0.100586c3.7998 0 7.2998 1.5 10 4.09961l192 192c2.7002 2.7002 2.59961 7.40039 -0.400391 10.3008
c-9.7998 9.7998 -9.7998 25.5996 0 35.3994s25.6006 9.7998 35.4004 0c22.5 -22.5 22.5996 -58.7998 0.399414 -81.0996l-192 -192c-12.1992 -12.1006 -28.2998 -18.7002 -45.3994 -18.7002z" />
    <glyph glyph-name="uniF100" unicode="&#xf100;" 
d="M340.9 259.4c13.7998 0 25 -11.2002 25 -25c0 -13.8008 -11.2002 -25 -25 -25h-73.1006v-239.101c0 -13.7998 -11.2002 -25 -25 -25s-25 11.2002 -25 25v239.101h-51.2002c-13.7998 0 -25 11.1992 -25 25c0 13.7998 11.2002 25 25 25h51.2002v91.7998
c0 39.2998 32.1006 72.5 70.1006 72.5h57.3994c13.7998 0 25 -11.2002 25 -25s-11.2002 -25 -25 -25h-57.3994c-8.40039 0 -20.1006 -8.60059 -20.1006 -22.5v-91.7998h73.1006z" />
    <glyph glyph-name="uniF11A" unicode="&#xf11a;" 
d="M0 416.2h512v-241.5h-512v241.5zM135.4 347.4v35.5996h-101.801v-175h47.7002v69.7002h49.5v33.8994h-49.7998v35.8008h54.4004zM309.5 208v175h-46.9004v-66.2998h-48.6992v66.2998h-46.9004v-175.1h46.9004v73.1992h48.6992v-73.0996h46.9004zM480.8 259.2
c3.5 10.7002 5.2002 22.5996 5.2002 35.7998c0 13.5 -1.7002 25.5996 -5.2002 36.4004c-3.5 10.7998 -8.7002 20 -15.7998 27.6992c-7.09961 7.7002 -16.0996 13.6006 -27 17.7002c-10.9004 4.10059 -23.9004 6.2002 -38.7998 6.2002h-58.7002v-175h58.7002
c15 0 27.8994 2.09961 38.7998 6.2002c10.9004 4.2002 19.9004 10 27 17.5996c7.09961 7.5 12.4004 16.7002 15.7998 27.4004zM399.8 348.4c11.4004 0 20.7002 -4.5 27.9004 -13.5s10.7998 -22.3008 10.7998 -39.9004c0 -17 -3.59961 -30 -10.7998 -38.9004
c-7.2002 -9 -16.5 -13.5 -27.9004 -13.5h-11.5v105.801h11.5zM160.4 88.2002c12.3994 0 23.1992 -1.60059 32.3994 -4.7002c9.10059 -3.09961 16.7002 -7.2998 22.7998 -12.7002c6.10059 -5.39941 10.7002 -11.7002 13.7002 -19s4.60059 -15.2998 4.60059 -23.7002
c0 -10.5 -2.30078 -19.8994 -6.80078 -28.0996s-10.8994 -15.0996 -19.0996 -20.7002c-8.2002 -5.59961 -17.9004 -9.89941 -29 -12.7998s-23.2998 -4.40039 -36.5 -4.40039c-13.5 0 -26 1.40039 -37.2998 4.30078c-11.2998 2.89941 -21.2002 7 -29.4004 12.5996
s-14.5996 12.5 -19.2998 20.5996c-4.59961 8.10059 -7 17.4004 -7 27.7002c0 11.2002 2.2002 21.2998 6.7998 30.2998c4.5 9 10.2002 17.6006 17.1006 25.9004l53.5996 65.7998h72.7002l-54.4004 -62.7002l0.400391 -0.299805c1.2998 0.5 3.5 0.900391 6.59961 1.2998
c3 0.400391 5.7002 0.600586 8.10059 0.600586zM172.7 28.5996c0 9 -2.7002 16.3008 -8.10059 21.9004c-5.39941 5.59961 -12.8994 8.40039 -22.3994 8.40039c-9 0 -16.5 -2.90039 -22.4004 -8.60059c-6 -5.7002 -8.89941 -13 -8.89941 -21.7998
s2.89941 -16.0996 8.69922 -21.7998c5.80078 -5.7002 13.2002 -8.60059 22.2002 -8.60059c9.2998 0 16.7998 2.90039 22.4004 8.60059c5.7002 5.7998 8.5 13.0996 8.5 21.8994zM450.4 57.5996c0 -10.3994 -1.30078 -21.1992 -3.80078 -32.3994
s-7.09961 -21.6006 -13.8994 -31c-6.7998 -9.40039 -16.2002 -17.2002 -28.2002 -23.2002c-12.0996 -6 -27.5996 -9.09961 -46.7002 -9.09961c-19.0996 0 -34.5996 3 -46.7002 9.09961c-12.0996 6 -21.5 13.7998 -28.1992 23.2002
c-6.80078 9.39941 -11.3008 19.7002 -13.7002 31c-2.40039 11.2002 -3.60059 22 -3.60059 32.3994c0 10.4004 1.2002 21.2002 3.60059 32.4004c2.39941 11.2002 7 21.5996 13.7002 31c6.69922 9.40039 16.1992 17.0996 28.1992 23.2002
c12 6 27.6006 9.09961 46.7002 9.09961c19.1006 0 34.6006 -3 46.7002 -9.09961c12 -6 21.4004 -13.7998 28.2002 -23.2002s11.3994 -19.7002 13.8994 -31c2.5 -11.2002 3.80078 -22 3.80078 -32.4004zM386.8 57.5996c0 6 -0.299805 12.5 -1 19.4004
s-2.09961 13.2998 -4.2002 19.2002c-2.09961 5.89941 -5 10.7998 -8.69922 14.5996c-3.7002 3.90039 -8.7002 5.7998 -15.1006 5.7998c-6.39941 0 -11.3994 -1.89941 -15.0996 -5.7998c-3.7002 -3.89941 -6.60059 -8.7998 -8.7002 -14.5996
c-2.09961 -5.90039 -3.5 -12.2998 -4.2002 -19.2002s-1 -13.4004 -1 -19.4004c0 -6.19922 0.299805 -12.7998 1 -19.6992c0.700195 -6.90039 2 -13.3008 4.2002 -19c2.09961 -5.80078 5 -10.6006 8.7002 -14.5c3.7002 -3.90039 8.7002 -5.80078 15.0996 -5.80078
c6.40039 0 11.4004 1.90039 15.1006 5.80078c3.69922 3.89941 6.59961 8.69922 8.69922 14.5c2.10059 5.7998 3.5 12.0996 4.2002 19c0.700195 6.89941 1 13.5 1 19.6992z" />
    <glyph glyph-name="uniF106" unicode="&#xf106;" 
d="M311.4 192l200.199 -200.2c-16.1992 -20.5996 -34.7998 -39.2002 -55.3994 -55.3994l-200.2 200.199l-200.3 -200.199c-20.6006 16.1992 -39.2002 34.7998 -55.4004 55.3994l200.3 200.2l-200.3 200.2c16.2002 20.7002 34.7998 39.2998 55.5 55.5l200.2 -200.3
l200.3 200.199c20.6006 -16.1992 39.2002 -34.7998 55.4004 -55.3994z" />
    <glyph glyph-name="uniF116" unicode="&#xf116;" 
d="M337.9 380.5h136.699c6 0 10.8008 -4.90039 10.8008 -10.7998v-61.7998v-169.4c0 -10.5 -4.80078 -20.4004 -12.9004 -27l-18.7998 -15.2998c-8.2002 -6.60059 -12.9004 -16.5 -12.9004 -27v-42.7998v-36.4004v-18.0996h-102.899v-11.9004h-311.2v26.7998h12.8994v382.7
h-12.8994v22.7998h98.2998v9.40039c0 12.2998 9.90039 22.2998 22.2002 22.2998h70.2002c12.2998 0 22.1992 -9.90039 22.1992 -22.2002v-9.39941h98.3008v-11.9004zM157.2 26.4004v0.0996094h45.8994l91.8008 306.1h-45.9004l-68.7998 -232.6l-68.9004 232.6h-45.8994z
M369.6 -10v36.4004h-36.3994v-36.4004h36.3994zM369.6 326v36.4004h-36.3994v-36.4004h36.3994zM423.3 -10h0.100586v36.4004h-36.4004v-36.4004h36.2998zM423.3 326h0.100586v36.4004h-36.4004v-36.4004h36.2998zM477.1 326v36.4004h-36.3994v-36.4004h36.3994z" />
    <glyph glyph-name="uniF115" unicode="&#xf115;" 
d="M0 448h114.5c80.7002 0 140.6 -34.7002 140.6 -96.2998c0 -61.6006 -59.8994 -96.6006 -140.199 -96.6006h-114.9v192.9zM114.5 306c38.7998 0 61.7998 21.4004 61.7998 45.7002c0 26 -20 45.3994 -61.5 45.3994h-37.2002v-91.0996h36.9004zM388.3 315.8h-28v-60.7998
h-77.5996v193h136.7c59.8994 0 92.1992 -30.0996 92.1992 -66.2002c0 -33.2998 -25.6992 -50.8994 -46.0996 -58.3994l46.5 -68.4004h-88.2998zM407.5 397.1h-47.2002v-30.3994h47.2002c13.0996 0 25.4004 4.59961 25.4004 15.2998
c0 10.5 -12.3008 15.0996 -25.4004 15.0996zM453.3 137.6c2.2998 -9.39941 3.90039 -19.3994 4.60059 -30c0.699219 -10.5 1.09961 -19.6992 1.09961 -27.5996c0 -5.2998 -0.200195 -11.2998 -0.5 -17.9004c-0.299805 -6.59961 -0.900391 -13.2998 -1.59961 -20.0996
c-0.700195 -6.7998 -1.90039 -13.4004 -3.5 -19.7998c-1.60059 -6.40039 -3.60059 -12.1006 -6.2002 -17.1006c-2.60059 -5 -5.7998 -9 -9.60059 -12.0996c-3.7998 -3.09961 -8.2998 -4.59961 -13.3994 -4.59961c-5.2998 0 -9.90039 1.5 -13.6006 4.59961
c-3.69922 3 -6.7998 7.09961 -9.39941 12.0996c-2.5 5 -4.60059 10.7002 -6.2002 17.1006c-1.59961 6.39941 -2.7998 13 -3.5 19.7998c-0.799805 6.7998 -1.2998 13.5 -1.59961 20.0996c-0.300781 6.60059 -0.5 12.6006 -0.5 17.9004c0 7.7998 0.399414 17.0996 1 27.5996
c0.599609 10.5 2.09961 20.5 4.59961 30c2.40039 9.5 5.90039 17.5 10.5 24.1006c4.59961 6.59961 10.7998 9.89941 18.7002 9.89941c7.89941 0 14.0996 -3.2998 18.7002 -9.89941c4.59961 -6.60059 8.09961 -14.6006 10.3994 -24.1006zM281.9 137.6
c2.2998 -9.39941 3.89941 -19.3994 4.59961 -30c0.700195 -10.5 1.09961 -19.6992 1.09961 -27.5996c0 -5.2998 -0.199219 -11.2998 -0.5 -17.9004c-0.299805 -6.59961 -0.899414 -13.2998 -1.59961 -20.0996s-1.90039 -13.4004 -3.5 -19.7998
c-1.59961 -6.40039 -3.59961 -12.1006 -6.2002 -17.1006c-2.59961 -5 -5.7998 -9 -9.59961 -12.0996s-8.2998 -4.59961 -13.4004 -4.59961c-5.2998 0 -9.89941 1.5 -13.5996 4.59961c-3.7002 3 -6.7998 7.09961 -9.40039 12.0996c-2.5 5 -4.59961 10.7002 -6.2002 17.1006
c-1.59961 6.39941 -2.7998 13 -3.5 19.7998c-0.799805 6.7998 -1.2998 13.5 -1.59961 20.0996c-0.299805 6.60059 -0.5 12.6006 -0.5 17.9004c0 7.7998 0.400391 17.0996 1 27.5996s2.09961 20.5 4.59961 30c2.40039 9.5 5.90039 17.5 10.5 24.1006
c4.60059 6.59961 10.8008 9.89941 18.7002 9.89941c7.90039 0 14.1006 -3.2998 18.7002 -9.89941c4.59961 -6.60059 8.09961 -14.6006 10.4004 -24.1006zM0 223h512v-287h-512v287zM132.5 115.9c1.90039 6.2998 2.7998 13.0996 2.7998 20.2998
c0 8.59961 -1.2998 16.5 -3.7002 24c-2.39941 7.39941 -6 13.8994 -10.6992 19.2998c-4.7002 5.40039 -10.6006 9.7002 -17.6006 12.9004c-7 3.19922 -15.0996 4.7998 -24.2998 4.7998c-16.4004 0 -30 -4.7002 -40.5996 -14.2002c-10.6006 -9.5 -17.4004 -23.5 -20.4004 -42
l27.2998 -3c1.7002 11.0996 5.40039 19.5 10.9004 25.4004c5.5 5.89941 12.5996 8.7998 21.0996 8.7998c9.7998 0 17 -3.7002 21.7002 -11.2002c4.7002 -7.40039 7 -16.2998 7 -26.5c0 -8.90039 -2.09961 -17.9004 -6.09961 -26.7998
c-4.10059 -8.90039 -9.80078 -18.4004 -17.3008 -28.4004l-63.2998 -85.8994v-26.5h113.101v25.1992h-81.5l49.7998 68.1006c4.89941 6.59961 9.39941 12.8994 13.5996 19c4.2002 6.09961 7.7998 12.0996 10.9004 18.2002c3 6 5.5 12.1992 7.2998 18.5zM315.9 53.0996
c0.799805 9.2002 1.09961 18.1006 1.5 26.8008c0 13 -0.900391 26.3994 -2.60059 40.3994s-4.89941 26.6006 -9.7002 37.9004c-4.7998 11.2998 -11.3994 20.7002 -19.6992 28c-8.30078 7.2998 -19.1006 11 -32.3008 11c-13.1992 0 -24 -3.7002 -32.2998 -11
c-8.39941 -7.40039 -14.8994 -16.7002 -19.7002 -28c-4.69922 -11.2998 -8 -24 -9.69922 -37.9004c-1.80078 -13.8994 -2.60059 -27.3994 -2.60059 -40.3994c0 -8.7002 0.400391 -17.6006 1.10059 -26.8008c0.699219 -9.09961 2 -18.0996 3.7998 -26.7998
s4.2002 -16.8994 7.2998 -24.5996c3.09961 -7.60059 7 -14.2998 11.7998 -20.1006c4.7998 -5.69922 10.5 -10.2998 17.1006 -13.6992c6.59961 -3.40039 14.2998 -5.10059 23 -5.10059c8.69922 0 16.3994 1.7002 23 5.10059c6.59961 3.39941 12.2998 7.89941 17.0996 13.6992
c4.7998 5.7002 8.7002 12.4004 11.7998 20.1006c3 7.7002 5.5 15.8994 7.2998 24.5996c1.80078 8.7002 3.10059 17.6006 3.80078 26.7998zM487.3 53.0996c0.799805 9.2002 1.10059 18.1006 1.2998 26.8008c0 13 -0.899414 26.3994 -2.59961 40.3994
s-4.90039 26.6006 -9.7002 37.9004c-4.7002 11.2998 -11.2998 20.7002 -19.5996 28s-19.1006 11 -32.2998 11c-13.2002 0 -24 -3.7002 -32.3008 -11c-8.2998 -7.40039 -14.7998 -16.7002 -19.5996 -28c-4.7002 -11.2998 -8 -24 -9.7002 -37.9004
c-1.7998 -13.8994 -2.59961 -27.3994 -2.59961 -40.3994c0 -8.7002 0.399414 -17.6006 1.09961 -26.8008c0.700195 -9.09961 2 -18.0996 3.7998 -26.7998c1.80078 -8.7002 4.2002 -16.8994 7.30078 -24.5996c3.09961 -7.60059 7 -14.2998 11.7998 -20.1006
c4.7998 -5.69922 10.5 -10.2998 17.0996 -13.6992c6.60059 -3.40039 14.2998 -5.10059 23 -5.10059s16.4004 1.7002 23 5.10059c6.60059 3.39941 12.2998 7.89941 17.1006 13.6992c4.7998 5.7002 8.69922 12.4004 11.7998 20.1006c3 7.7002 5.5 15.8994 7.2998 24.5996
s3.09961 17.6006 3.7998 26.7998z" />
    <glyph glyph-name="uniF114" unicode="&#xf114;" 
d="M251.4 375.2h213.899c25.7998 0 46.7002 -20.9004 46.7002 -46.7002v-272.9c0 -25.7998 -20.9004 -46.6992 -46.7002 -46.6992h-213.899c-9.2002 0 -18.2002 2.69922 -25.9004 7.7998l-204.7 136.399c-27.7002 18.5 -27.7002 59.2002 0 77.7002l204.7 136.5
c7.7002 5.10059 16.7002 7.90039 25.9004 7.90039z" />
    <glyph glyph-name="uniF112" unicode="&#xf112;" 
d="M460.5 436.7c22.2002 0 40.2998 -18.1006 40.2998 -40.2998v-408.9c-0.0996094 -22.0996 -18.2002 -40.2002 -40.3994 -40.2002h-408.801c-22.1992 0 -40.2998 18.1006 -40.2998 40.2998v408.801c0 22.1992 18.1006 40.2998 40.2998 40.2998h408.9zM261.5 54.5996h184.6
v43.6006h-184.6v-43.6006zM20.7998 -8.59961c0 -9.5 3.90039 -18.2002 10.2002 -24.4004l449.9 450c-6.2002 6.2002 -14.9004 10.0996 -24.4004 10.0996h-401.1c-19 0 -34.6006 -15.5 -34.6006 -34.5996v-401.1zM128.6 217.9v62.6992h-62.6992v38.8008h62.6992v62.6992
h38.8008v-62.6992h62.6992v-38.8008h-62.6992v-62.6992h-38.8008z" />
    <glyph glyph-name="uniF111" unicode="&#xf111;" 
d="M416 -43.9004c-11 0 -20.4004 6.40039 -23.5996 16.9004c-1.40039 2.7002 -10.1006 17.4004 -39 29c-3.2002 1.2998 -6.7002 1.2998 -10.1006 0.0996094c-26.7002 -9.2998 -54.7998 -13.8994 -83.7002 -13.8994c-60.6992 0 -117.8 20.7998 -161 58.5
c-44.0996 38.5 -68.3994 90.0996 -68.3994 145.1s24.2998 106.5 68.3994 145.101c43.2002 37.6992 100.4 58.5 161 58.5c60.7002 0 117.801 -20.8008 161 -58.5c44.1006 -38.5 68.4004 -90.1006 68.4004 -145.101c0 -43.7998 -15.4004 -85.3994 -44.5 -120.6
c-1.5 -1.7998 -2.2002 -4.2998 -1.90039 -6.90039c2.80078 -25 4.60059 -60.5996 -2.59961 -88.5c-2.7998 -10.8994 -12.2998 -19.5 -23.5996 -19.5996c-0.200195 -0.100586 -0.300781 -0.100586 -0.400391 -0.100586zM392.3 -26.5996v0v0zM348.2 53
c8.09961 0 16.2002 -1.5 23.7998 -4.59961c8.2002 -3.30078 15.7002 -7 22.7002 -11c-0.299805 6.7998 -0.900391 14 -1.7002 21.2998c-1.7998 16 3 32.2002 13.0996 44.3994c21.6006 26 33 56.7002 33 88.6006c0 84.7002 -80.5 153.5 -179.5 153.5
s-179.5 -68.7998 -179.5 -153.5s80.5 -153.5 179.5 -153.5c23.3008 0 45.9004 3.7998 67.3008 11.2002c6.89941 2.39941 14.0996 3.59961 21.2998 3.59961zM235 189c0 14.9121 12.0879 27 27 27s27 -12.0879 27 -27s-12.0879 -27 -27 -27s-27 12.0879 -27 27zM154 189
c0 14.9121 12.0879 27 27 27s27 -12.0879 27 -27s-12.0879 -27 -27 -27s-27 12.0879 -27 27zM316 189c0 14.9121 12.0879 27 27 27s27 -12.0879 27 -27s-12.0879 -27 -27 -27s-27 12.0879 -27 27z" />
    <glyph glyph-name="uniF108" unicode="&#xf108;" 
d="M371.2 -63.4004c-6.40039 0 -12.7998 2.40039 -17.7002 7.30078l-230.4 230.399c-4.69922 4.7002 -7.2998 11 -7.2998 17.7002c0 6.59961 2.60059 13 7.2998 17.7002l230.4 230.399c9.7998 9.80078 25.5996 9.80078 35.4004 0c9.7998 -9.7998 9.7998 -25.5996 0 -35.3994
l-212.7 -212.7l212.7 -212.7c9.7998 -9.7998 9.7998 -25.5996 0 -35.3994c-4.90039 -4.90039 -11.3008 -7.30078 -17.7002 -7.30078z" />
    <glyph glyph-name="uniF11F" unicode="&#xf11f;" 
d="M2 377.3h508v-370.7h-508v370.7zM293.4 78h5.69922v228h-61.0996l-61.7998 -166.9l-64 166.9h-62.1006v-228h36.6006v187.4l72 -187.4h31.8994l71.9004 187.4v-187.4h30.9004zM457.9 271.3v34.7002h-117.5v-228h36.5996v92.7002h80.9004v34.7002h-80.9004v65.8994
h80.9004z" />
    <glyph glyph-name="uniF122" unicode="&#xf122;" 
d="M145 -51c-32.9004 0 -65.7998 12.5 -90.7998 37.5c-24.2998 24.2998 -37.6006 56.5 -37.6006 90.7998s13.4004 66.5 37.6006 90.7998l73.0996 73.1006c24.2998 24.2998 56.5 37.5996 90.7998 37.5996c34.3008 0 66.5 -13.3994 90.8008 -37.5996
c9.7998 -9.7998 9.7998 -25.6006 0 -35.4004c-9.80078 -9.7998 -25.6006 -9.7998 -35.4004 0c-14.7998 14.7998 -34.5 23 -55.4004 23c-20.8994 0 -40.5996 -8.2002 -55.3994 -23l-73.1006 -73.0996c-14.7998 -14.7998 -23 -34.5 -23 -55.4004
c0 -20.8994 8.2002 -40.5996 23 -55.3994c30.6006 -30.6006 80.3008 -30.6006 110.9 0l32.5 32.5c9.7998 9.7998 25.5996 9.7998 35.4004 0c9.7998 -9.80078 9.7998 -25.6006 0 -35.4004l-32.5 -32.5c-25.1006 -25 -58 -37.5 -90.9004 -37.5zM282.5 89.2002
c-32.9004 0 -65.7998 12.5 -90.7998 37.5c-9.7998 9.7998 -9.7998 25.5996 0 35.3994c9.7998 9.80078 25.5996 9.80078 35.3994 0c30.6006 -30.5996 80.3008 -30.5996 110.9 0l73.0996 73.1006c30.6006 30.5996 30.6006 80.2998 0 110.899
c-14.7998 14.8008 -34.5 23 -55.3994 23c-20.9004 0 -40.6006 -8.19922 -55.4004 -23l-32.5 -32.5c-9.7998 -9.7998 -25.5996 -9.7998 -35.3994 0c-9.80078 9.80078 -9.80078 25.6006 0 35.4004l32.5 32.5c24.1992 24.0996 56.3994 37.5 90.6992 37.5
c34.3008 0 66.5 -13.4004 90.8008 -37.5996c50.0996 -50.1006 50.0996 -131.5 0 -181.601l-73.1006 -73.0996c-25.0996 -25 -57.8994 -37.5 -90.7998 -37.5z" />
    <glyph glyph-name="uniF117" unicode="&#xf117;" 
d="M37 95.5l219 193l219 -193h-438z" />
    <glyph glyph-name="uniF119" unicode="&#xf119;" 
d="M300.4 448l169.3 -169.4v-342.6h-414.2v512h244.9zM86.7998 -32h351.7v297.7l-150.3 150.3h-201.4v-448zM219.6 261.4c-7 -6.7002 -11.5996 -16.4004 -13.8994 -29.1006l-51.7998 4.2998c4 25 14.3994 43.9004 31.1992 56.6006c16.8008 12.5996 37.9004 19 63.2002 19
c14 0 26.5 -2 37.2998 -5.7998c10.9004 -3.90039 20 -9.30078 27.5 -16.3008s13.3008 -15.1992 17.2002 -24.7998c4 -9.59961 6 -19.8994 6 -31c0.200195 -8.89941 -1 -17.0996 -3.7002 -24.7002c-2.59961 -7.59961 -6.2998 -15 -10.7998 -22.0996
c-4.59961 -7.09961 -9.7998 -14.0996 -15.7998 -20.9004c-6 -6.7998 -12.2002 -13.8994 -18.5996 -21.0996l-66.9004 -72.5h111.9v-40.5996h-175v42.2998l93.8994 100.3c9.10059 10.2998 16.5 20.2002 21.9004 29.5996c5.5 9.40039 8.2998 18.8008 8.2998 28.1006
c0 10.7998 -2.90039 20 -8.7002 27.5s-14.7002 11.2998 -26.5996 11.2998c-10.7002 0 -19.6006 -3.40039 -26.6006 -10.0996z" />
    <glyph glyph-name="uniF118" unicode="&#xf118;" 
d="M304.5 443l163.5 -163.5v-340.5h-414v504h250.5zM298.8 14.7002h-0.0996094v343.2h-51.9004l-88.2002 -65.4004l26.2002 -45.0996l57.2002 43.0996v-275.8h56.7998z" />
  </font>
</defs>
</svg>
