<?xml version="1.0" encoding="utf-8"?>
<!-- Generator: Adobe Illustrator 19.2.1, SVG Export Plug-In . SVG Version: 6.00 Build 0)  -->
<svg version="1.1" id="Layer_1" xmlns="http://www.w3.org/2000/svg" xmlns:xlink="http://www.w3.org/1999/xlink" x="0px" y="0px"
	 viewBox="0 0 512 512" style="enable-background:new 0 0 512 512;" xml:space="preserve">
<g>
	<path d="M145.3,256c0-6.6,2.6-13,7.3-17.7l79.7-79.7c9.8-9.8,25.6-9.8,35.4,0c9.8,9.8,9.8,25.6,0,35.4l-62,62l62,62
		c9.8,9.8,9.8,25.6,0,35.4c-9.8,9.8-25.6,9.8-35.4,0l-79.7-79.7C147.9,269,145.3,262.6,145.3,256z"/>
</g>
<g>
	<path d="M260.7,256c0-13.8,11.2-25,25-25h56c13.8,0,25,11.2,25,25c0,13.8-11.2,25-25,25h-56C271.9,281,260.7,269.8,260.7,256z"/>
</g>
<path d="M462,256c0,55-21.4,106.8-60.3,145.7C362.8,440.6,311,462,256,462s-106.8-21.4-145.7-60.3C71.4,362.8,50,311,50,256
	s21.4-106.8,60.3-145.7C149.2,71.4,201,50,256,50s106.8,21.4,145.7,60.3C440.6,149.2,462,201,462,256 M512,256
	C512,114.6,397.4,0,256,0C114.6,0,0,114.6,0,256c0,141.4,114.6,256,256,256S512,397.4,512,256L512,256z"/>
</svg>
