<?xml version="1.0" encoding="utf-8"?>
<!-- Generator: Adobe Illustrator 19.2.1, SVG Export Plug-In . SVG Version: 6.00 Build 0)  -->
<svg version="1.1" id="Layer_1" xmlns="http://www.w3.org/2000/svg" xmlns:xlink="http://www.w3.org/1999/xlink" x="0px" y="0px"
	 viewBox="0 0 512 512" style="enable-background:new 0 0 512 512;" xml:space="preserve">
<g>
	<path d="M256,366.7c-6.6,0-13-2.6-17.7-7.3l-79.7-79.7c-9.8-9.8-9.8-25.6,0-35.4c9.8-9.8,25.6-9.8,35.4,0l62,62l62-62
		c9.8-9.8,25.6-9.8,35.4,0c9.8,9.8,9.8,25.6,0,35.4l-79.7,79.7C269,364.1,262.6,366.7,256,366.7z"/>
</g>
<g>
	<path d="M256,251.3c-13.8,0-25-11.2-25-25v-56c0-13.8,11.2-25,25-25c13.8,0,25,11.2,25,25v56C281,240.1,269.8,251.3,256,251.3z"/>
</g>
<path d="M256,50c55,0,106.8,21.4,145.7,60.3C440.6,149.2,462,201,462,256s-21.4,106.8-60.3,145.7C362.8,440.6,311,462,256,462
	s-106.8-21.4-145.7-60.3C71.4,362.8,50,311,50,256s21.4-106.8,60.3-145.7C149.2,71.4,201,50,256,50 M256,0C114.6,0,0,114.6,0,256
	s114.6,256,256,256s256-114.6,256-256S397.4,0,256,0L256,0z"/>
</svg>
