<?xml version="1.0" encoding="utf-8"?>
<!-- Generator: Adobe Illustrator 19.2.1, SVG Export Plug-In . SVG Version: 6.00 Build 0)  -->
<svg version="1.1" id="Layer_1" xmlns="http://www.w3.org/2000/svg" xmlns:xlink="http://www.w3.org/1999/xlink" x="0px" y="0px"
	 viewBox="0 0 512 512" style="enable-background:new 0 0 512 512;" xml:space="preserve">
<g>
	<path d="M366.7,256c0,6.6-2.6,13-7.3,17.7l-79.7,79.7c-9.8,9.8-25.6,9.8-35.4,0c-9.8-9.8-9.8-25.6,0-35.4l62-62l-62-62
		c-9.8-9.8-9.8-25.6,0-35.4c9.8-9.8,25.6-9.8,35.4,0l79.7,79.7C364.1,243,366.7,249.4,366.7,256z"/>
</g>
<g>
	<path d="M251.3,256c0,13.8-11.2,25-25,25h-56c-13.8,0-25-11.2-25-25c0-13.8,11.2-25,25-25h56C240.1,231,251.3,242.2,251.3,256z"/>
</g>
<path d="M50,256c0-55,21.4-106.8,60.3-145.7C149.2,71.4,201,50,256,50s106.8,21.4,145.7,60.3C440.6,149.2,462,201,462,256
	s-21.4,106.8-60.3,145.7C362.8,440.6,311,462,256,462s-106.8-21.4-145.7-60.3C71.4,362.8,50,311,50,256 M0,256
	c0,141.4,114.6,256,256,256s256-114.6,256-256S397.4,0,256,0S0,114.6,0,256L0,256z"/>
</svg>
