<?xml version="1.0" encoding="utf-8"?>
<!-- Generator: Adobe Illustrator 19.2.1, SVG Export Plug-In . SVG Version: 6.00 Build 0)  -->
<svg version="1.1" id="Layer_1" xmlns="http://www.w3.org/2000/svg" xmlns:xlink="http://www.w3.org/1999/xlink" x="0px" y="0px"
	 viewBox="0 0 512 512" style="enable-background:new 0 0 512 512;" xml:space="preserve">
<style type="text/css">
	.st0{fill:#010101;}
</style>
<g>
	<path class="st0" d="M479.8,330.5h-56v-56c0-13.8-11.2-25-25-25s-25,11.2-25,25v56h-56c-13.8,0-25,11.2-25,25s11.2,25,25,25h56v56
		c0,13.8,11.2,25,25,25s25-11.2,25-25v-56h56c13.8,0,25-11.2,25-25S493.6,330.5,479.8,330.5z"/>
	<path class="st0" d="M290.8,414.2H75.1c2.3-4.7,5.1-9.6,8.3-14.5c18.2-27.8,42.4-41.9,71.9-41.9c5.8,0,11.3-2,15.8-5.6
		c16.6-13.6,24.7-33.3,26.8-39.2c2-4.9,2.4-10.7,0.6-16.9c-0.3-1-0.7-2.4-1.4-4.3c-1.6-5-4.5-13.4-8.5-25.1
		c-1.2-3.4-3.1-6.5-5.5-9.1c-12.7-13.4-22.1-41.2-22.1-50.6c-0.1-19.5,1.6-22.6,2.7-24.5c2.7-4.9,5.5-10.5,6.8-20.5
		c2.1-16.1,8.5-30.5,17.9-40.6c9.4-10.1,21.1-15.2,34.8-15.2h9.7c35.3,0,50.3,28.2,52.5,54.5c0.9,10.6,3.7,16.7,6.4,22.1
		c1.4,2.8,3.2,6.2,3.2,24.2c0,9.3-9.3,37.1-22.1,50.5c-9.5,10-9.1,25.8,0.9,35.3c10,9.5,25.8,9.1,35.3-0.9
		c21.5-22.6,35.9-62.2,35.9-85c0-27.9-3.9-37.8-8.7-47.1c-0.3-0.6-0.8-1.5-0.8-1.7c0,0-0.1-0.5-0.2-1.8
		c-2.4-28.5-13.1-53.2-30.8-71.2c-18.7-19-43.4-29.1-71.5-29.1h-9.7c-27.7,0-52.4,10.8-71.4,31.1c-16.4,17.6-27.4,41.8-30.9,68
		c-0.2,1.2-0.3,1.6-0.3,1.6c0,0,0,0,0,0c-0.1,0.2-0.5,0.9-0.7,1.4c-6,10.8-9,21.3-8.9,48.8c0.1,21.4,12.8,57.6,32,80.5
		c2.3,6.7,3.9,11.4,5,14.8c-1,1.9-2.3,3.9-3.7,5.9c-41.9,3.2-77.3,25.2-102.8,64.1c-19.7,30.1-26.5,60.3-26.8,61.6
		c-1.6,7.4,0.2,15.1,4.9,21c4.7,5.9,11.9,9.3,19.5,9.3h251.5c13.8,0,25-11.2,25-25C315.8,425.4,304.6,414.2,290.8,414.2z
		 M151.2,295.3c-0.1,0.2-0.1,0.3-0.2,0.5c0,0.1-0.1,0.2-0.1,0.2C151,295.8,151.1,295.6,151.2,295.3z"/>
</g>
</svg>
