<?xml version="1.0" encoding="utf-8"?>
<!-- Generator: Adobe Illustrator 19.2.1, SVG Export Plug-In . SVG Version: 6.00 Build 0)  -->
<svg version="1.1" id="Layer_1" xmlns="http://www.w3.org/2000/svg" xmlns:xlink="http://www.w3.org/1999/xlink" x="0px" y="0px"
	 viewBox="0 0 512 512" style="enable-background:new 0 0 512 512;" xml:space="preserve">
<path d="M416,491.9c-11,0-20.4-6.4-23.6-16.9c-1.4-2.7-10.1-17.4-39-29c-3.2-1.3-6.7-1.3-10.1-0.1c-26.7,9.3-54.8,13.9-83.7,13.9
	c-60.7,0-117.8-20.8-161-58.5c-44.1-38.5-68.4-90.1-68.4-145.1c0-55,24.3-106.5,68.4-145.1c43.2-37.7,100.4-58.5,161-58.5
	c60.7,0,117.8,20.8,161,58.5c44.1,38.5,68.4,90.1,68.4,145.1c0,43.8-15.4,85.4-44.5,120.6c-1.5,1.8-2.2,4.3-1.9,6.9
	c2.8,25,4.6,60.6-2.6,88.5c-2.8,10.9-12.3,19.5-23.6,19.6C416.2,491.9,416.1,491.9,416,491.9z M392.3,474.6L392.3,474.6L392.3,474.6
	z M348.2,395c8.1,0,16.2,1.5,23.8,4.6c8.2,3.3,15.7,7,22.7,11c-0.3-6.8-0.9-14-1.7-21.3c-1.8-16,3-32.2,13.1-44.4
	c21.6-26,33-56.7,33-88.6c0-84.7-80.5-153.5-179.5-153.5S80.1,171.6,80.1,256.3s80.5,153.5,179.5,153.5c23.3,0,45.9-3.8,67.3-11.2
	C333.8,396.2,341,395,348.2,395z"/>
<circle cx="262" cy="259" r="27"/>
<circle cx="181" cy="259" r="27"/>
<circle cx="343" cy="259" r="27"/>
</svg>
