<?xml version="1.0" encoding="utf-8"?>
<!-- Generator: Adobe Illustrator 21.0.0, SVG Export Plug-In . SVG Version: 6.00 Build 0)  -->
<svg version="1.1" id="Layer_1" xmlns="http://www.w3.org/2000/svg" xmlns:xlink="http://www.w3.org/1999/xlink" x="0px" y="0px"
	 viewBox="0 0 512 512" style="enable-background:new 0 0 512 512;" xml:space="preserve">
<g>
	<path d="M395.3,272.3c-13.8,0-25,11.2-25,25v156.2H57.8V141.1h156.2c13.8,0,25-11.2,25-25s-11.2-25-25-25H32.8
		c-13.8,0-25,11.2-25,25v362.5c0,13.8,11.2,25,25,25h362.5c13.8,0,25-11.2,25-25V297.3C420.3,283.5,409.1,272.3,395.3,272.3z"/>
	<path d="M505.6,29c0-0.1,0-0.3,0-0.4c-0.1-1.2-0.3-2.3-0.5-3.4c0-0.1,0-0.1,0-0.2c-0.3-1.2-0.6-2.3-1-3.4c0,0,0,0,0-0.1
		c-0.4-1.1-0.9-2.2-1.5-3.2c0,0-0.1-0.1-0.1-0.1c-0.6-1-1.2-1.9-1.9-2.8c-0.1-0.1-0.1-0.2-0.2-0.3c-0.3-0.4-0.6-0.8-1-1.2
		c0,0-0.1-0.1-0.1-0.1c-0.4-0.4-0.7-0.8-1.1-1.1c-0.1-0.1-0.2-0.2-0.3-0.3c-0.4-0.3-0.7-0.7-1.1-1c0,0,0,0-0.1-0.1
		c-0.4-0.3-0.9-0.7-1.3-1c-0.1-0.1-0.2-0.1-0.3-0.2c-0.9-0.7-1.9-1.3-3-1.8c0,0-0.1,0-0.1-0.1c-1.1-0.6-2.2-1-3.4-1.4c0,0,0,0,0,0
		c-0.6-0.2-1.2-0.4-1.8-0.5c0,0,0,0,0,0c-0.5-0.1-1.1-0.2-1.7-0.3c-0.1,0-0.2,0-0.2,0c-0.5-0.1-1.1-0.2-1.7-0.2c-0.1,0-0.2,0-0.3,0
		c-0.4,0-0.9-0.1-1.3-0.1c-0.2,0-0.3,0-0.5,0c-0.1,0-0.2,0-0.3,0H309.9c-13.8,0-25,11.2-25,25s11.2,25,25,25h110.4L203.1,272.9
		c-9.8,9.8-9.8,25.6,0,35.4c4.9,4.9,11.3,7.3,17.7,7.3s12.8-2.4,17.7-7.3L455.7,91.1v111.3c0,13.8,11.2,25,25,25s25-11.2,25-25V30.7
		C505.7,30.1,505.7,29.6,505.6,29z"/>
</g>
</svg>
