<?xml version="1.0" encoding="utf-8"?>
<!-- Generator: Adobe Illustrator 19.2.1, SVG Export Plug-In . SVG Version: 6.00 Build 0)  -->
<svg version="1.1" id="Layer_1" xmlns="http://www.w3.org/2000/svg" xmlns:xlink="http://www.w3.org/1999/xlink" x="0px" y="0px"
	 viewBox="0 0 512 512" style="enable-background:new 0 0 512 512;" xml:space="preserve">
<path id="Facebook_1_" d="M188.1,99.1c0,12.9,0,70.5,0,70.5h-51.7v86.2h51.7V512h106.1V255.9h71.2c0,0,6.6-41.4,9.9-86.5
	c-9.2,0-80.6,0-80.6,0s0-50.2,0-59s11.5-20.7,23-20.7c11.4,0,35.5,0,57.8,0c0-11.8,0-52.3,0-89.8c-29.8,0-63.6,0-78.6,0
	C185.5,0,188.1,86.3,188.1,99.1z"/>
</svg>
