<?xml version="1.0" encoding="utf-8"?>
<!-- Generator: Adobe Illustrator 20.1.0, SVG Export Plug-In . SVG Version: 6.00 Build 0)  -->
<svg version="1.1" id="Layer_1" xmlns="http://www.w3.org/2000/svg" xmlns:xlink="http://www.w3.org/1999/xlink" x="0px" y="0px"
	 viewBox="0 0 512 512" style="enable-background:new 0 0 512 512;" xml:space="preserve">
<g>
	<path d="M173.9,94.5c4.3,8.3,12.9,13.5,22.2,13.5h119.9c9.4,0,17.9-5.2,22.2-13.5l30-58c6.3-12.3,1.5-27.3-10.7-33.7
		c-12.3-6.3-27.3-1.5-33.7,10.7l-23,44.5h-89.4l-23-44.5C182,1.3,166.9-3.5,154.6,2.8c-12.3,6.3-17.1,21.4-10.7,33.7L173.9,94.5z"/>
	<path d="M398.1,254.7l-59.9-116c-4.3-8.3-12.9-13.5-22.2-13.5H196.1c-9.4,0-17.9,5.2-22.2,13.5l-59.9,116
		c-3.8,7.4-3.7,16.1,0.2,23.4l44.4,81.8c6.6,12.1,21.8,16.6,33.9,10c12.1-6.6,16.6-21.8,10-33.9l-38.1-70.1l46.9-90.7h89.4
		l46.9,90.7L281,388.5v-77.8c20.1-9.4,34.1-29.9,34.1-53.6c0-32.6-26.5-59.1-59.1-59.1c-15.8,0-30.6,6.2-41.8,17.3
		c-9.8,9.8-9.8,25.6,0,35.4c9.8,9.8,25.6,9.8,35.4,0c1-1,3.2-2.7,6.5-2.7c5,0,9.1,4.1,9.1,9.1c0,5-4.1,9.1-9.1,9.1
		c-13.8,0-25,11.2-25,25V487c0,11.4,7.8,21.4,18.8,24.2c2,0.5,4.1,0.8,6.2,0.8c9,0,17.5-4.9,22-13.1l119.9-220.8
		C401.8,270.8,401.9,262,398.1,254.7z"/>
</g>
</svg>
