<?xml version="1.0" encoding="utf-8"?>
<!-- Generator: Adobe Illustrator 20.1.0, SVG Export Plug-In . SVG Version: 6.00 Build 0)  -->
<svg version="1.1" id="Layer_1" xmlns="http://www.w3.org/2000/svg" xmlns:xlink="http://www.w3.org/1999/xlink" x="0px" y="0px"
	 viewBox="0 0 512 512" style="enable-background:new 0 0 512 512;" xml:space="preserve">
<path d="M46.9,510.2c-7.2,0-14.7-0.2-22.5-0.8c-10.2-0.7-18.9-7.4-22.1-17.1c-3.2-9.7-0.2-20.3,7.6-26.9c0.4-0.4,50-43.5,46.9-94
	c-1.4-23.2,6.8-45.6,23.2-62.9c17.3-18.4,41.8-29,67.2-29c13.8,0,25,11.2,25,25s-11.2,25-25,25c-11.6,0-22.8,4.8-30.8,13.2
	c-6.8,7.2-10.2,16.3-9.7,25.6c2.1,35-10.9,65.9-25.7,89.4c28.3-4.3,51.2-14.2,67.5-29.5c23.9-22.3,24.5-46.5,24.5-49.2
	c0-13.8,11.2-25,25-25s25,11.2,25,25c0,23.2-10.6,57.8-40.4,85.7C159.9,486.1,118.4,510.2,46.9,510.2z"/>
<path d="M257.7,333.5c-0.2,0-0.4,0-0.6,0c-17.2-0.1-33.4-7-45.7-19.2c-12.3-12.3-19.1-28.5-19.2-45.7c-0.1-17.4,6.5-33.6,18.7-45.9
	c9.8-9.8,25.6-9.8,35.4,0c9.8,9.8,9.8,25.6,0,35.4c-2.7,2.7-4.1,6.3-4.1,10.1c0,4,1.7,7.8,4.6,10.7c2.9,2.9,6.7,4.6,10.8,4.6
	c0,0,0.1,0,0.1,0c3.8,0,7.3-1.5,10-4.1l192-192c2.7-2.7,2.6-7.4-0.4-10.3c-9.8-9.8-9.8-25.6,0-35.4c9.8-9.8,25.6-9.8,35.4,0
	c22.5,22.5,22.6,58.8,0.4,81.1l-192,192C290.9,326.9,274.8,333.5,257.7,333.5z"/>
</svg>
