<?xml version="1.0" encoding="utf-8"?>
<!-- Generator: Adobe Illustrator 19.2.1, SVG Export Plug-In . SVG Version: 6.00 Build 0)  -->
<svg version="1.1" id="Layer_1" xmlns="http://www.w3.org/2000/svg" xmlns:xlink="http://www.w3.org/1999/xlink" x="0px" y="0px"
	 viewBox="0 0 512 512" style="enable-background:new 0 0 512 512;" xml:space="preserve">
<g>
	<path d="M453,216.6h-44.5c3.2,12.6,5.1,25.8,5.1,39.4c0,87-70.5,157.5-157.6,157.5C169,413.5,98.4,343,98.4,256
		c0-13.6,1.9-26.8,5.2-39.4H59v216.6c0,10.9,8.8,19.7,19.7,19.7h354.5c10.9,0,19.7-8.8,19.7-19.7L453,216.6L453,216.6z M453,78.8
		c0-10.9-8.8-19.7-19.7-19.7h-59.1c-10.9,0-19.7,8.8-19.7,19.7v59.1c0,10.9,8.8,19.7,19.7,19.7h59c10.9,0,19.7-8.8,19.7-19.7
		L453,78.8L453,78.8z M256,157.6c-54.4,0-98.4,44.1-98.4,98.4s44.1,98.5,98.4,98.5c54.4,0,98.5-44.1,98.5-98.5
		C354.5,201.6,310.4,157.6,256,157.6 M453,512H59c-32.6,0-59-26.5-59-59.1V59C0,26.5,26.5,0,59,0h393.9C485.5,0,512,26.5,512,59
		v393.9C512,485.5,485.5,512,453,512"/>
</g>
</svg>
