<?xml version="1.0" encoding="utf-8"?>
<!-- Generator: Adobe Illustrator 19.2.1, SVG Export Plug-In . SVG Version: 6.00 Build 0)  -->
<svg version="1.1" id="Layer_1" xmlns="http://www.w3.org/2000/svg" xmlns:xlink="http://www.w3.org/1999/xlink" x="0px" y="0px"
	 viewBox="0 0 512 512" style="enable-background:new 0 0 512 512;" xml:space="preserve">
<path d="M374.3,505.5H138.7c-72.4,0-131.3-58.9-131.3-131.3V138.7C7.5,66.4,66.4,7.5,138.7,7.5h235.5c72.4,0,131.3,58.9,131.3,131.3
	v235.5C505.5,446.6,446.6,505.5,374.3,505.5z M138.7,57.5c-44.8,0-81.3,36.5-81.3,81.3v235.5c0,44.8,36.5,81.3,81.3,81.3h235.5
	c44.8,0,81.3-36.5,81.3-81.3V138.7c0-44.8-36.5-81.3-81.3-81.3H138.7z"/>
<circle cx="381" cy="132" r="29.9"/>
<path d="M251.5,386C182.8,386,127,330.2,127,261.5s55.9-124.6,124.6-124.6s124.6,55.9,124.6,124.6S320.2,386,251.5,386z
	 M251.5,186.9c-41.1,0-74.6,33.5-74.6,74.6c0,41.1,33.5,74.6,74.6,74.6c41.1,0,74.6-33.5,74.6-74.6
	C326.1,220.4,292.6,186.9,251.5,186.9z"/>
</svg>
