<?xml version="1.0" encoding="utf-8"?>
<!-- Generator: Adobe Illustrator 19.2.1, SVG Export Plug-In . SVG Version: 6.00 Build 0)  -->
<svg version="1.1" id="Layer_1" xmlns="http://www.w3.org/2000/svg" xmlns:xlink="http://www.w3.org/1999/xlink" x="0px" y="0px"
	 viewBox="0 0 512 512" style="enable-background:new 0 0 512 512;" xml:space="preserve">
<circle cx="80.7" cy="68" r="36"/>
<path d="M80.8,131.7c-13.8,0-25,11.2-25,25V455c0,13.8,11.2,25,25,25s25-11.2,25-25V156.7C105.8,142.9,94.6,131.7,80.8,131.7z"/>
<path d="M341.2,131.7c-33.2,0-63.6,11.8-87.4,31.4v-6.4c0-13.8-11.2-25-25-25s-25,11.2-25,25V269v186c0,13.8,11.2,25,25,25
	s25-11.2,25-25V269c0-48.2,39.2-87.4,87.4-87.4c48.2,0,87.4,39.2,87.4,87.4v186c0,13.8,11.2,25,25,25s25-11.2,25-25V269
	C478.5,193.3,416.9,131.7,341.2,131.7z"/>
</svg>
