<?xml version="1.0" encoding="utf-8"?>
<!-- Generator: Adobe Illustrator 20.1.0, SVG Export Plug-In . SVG Version: 6.00 Build 0)  -->
<svg version="1.1" id="Layer_1" xmlns="http://www.w3.org/2000/svg" xmlns:xlink="http://www.w3.org/1999/xlink" x="0px" y="0px"
	 viewBox="0 0 512 512" style="enable-background:new 0 0 512 512;" xml:space="preserve">
<path d="M145,499c-32.9,0-65.8-12.5-90.8-37.5c-24.3-24.3-37.6-56.5-37.6-90.8s13.4-66.5,37.6-90.8l73.1-73.1
	c24.3-24.3,56.5-37.6,90.8-37.6c34.3,0,66.5,13.4,90.8,37.6c9.8,9.8,9.8,25.6,0,35.4c-9.8,9.8-25.6,9.8-35.4,0
	c-14.8-14.8-34.5-23-55.4-23s-40.6,8.2-55.4,23l-73.1,73.1c-14.8,14.8-23,34.5-23,55.4s8.2,40.6,23,55.4
	c30.6,30.6,80.3,30.6,110.9,0l32.5-32.5c9.8-9.8,25.6-9.8,35.4,0c9.8,9.8,9.8,25.6,0,35.4l-32.5,32.5C210.8,486.5,177.9,499,145,499
	z"/>
<path d="M282.5,358.8c-32.9,0-65.8-12.5-90.8-37.5c-9.8-9.8-9.8-25.6,0-35.4c9.8-9.8,25.6-9.8,35.4,0c30.6,30.6,80.3,30.6,110.9,0
	l73.1-73.1c30.6-30.6,30.6-80.3,0-110.9c-14.8-14.8-34.5-23-55.4-23c-20.9,0-40.6,8.2-55.4,23l-32.5,32.5c-9.8,9.8-25.6,9.8-35.4,0
	c-9.8-9.8-9.8-25.6,0-35.4l32.5-32.5C289.1,42.4,321.3,29,355.6,29s66.5,13.4,90.8,37.6c50.1,50.1,50.1,131.5,0,181.6l-73.1,73.1
	C348.2,346.3,315.4,358.8,282.5,358.8z"/>
</svg>
