<?xml version="1.0" encoding="utf-8"?>
<!-- Generator: Adobe Illustrator 20.1.0, SVG Export Plug-In . SVG Version: 6.00 Build 0)  -->
<svg version="1.1" id="Layer_1" xmlns="http://www.w3.org/2000/svg" xmlns:xlink="http://www.w3.org/1999/xlink" x="0px" y="0px"
	 viewBox="0 0 512 512" style="enable-background:new 0 0 512 512;" xml:space="preserve">
<style type="text/css">
	.st0{fill:#010101;}
</style>
<path class="st0" d="M381.8,272.6L269.6,9c-5.1-12-22.1-12-27.2,0L130.2,272.6c-3.8,9-5.8,18.8-5.8,28.6v98v60.8
	c0,7.6,5.9,14.2,13.6,14.4c8,0.3,14.6-6.1,14.6-14.1v-37.6c0-13,10.5-23.5,23.5-23.5h0c13,0,23.5,10.5,23.5,23.5v74.9
	c0,7.6,5.9,14.2,13.6,14.4c8,0.3,14.6-6.1,14.6-14.1V389.7c0-15.6,12.6-28.2,28.2-28.2h0c15.6,0,28.2,12.6,28.2,28.2v107.8
	c0,7.6,5.9,14.2,13.6,14.4c8,0.3,14.6-6.1,14.6-14.1v-75.2c0-13,10.5-23.5,23.5-23.5h0c13,0,23.5,10.5,23.5,23.5v37.3
	c0,7.6,5.9,14.2,13.6,14.4c8,0.3,14.6-6.1,14.6-14.1v-61.1v-98C387.7,291.4,385.7,281.7,381.8,272.6z M173.6,286.3
	c-5.1,0-8.7-5-7.1-9.8c1.3-3.8,2.7-7.5,4.2-11.2l53.5-128.4h0c1.7-3.8,7.9-13.1,31.8-13.1c23.2,0,30.1,9.3,31.8,13.1h0l53.5,128.4
	c1.5,3.7,2.9,7.4,4.2,11.2c1.6,4.8-2,9.8-7.1,9.8L173.6,286.3z"/>
</svg>
