<?xml version="1.0" encoding="utf-8"?>
<!-- Generator: Adobe Illustrator 19.2.1, SVG Export Plug-In . SVG Version: 6.00 Build 0)  -->
<svg version="1.1" id="Layer_1" xmlns="http://www.w3.org/2000/svg" xmlns:xlink="http://www.w3.org/1999/xlink" x="0px" y="0px"
	 viewBox="0 0 512 512" style="enable-background:new 0 0 512 512;" xml:space="preserve">
<path d="M408.8,73.6H103.2C47.4,73.6,2,119,2,174.8v172c0,55.8,45.4,101.2,101.2,101.2h305.7c55.8,0,101.2-45.4,101.2-101.2v-172
	C510,119,464.6,73.6,408.8,73.6z M408.8,123.6c7.6,0,14.9,1.7,21.4,4.7c-3.7,8.6-8.9,16.3-15.7,23L308.7,257.2
	c-14.1,14.1-32.9,21.9-52.8,21.9s-38.7-7.8-52.8-21.9L97.2,151.3c-6.7-6.7-11.9-14.4-15.6-22.9c6.6-3.1,13.9-4.8,21.6-4.8H408.8z
	 M103.2,398.1c-0.4,0-0.9,0-1.3,0l36-36c9.8-9.8,9.8-25.6,0-35.4c-9.8-9.8-25.6-9.8-35.4,0l-40.6,40.6c-1.3,1.3-2.5,2.6-3.7,3.9
	c-3.9-7.2-6.2-15.5-6.2-24.4V175.5c3.1,3.9,6.4,7.6,9.9,11.2l105.8,105.8c23.5,23.5,54.9,36.5,88.2,36.5c33.3,0,64.6-13,88.2-36.5
	l105.8-105.8c3.6-3.6,7-7.5,10.1-11.4v171.6c0,8.9-2.3,17.2-6.3,24.5c-1.3-1.4-2.5-2.7-3.9-4.1l-40.6-40.6c-9.8-9.8-25.6-9.8-35.4,0
	c-9.8,9.8-9.8,25.6,0,35.4l36,36c-0.4,0-0.7,0-1.1,0H103.2z"/>
</svg>
