<?xml version="1.0" encoding="utf-8"?>
<!-- Generator: Adobe Illustrator 20.1.0, SVG Export Plug-In . SVG Version: 6.00 Build 0)  -->
<svg version="1.1" id="Layer_1" xmlns="http://www.w3.org/2000/svg" xmlns:xlink="http://www.w3.org/1999/xlink" x="0px" y="0px"
	 viewBox="0 0 512 512" style="enable-background:new 0 0 512 512;" xml:space="preserve">
<path d="M486.4,508.8c0.2,0,0.5-0.1,0.7-0.1c0.2,0,0.3,0,0.5-0.1c0.3,0,0.5-0.1,0.8-0.1c0.1,0,0.3,0,0.4-0.1
	c0.3-0.1,0.5-0.1,0.8-0.2c0.1,0,0.3-0.1,0.4-0.1c0.3-0.1,0.5-0.1,0.7-0.2c0.1,0,0.3-0.1,0.4-0.1c0.2-0.1,0.5-0.1,0.7-0.2
	c0.2-0.1,0.3-0.1,0.5-0.2c0.2-0.1,0.4-0.2,0.6-0.2c0.2-0.1,0.4-0.1,0.6-0.2c0.2-0.1,0.3-0.1,0.5-0.2c0.2-0.1,0.4-0.2,0.6-0.3
	c0.1-0.1,0.3-0.1,0.4-0.2c0.2-0.1,0.4-0.2,0.7-0.3c0.1-0.1,0.2-0.1,0.4-0.2c0.2-0.1,0.5-0.3,0.7-0.4c0.1-0.1,0.2-0.1,0.3-0.2
	c0.2-0.1,0.5-0.3,0.7-0.4c0.1-0.1,0.2-0.2,0.3-0.2c0.2-0.2,0.4-0.3,0.7-0.5c0.1-0.1,0.2-0.2,0.4-0.3c0.2-0.2,0.4-0.3,0.6-0.5
	c0.2-0.1,0.3-0.3,0.5-0.4c0.2-0.1,0.3-0.3,0.5-0.4c0.3-0.3,0.6-0.5,0.9-0.8c0,0,0,0,0,0c0,0,0,0,0,0c0.3-0.3,0.5-0.6,0.8-0.8
	c0.1-0.1,0.3-0.3,0.4-0.5c0.1-0.2,0.3-0.3,0.4-0.5c0.2-0.2,0.3-0.4,0.5-0.6c0.1-0.1,0.2-0.2,0.3-0.4c0.2-0.2,0.3-0.4,0.5-0.7
	c0.1-0.1,0.2-0.2,0.2-0.3c0.2-0.2,0.3-0.5,0.4-0.7c0.1-0.1,0.1-0.2,0.2-0.3c0.1-0.2,0.3-0.5,0.4-0.7c0.1-0.1,0.1-0.3,0.2-0.4
	c0.1-0.2,0.2-0.4,0.3-0.6c0.1-0.2,0.2-0.3,0.2-0.5c0.1-0.2,0.2-0.4,0.3-0.6c0.1-0.2,0.2-0.4,0.2-0.5c0.1-0.2,0.1-0.4,0.2-0.5
	c0.1-0.2,0.2-0.4,0.2-0.6c0.1-0.2,0.1-0.3,0.2-0.5c0.1-0.2,0.2-0.5,0.2-0.7c0-0.1,0.1-0.3,0.1-0.4c0.1-0.3,0.1-0.5,0.2-0.8
	c0-0.1,0.1-0.3,0.1-0.4c0.1-0.3,0.1-0.5,0.2-0.8c0-0.1,0-0.3,0.1-0.4c0-0.3,0.1-0.5,0.1-0.8c0-0.1,0-0.3,0.1-0.4
	c0-0.3,0.1-0.5,0.1-0.8c0-0.2,0-0.4,0-0.6c0-0.2,0-0.4,0-0.6c0-0.4,0-0.7,0-1.1c0-0.1,0-0.1,0-0.2s0-0.1,0-0.2c0-0.4,0-0.7,0-1.1
	c0-0.2,0-0.4,0-0.6c0-0.2,0-0.4,0-0.6c0-0.3-0.1-0.5-0.1-0.8c0-0.1,0-0.3-0.1-0.4c0-0.3-0.1-0.5-0.1-0.8c0-0.1,0-0.3-0.1-0.4
	c-0.1-0.3-0.1-0.5-0.2-0.8c0-0.1-0.1-0.3-0.1-0.4c-0.1-0.3-0.1-0.5-0.2-0.8c0-0.1-0.1-0.3-0.1-0.4c-0.1-0.2-0.2-0.5-0.2-0.7
	c-0.1-0.2-0.1-0.3-0.2-0.5c-0.1-0.2-0.2-0.4-0.2-0.6c-0.1-0.2-0.1-0.4-0.2-0.5c-0.1-0.2-0.2-0.4-0.2-0.5c-0.1-0.2-0.2-0.4-0.3-0.6
	c-0.1-0.2-0.2-0.3-0.2-0.5c-0.1-0.2-0.2-0.4-0.3-0.6c-0.1-0.1-0.1-0.3-0.2-0.4c-0.1-0.2-0.3-0.5-0.4-0.7c-0.1-0.1-0.1-0.2-0.2-0.3
	c-0.1-0.2-0.3-0.5-0.4-0.7c-0.1-0.1-0.2-0.2-0.2-0.3c-0.2-0.2-0.3-0.4-0.5-0.7c-0.1-0.1-0.2-0.2-0.3-0.4c-0.2-0.2-0.3-0.4-0.5-0.6
	c-0.1-0.2-0.3-0.3-0.4-0.5c-0.1-0.2-0.3-0.3-0.4-0.5c-0.3-0.3-0.5-0.6-0.8-0.8c0,0,0,0,0,0L291.4,256L501.6,45.7
	c9.8-9.8,9.8-25.6,0-35.4c-5.1-5.1-12-7.6-18.7-7.3c-0.3,0-0.7,0-1,0H373.4c-13.8,0-25,11.2-25,25s11.2,25,25,25h50.2L256,220.6
	L88.4,53h48.2c13.8,0,25-11.2,25-25s-11.2-25-25-25H28c-0.1,0-0.1,0-0.2,0c-0.4,0-0.7,0-1.1,0c-0.2,0-0.4,0-0.6,0
	c-0.2,0-0.4,0-0.6,0c-0.3,0-0.5,0.1-0.8,0.1c-0.1,0-0.3,0-0.4,0.1c-0.3,0-0.5,0.1-0.8,0.1c-0.1,0-0.3,0-0.4,0.1
	c-0.3,0.1-0.5,0.1-0.8,0.2c-0.1,0-0.2,0.1-0.4,0.1c-0.3,0.1-0.5,0.1-0.8,0.2c-0.1,0-0.3,0.1-0.4,0.1c-0.2,0.1-0.5,0.2-0.7,0.2
	c-0.2,0.1-0.3,0.1-0.5,0.2c-0.2,0.1-0.4,0.2-0.6,0.2c-0.2,0.1-0.3,0.1-0.5,0.2c-0.2,0.1-0.4,0.2-0.6,0.2c-0.2,0.1-0.4,0.2-0.6,0.3
	c-0.2,0.1-0.3,0.2-0.5,0.2c-0.2,0.1-0.4,0.2-0.6,0.3c-0.1,0.1-0.3,0.2-0.4,0.2c-0.2,0.1-0.4,0.2-0.7,0.4c-0.1,0.1-0.2,0.2-0.4,0.2
	c-0.2,0.1-0.4,0.3-0.7,0.4c-0.1,0.1-0.2,0.2-0.4,0.2c-0.2,0.1-0.4,0.3-0.6,0.5c-0.1,0.1-0.3,0.2-0.4,0.3c-0.2,0.1-0.4,0.3-0.6,0.5
	C12,8.8,11.9,9,11.7,9.1c-0.1,0.1-0.3,0.3-0.4,0.4c-0.3,0.3-0.6,0.5-0.9,0.8c0,0,0,0,0,0c0,0,0,0,0,0C10,10.7,9.8,11,9.5,11.3
	c-0.1,0.2-0.3,0.3-0.4,0.5C9,11.9,8.8,12,8.7,12.2c-0.2,0.2-0.3,0.4-0.5,0.6C8.2,12.9,8.1,13,8,13.1c-0.2,0.2-0.3,0.4-0.5,0.7
	c-0.1,0.1-0.2,0.2-0.2,0.3c-0.2,0.2-0.3,0.5-0.4,0.7c-0.1,0.1-0.1,0.2-0.2,0.3c-0.1,0.2-0.3,0.5-0.4,0.7C6.1,16,6.1,16.1,6,16.2
	c-0.1,0.2-0.2,0.4-0.3,0.7c-0.1,0.1-0.1,0.3-0.2,0.4c-0.1,0.2-0.2,0.4-0.3,0.6c-0.1,0.2-0.2,0.3-0.2,0.5c-0.1,0.2-0.1,0.4-0.2,0.5
	c-0.1,0.2-0.2,0.4-0.2,0.6c-0.1,0.2-0.1,0.3-0.2,0.5c-0.1,0.2-0.2,0.5-0.2,0.7c0,0.1-0.1,0.3-0.1,0.4c-0.1,0.2-0.1,0.5-0.2,0.8
	c0,0.1-0.1,0.3-0.1,0.4c-0.1,0.3-0.1,0.5-0.2,0.8c0,0.1-0.1,0.3-0.1,0.4c0,0.3-0.1,0.5-0.1,0.8c0,0.2,0,0.3-0.1,0.5
	c0,0.2-0.1,0.5-0.1,0.7c0,0.2,0,0.4-0.1,0.7c0,0.2,0,0.4,0,0.6c0,0.8,0,1.7,0,2.5c0,0.2,0,0.4,0,0.6c0,0.2,0,0.4,0.1,0.7
	c0,0.2,0.1,0.5,0.1,0.7c0,0.2,0,0.3,0.1,0.5c0,0.3,0.1,0.5,0.1,0.8c0,0.1,0,0.3,0.1,0.4c0.1,0.3,0.1,0.5,0.2,0.8
	c0,0.1,0.1,0.3,0.1,0.4c0.1,0.3,0.1,0.5,0.2,0.8c0,0.1,0.1,0.3,0.1,0.4c0.1,0.2,0.1,0.5,0.2,0.7c0.1,0.2,0.1,0.3,0.2,0.5
	c0.1,0.2,0.2,0.4,0.2,0.6c0.1,0.2,0.1,0.4,0.2,0.5C5,37.8,5.1,38,5.2,38.1c0.1,0.2,0.2,0.4,0.3,0.6c0.1,0.1,0.1,0.3,0.2,0.4
	c0.1,0.2,0.2,0.4,0.3,0.7c0.1,0.1,0.1,0.3,0.2,0.4c0.1,0.2,0.3,0.5,0.4,0.7c0.1,0.1,0.1,0.2,0.2,0.3c0.1,0.2,0.3,0.5,0.4,0.7
	c0.1,0.1,0.2,0.2,0.2,0.3c0.2,0.2,0.3,0.4,0.5,0.7c0.1,0.1,0.2,0.2,0.3,0.4c0.2,0.2,0.3,0.4,0.5,0.6c0.1,0.2,0.3,0.3,0.4,0.5
	c0.1,0.2,0.3,0.3,0.4,0.5c0.3,0.3,0.5,0.6,0.8,0.8c0,0,0,0,0,0L220.6,256L10.4,466.3c-0.3,0.3-0.6,0.6-0.9,0.9
	c-0.1,0.1-0.3,0.3-0.4,0.4c-0.1,0.2-0.3,0.3-0.4,0.5c-0.2,0.2-0.3,0.4-0.5,0.6c-0.1,0.1-0.2,0.2-0.3,0.4c-0.2,0.2-0.3,0.4-0.5,0.7
	c-0.1,0.1-0.2,0.2-0.2,0.3c-0.2,0.2-0.3,0.5-0.4,0.7c-0.1,0.1-0.1,0.2-0.2,0.3c-0.1,0.2-0.3,0.5-0.4,0.7c-0.1,0.1-0.1,0.3-0.2,0.4
	c-0.1,0.2-0.2,0.4-0.3,0.7c-0.1,0.1-0.1,0.3-0.2,0.4c-0.1,0.2-0.2,0.4-0.3,0.6c-0.1,0.2-0.2,0.4-0.2,0.5c-0.1,0.2-0.1,0.4-0.2,0.5
	c-0.1,0.2-0.2,0.4-0.2,0.6c-0.1,0.2-0.1,0.3-0.2,0.5c-0.1,0.2-0.2,0.5-0.2,0.7c0,0.1-0.1,0.3-0.1,0.4c-0.1,0.2-0.1,0.5-0.2,0.8
	c0,0.1-0.1,0.3-0.1,0.4c-0.1,0.3-0.1,0.5-0.2,0.8c0,0.1-0.1,0.3-0.1,0.4c0,0.3-0.1,0.5-0.1,0.8c0,0.2,0,0.3-0.1,0.5
	c0,0.2-0.1,0.5-0.1,0.7c0,0.2,0,0.4-0.1,0.7c0,0.2,0,0.4,0,0.6c0,0.8,0,1.7,0,2.5c0,0.2,0,0.4,0,0.6c0,0.2,0,0.4,0.1,0.7
	c0,0.2,0.1,0.5,0.1,0.7c0,0.2,0,0.3,0.1,0.5c0,0.3,0.1,0.5,0.1,0.8c0,0.1,0,0.3,0.1,0.4c0.1,0.3,0.1,0.5,0.2,0.8
	c0,0.1,0.1,0.3,0.1,0.4c0.1,0.3,0.1,0.5,0.2,0.8c0,0.1,0.1,0.3,0.1,0.4c0.1,0.2,0.1,0.5,0.2,0.7c0.1,0.2,0.1,0.3,0.2,0.5
	c0.1,0.2,0.2,0.4,0.2,0.6c0.1,0.2,0.1,0.4,0.2,0.5c0.1,0.2,0.2,0.4,0.2,0.5c0.1,0.2,0.2,0.4,0.3,0.6c0.1,0.1,0.1,0.3,0.2,0.4
	c0.1,0.2,0.2,0.4,0.3,0.7c0.1,0.1,0.1,0.3,0.2,0.4c0.1,0.2,0.3,0.5,0.4,0.7c0.1,0.1,0.1,0.2,0.2,0.3c0.1,0.2,0.3,0.5,0.4,0.7
	c0.1,0.1,0.2,0.2,0.2,0.3c0.2,0.2,0.3,0.4,0.5,0.7c0.1,0.1,0.2,0.2,0.3,0.4c0.2,0.2,0.3,0.4,0.5,0.6c0.1,0.2,0.3,0.3,0.4,0.5
	c0.1,0.1,0.3,0.3,0.4,0.4c0.6,0.6,1.1,1.2,1.7,1.7c0.1,0.1,0.3,0.2,0.4,0.4c0.2,0.1,0.3,0.3,0.5,0.4c0.2,0.2,0.4,0.3,0.6,0.5
	c0.1,0.1,0.3,0.2,0.4,0.3c0.2,0.2,0.4,0.3,0.7,0.5c0.1,0.1,0.2,0.2,0.3,0.2c0.2,0.2,0.5,0.3,0.7,0.4c0.1,0.1,0.2,0.1,0.3,0.2
	c0.2,0.1,0.5,0.3,0.7,0.4c0.1,0.1,0.3,0.1,0.4,0.2c0.2,0.1,0.4,0.2,0.7,0.3c0.1,0.1,0.3,0.1,0.4,0.2c0.2,0.1,0.4,0.2,0.6,0.3
	c0.2,0.1,0.4,0.2,0.5,0.2c0.2,0.1,0.4,0.1,0.5,0.2c0.2,0.1,0.4,0.2,0.6,0.2c0.2,0.1,0.3,0.1,0.5,0.2c0.2,0.1,0.5,0.2,0.7,0.2
	c0.1,0,0.3,0.1,0.4,0.1c0.3,0.1,0.5,0.1,0.8,0.2c0.1,0,0.3,0.1,0.4,0.1c0.3,0.1,0.5,0.1,0.8,0.2c0.1,0,0.3,0,0.4,0.1
	c0.3,0,0.5,0.1,0.8,0.1c0.2,0,0.3,0,0.5,0.1c0.2,0,0.5,0.1,0.7,0.1c0.2,0,0.4,0,0.6,0c0.2,0,0.4,0,0.6,0c0.4,0,0.8,0,1.2,0h108.5
	c13.8,0,25-11.2,25-25s-11.2-25-25-25H88.4L256,291.4L423.6,459h-48.2c-13.8,0-25,11.2-25,25s11.2,25,25,25H484c0.4,0,0.8,0,1.2,0
	c0.2,0,0.4,0,0.6,0C486,508.9,486.2,508.9,486.4,508.8z"/>
</svg>
