<?xml version="1.0" encoding="utf-8"?>
<!-- Generator: Adobe Illustrator 19.2.1, SVG Export Plug-In . SVG Version: 6.00 Build 0)  -->
<svg version="1.1" id="Layer_1" xmlns="http://www.w3.org/2000/svg" xmlns:xlink="http://www.w3.org/1999/xlink" x="0px" y="0px"
	 viewBox="0 0 512 512" style="enable-background:new 0 0 512 512;" xml:space="preserve">
<g>
	<path d="M0,95.1v321.7c0,16.6,13.4,30,30,30h452c16.6,0,30-13.4,30-30V95.1c0-16.6-13.4-30-30-30H30C13.4,65.1,0,78.6,0,95.1z
		 M462,268c-14.7-21.2-38.2-37.4-75.6-37.4c-79.9,0-96.9,99.9-198.6,99.9c-54.6,0-71.2-77.8-137.9-17.8V130.1c0-8.3,6.7-15,15-15
		h382c8.3,0,15,6.7,15,15V268z"/>
	<path d="M204.2,272.9c30.5,0,55.3-24.8,55.3-55.3c0-30.5-24.8-55.3-55.3-55.3S149,187.2,149,217.7
		C149,248.1,173.8,272.9,204.2,272.9z"/>
</g>
</svg>
