<?xml version="1.0" encoding="utf-8"?>
<!-- Generator: Adobe Illustrator 20.1.0, SVG Export Plug-In . SVG Version: 6.00 Build 0)  -->
<svg version="1.1" id="Layer_1" xmlns="http://www.w3.org/2000/svg" xmlns:xlink="http://www.w3.org/1999/xlink" x="0px" y="0px"
	 viewBox="0 0 512 512" style="enable-background:new 0 0 512 512;" xml:space="preserve">
<path d="M260.1,376.6c-58.2,0-105.6-47.4-105.6-105.6c0-58.2,47.4-105.6,105.6-105.6c58.2,0,105.6,47.4,105.6,105.6
	C365.7,329.2,318.3,376.6,260.1,376.6z M260.1,215.4c-30.7,0-55.6,24.9-55.6,55.6c0,30.7,24.9,55.6,55.6,55.6
	c30.7,0,55.6-24.9,55.6-55.6C315.7,240.3,290.7,215.4,260.1,215.4z"/>
<circle cx="409" cy="215.7" r="25.3"/>
<path d="M444.3,446.6H67.7c-35,0-63.6-28.5-63.6-63.6V187.7c0-35,28.5-63.6,63.6-63.6h77l5.7-17.2c7.9-23.8,30.1-39.8,55.2-39.8
	h99.4c25.1,0,47.3,16,55.2,39.8l5.7,17.2h78.5c35,0,63.6,28.5,63.6,63.6v195.3C507.9,418.1,479.4,446.6,444.3,446.6z M67.7,174.2
	c-7.5,0-13.6,6.1-13.6,13.6v195.3c0,7.5,6.1,13.6,13.6,13.6h376.6c7.5,0,13.6-6.1,13.6-13.6V187.7c0-7.5-6.1-13.6-13.6-13.6h-96.6
	c-10.8,0-20.3-6.9-23.7-17.1l-11.4-34.3c-1.1-3.3-4.2-5.6-7.7-5.6h-99.4c-3.5,0-6.6,2.2-7.7,5.6L186.4,157
	c-3.4,10.2-13,17.1-23.7,17.1H67.7z"/>
</svg>
