<?xml version="1.0" encoding="utf-8"?>
<!-- Generator: Adobe Illustrator 19.2.1, SVG Export Plug-In . SVG Version: 6.00 Build 0)  -->
<svg version="1.1" id="Layer_1" xmlns="http://www.w3.org/2000/svg" xmlns:xlink="http://www.w3.org/1999/xlink" x="0px" y="0px"
	 viewBox="0 0 512 512" style="enable-background:new 0 0 512 512;" xml:space="preserve">
<path d="M379.6,304.1c-15.5,0-31,3.9-44.6,11.2c-3.8,2-18.5,10.1-37.6,28.7c-2.2,2.1-4.3,4.3-6.5,6.5c-13.5-26-26.6-48.4-38.3-67
	c-2.3,7.5-31.9,42.3-31.9,42.3l0,0c11.3,19.4,23.6,42.3,36.1,67.9c-10.8,16.3-20.9,34.3-30.1,54c-5.9,12.5-0.5,27.4,12,33.3
	c12.5,5.9,26.5,0.1,33.3-12c48.2-86.6,84.1-108.2,85.6-109l1.1-0.6c6.5-3.5,13.6-5.3,21.1-5.3c24.3,0,44.1,19.8,44.1,44.1
	s-19.8,44.1-44.1,44.1c-2.4,0-4.9,0.1-6.4,0.1c-1.2,0-19,0.6-39.2-19.1c-16.1,17.4-24.7,32.7-28.7,41.4
	c10.1,8.8,19.9,14.6,28.2,18.5c17.2,7.9,31.6,9.2,39.2,9.2c2.2,0,3.8-0.1,4.8-0.2c0.7,0.1,1.4,0.1,2.2,0.1
	c51.9,0,94.1-42.2,94.1-94.1S431.5,304.1,379.6,304.1z"/>
<g>
	<path d="M379.6,28.3c-0.7,0-24-1.1-46.1,9.1c-20.3,9.4-36.2,24.2-48.3,40c-5.2-9.3-9.6-18-13.3-25.8c-5.9-12.5-20.8-17.9-33.3-12
		c-12.5,5.9-17.9,20.8-12,33.3c9.3,19.7,19.3,37.7,30.1,54c0,0,18.6,28.2,34.2,43.2c2.1,2.2,4.3,4.4,6.4,6.5
		c17.5,17,31.3,25.3,36.4,28c0.3,0.2,0.5,0.3,0.8,0.5c13.7,7.5,29.3,11.5,45,11.5c51.9,0,94.1-42.2,94.1-94.1S431.5,28.3,379.6,28.3
		z M379.6,166.5c-7.5,0-14.6-1.8-21.1-5.3l-0.3-0.2l-0.8-0.3c-1.4-0.7-12.2-6.8-27.3-22c-5.3-5.3-10.2-10.9-14.9-16.6
		c26.4-44.9,55.6-43.6,58-43.8c2.4-0.2,3.9,0,6.3,0c24.3,0,44.2,19.9,44.2,44.2S404,166.5,379.6,166.5z"/>
	<path d="M241.1,156.5c-12.7,22.3-25.5,41.3-36.5,58.4c-25.3-35.6-49.2-48.4-84.2-48.4c-51.9,0-94.1,42.2-94.1,94.1
		c0,51.9,42.2,94.1,94.1,94.1c34.7,0,66.6-28.6,84.5-51.6c0.3-0.6,27.2-32.2,70.2-103.7C265.4,188.9,249.9,171.1,241.1,156.5z
		 M160.3,279.5c-7.7,9.6-23.1,25.4-39.9,25.4c-24.3,0-44.1-19.8-44.1-44.1c0-24.3,19.8-44.1,44.1-44.1c15,0,23.3,2.6,38.3,18
		c10.1,10.4,17.1,24.8,17.1,24.8S166.6,271.7,160.3,279.5z"/>
</g>
</svg>
