<?xml version="1.0" encoding="utf-8"?>
<!-- Generator: Adobe Illustrator 19.2.1, SVG Export Plug-In . SVG Version: 6.00 Build 0)  -->
<svg version="1.1" id="Layer_1" xmlns="http://www.w3.org/2000/svg" xmlns:xlink="http://www.w3.org/1999/xlink" x="0px" y="0px"
	 viewBox="0 0 512 512" style="enable-background:new 0 0 512 512;" xml:space="preserve">
<path d="M392.3,152.5c-29.1,0-55.4,12.1-74.1,31.5l-112.1-64.7c2-7.7,3.1-15.7,3.1-24c0-52.5-42.7-95.3-95.3-95.3
	C61.4,0,18.6,42.7,18.6,95.3c0,52.5,42.7,95.3,95.3,95.3c26.2,0,50-10.7,67.3-27.9l111.9,64.6c-2.6,9-4,18.6-4,28.4
	c0,9.8,1.4,19.4,4,28.4l-110.3,63.7c-17.6-17.7-42-28.7-68.9-28.7c-53.7,0-97.4,43.7-97.4,97.4c0,53.7,43.7,97.4,97.4,97.4
	s97.4-43.7,97.4-97.4c0-8.8-1.2-17.3-3.4-25.4l110.3-63.7c18.8,19.4,45.1,31.5,74.1,31.5c56.9,0,103.2-46.3,103.2-103.2
	C495.5,198.8,449.2,152.5,392.3,152.5z M113.9,150.5c-30.5,0-55.3-24.8-55.3-55.3c0-30.5,24.8-55.3,55.3-55.3s55.3,24.8,55.3,55.3
	C169.1,125.7,144.3,150.5,113.9,150.5z M113.9,463.8c-26.1,0-47.4-21.2-47.4-47.4c0-26.1,21.2-47.4,47.4-47.4s47.4,21.2,47.4,47.4
	C161.2,442.5,140,463.8,113.9,463.8z M392.3,308.8c-29.3,0-53.2-23.9-53.2-53.2c0-29.3,23.9-53.2,53.2-53.2
	c29.3,0,53.2,23.9,53.2,53.2C445.5,285,421.6,308.8,392.3,308.8z"/>
</svg>
