<?xml version="1.0" encoding="utf-8"?>
<!-- Generator: Adobe Illustrator 19.2.1, SVG Export Plug-In . SVG Version: 6.00 Build 0)  -->
<svg version="1.1" id="Layer_1" xmlns="http://www.w3.org/2000/svg" xmlns:xlink="http://www.w3.org/1999/xlink" x="0px" y="0px"
	 viewBox="0 0 512 512" style="enable-background:new 0 0 512 512;" xml:space="preserve">
<path d="M512,97.2c-18.9,8.3-39.1,14-60.4,16.6c21.7-13,38.4-33.6,46.2-58.1c-20.3,12.1-42.8,20.8-66.7,25.5
	c-19.2-20.5-46.5-33.2-76.7-33.2c-58,0-105.1,47.1-105.1,105c0,8.2,0.9,16.2,2.7,23.9c-87.3-4.4-164.7-46.2-216.5-109.7
	c-9,15.5-14.2,33.6-14.2,52.8c0,36.4,18.5,68.6,46.7,87.4c-17.2-0.6-33.4-5.2-47.6-13.1c0,0.4,0,0.9,0,1.3
	c0,50.9,36.2,93.4,84.2,103c-8.8,2.4-18.1,3.7-27.7,3.7c-6.8,0-13.4-0.6-19.8-1.9c13.3,41.7,52.1,72.1,98.1,72.9
	c-35.9,28.2-81.2,45-130.4,45c-8.5,0-16.9-0.5-25-1.5c46.5,29.8,101.7,47.2,161,47.2c193.2,0,298.9-160.1,298.9-298.9
	c0-4.6-0.1-9.1-0.3-13.6C480.1,136.8,497.9,118.3,512,97.2z"/>
</svg>
