<?xml version="1.0" encoding="utf-8"?>
<!-- Generator: Adobe Illustrator 19.2.1, SVG Export Plug-In . SVG Version: 6.00 Build 0)  -->
<svg version="1.1" id="Layer_1" xmlns="http://www.w3.org/2000/svg" xmlns:xlink="http://www.w3.org/1999/xlink" x="0px" y="0px"
	 viewBox="0 0 512 512" style="enable-background:new 0 0 512 512;" xml:space="preserve">
<g>
	<path d="M127.2,248c-20.9-1.7-38.8-9.7-51.2-17c-10.8-6.3-24.6-3.8-32.4,6l0,0c-9.4,11.9-6.1,29.4,7,37.1
		c16.8,9.9,41.8,21.1,72.1,23.7c13.7,1.2,26.2-8.8,27.5-22.5C151.4,261.4,141.1,249.1,127.2,248z"/>
	<path d="M478.2,161.1c-6.2-7.7-16.3-11.1-25.8-8.6c-14.3,3.7-21.5,0.7-23.4-0.4c-3.1-3.4-6-6.9-8.8-10.3
		c-15.6-18.9-33.3-40.4-84.7-40.4c-52.8,0-97.2,36.2-109.8,85.1c-45.6,0-88.6-14-144.5-73c-7.7-8.1-17.2-14.1-28-11.4h0
		c-15.7,4-25.3,22.4-16.5,36.1c59,92.5,177.4,102.4,200,102.4c22.9,0,35.5-10.5,35.5-27.4c0.8-34.2,28.9-61.8,63.4-61.8
		c17.8,0,25.3,3.2,29.4,5.6c5.8,3.4,10.3,8.9,16.7,16.6c3.5,4.2,7.4,9,12.1,14c0.2,0.2,0.3,0.3,0.5,0.5c0.4,0.4,0.7,0.7,1.1,1.1
		c2.4,2.2,8.2,6.8,17.6,10.4c-6.1,7.1-12,15.4-14.8,31.8C380.8,333.6,346.2,397.9,292.3,428c-40.4,22.5-93.3,26.3-158,11.5
		c0.9-0.3,1.9-0.7,2.8-1c12.9-4.8,19.5-19.3,14.6-32.2c-4.8-12.9-19.3-19.5-32.2-14.6c-46.5,17.4-76.6,18.2-79.8,18.2
		c-0.2,0-0.4,0-0.7,0c-9.9,0-19.2,5.9-23.2,15.6c-5.2,12.8,1,27.4,13.8,32.6c61.6,25,117.4,38.5,166,40.2c3.4,0.1,6.8,0.2,10.2,0.2
		c41.8,0,79-9,110.8-26.7c68-38,110.8-113.8,130.8-231.9c0.8-4.7,0.8-4.7,5.5-10c6.2-7.1,15.7-17.8,28-41.5
		C485.4,179.4,484.4,168.8,478.2,161.1z"/>
	<path d="M111.1,320.8c-10-2.3-20.7,2.3-26.3,11.6c-7.1,11.8-3.4,27.2,8.5,34.3c2.7,1.6,8.6,4.2,24.5,4.2c11.9,0,29.4-2,55.3-8.3
		c13.3-3.2,22-16.4,19.1-29.8c-3-13.8-16.9-22.8-30.3-19C137,321,118.8,322.5,111.1,320.8z"/>
</g>
</svg>
