<?xml version="1.0" encoding="utf-8"?>
<!-- Generator: Adobe Illustrator 19.2.1, SVG Export Plug-In . SVG Version: 6.00 Build 0)  -->
<svg version="1.1" id="Layer_1" xmlns="http://www.w3.org/2000/svg" xmlns:xlink="http://www.w3.org/1999/xlink" x="0px" y="0px"
	 viewBox="0 0 512 512" style="enable-background:new 0 0 512 512;" xml:space="preserve">
<path d="M337.9,67.5V55.6h-98.3v-9.4c0-12.3-9.9-22.2-22.2-22.2h-70.2C134.9,24,125,34,125,46.3v9.4H26.7v22.8h12.9v382.7H26.7V488
	h311.2v-11.9h102.9V458v-36.4v-42.8c0-10.5,4.7-20.4,12.9-27l18.8-15.3c8.1-6.6,12.9-16.5,12.9-27V140.1V78.3
	c0-5.9-4.8-10.8-10.8-10.8H337.9z M157.2,421.6L65.4,115.4h45.9L180.2,348L249,115.4h45.9l-91.8,306.1h-45.9V421.6z M369.6,458
	h-36.4v-36.4h36.4V458z M369.6,122h-36.4V85.6h36.4V122z M423.3,458H387v-36.4h36.4V458H423.3z M423.3,122H387V85.6h36.4V122H423.3z
	 M477.1,122h-36.4V85.6h36.4V122z"/>
</svg>
