<?xml version="1.0" encoding="utf-8"?>
<!-- Generator: Adobe Illustrator 19.2.1, SVG Export Plug-In . SVG Version: 6.00 Build 0)  -->
<svg version="1.1" id="Layer_1" xmlns="http://www.w3.org/2000/svg" xmlns:xlink="http://www.w3.org/1999/xlink" x="0px" y="0px"
	 viewBox="0 0 512 512" style="enable-background:new 0 0 512 512;" xml:space="preserve">
<path d="M300.4,0H55.5l0,512h414.2l0-342.6L300.4,0z M86.8,480l0-448h201.4l150.3,150.3l0,297.7H86.8z"/>
<path d="M219.6,186.6c7-6.7,15.9-10.1,26.6-10.1c11.9,0,20.8,3.8,26.6,11.3c5.8,7.5,8.7,16.7,8.7,27.5c0,9.3-2.8,18.7-8.3,28.1
	c-5.4,9.4-12.8,19.3-21.9,29.6l-93.9,100.3v42.3h175V375H220.5l66.9-72.5c6.4-7.2,12.6-14.3,18.6-21.1c6-6.8,11.2-13.8,15.8-20.9
	c4.5-7.1,8.2-14.5,10.8-22.1c2.7-7.6,3.9-15.8,3.7-24.7c0-11.1-2-21.4-6-31c-3.9-9.6-9.7-17.8-17.2-24.8c-7.5-7-16.6-12.4-27.5-16.3
	c-10.8-3.8-23.3-5.8-37.3-5.8c-25.3,0-46.4,6.4-63.2,19c-16.8,12.7-27.2,31.6-31.2,56.6l51.8,4.3C208,203,212.6,193.3,219.6,186.6z"
	/>
</svg>
