<?xml version="1.0" encoding="utf-8"?>
<!-- Generator: Adobe Illustrator 19.2.1, SVG Export Plug-In . SVG Version: 6.00 Build 0)  -->
<svg version="1.1" id="Layer_1" xmlns="http://www.w3.org/2000/svg" xmlns:xlink="http://www.w3.org/1999/xlink" x="0px" y="0px"
	 viewBox="0 0 512 512" style="enable-background:new 0 0 512 512;" xml:space="preserve">
<polygon points="34.2,147 15.7,220.4 0.2,220.4 0.2,243.8 33.3,243.8 52.8,171 492.3,171 492.3,355 52.8,355 33.3,282.2 0.2,282.2 
	0.2,305.6 15.7,305.6 34.2,379 515,379 515,147 "/>
<rect x="422.6" y="191.7" width="45.1" height="142.5"/>
<rect x="348.6" y="191.7" width="45.1" height="142.5"/>
<rect x="273.6" y="191.7" width="45.1" height="142.5"/>
<rect x="198" y="191.7" width="45.1" height="142.5"/>
<rect x="122.5" y="191.7" width="45.1" height="142.5"/>
<polygon points="68.9,191.7 52.2,251.7 52.2,275.3 67.3,334.3 92,334.3 92,191.7 "/>
</svg>
