<?xml version="1.0" encoding="utf-8"?>
<!-- Generator: Adobe Illustrator 19.2.1, SVG Export Plug-In . SVG Version: 6.00 Build 0)  -->
<svg version="1.1" id="Layer_1" xmlns="http://www.w3.org/2000/svg" xmlns:xlink="http://www.w3.org/1999/xlink" x="0px" y="0px"
	 viewBox="0 0 512 512" style="enable-background:new 0 0 512 512;" xml:space="preserve">
<path d="M2,423.4c0,12.1,8.9,22.3,20.8,23.9l67.6,9.4c8,1.1,15.1-5.1,15.1-13.2v-15.4c0-3.5-1.4-6.9-3.9-9.4l-39.8-39.8V132.1
	l39.7-38.8c2.6-2.5,4-5.9,4-9.5V68.5c0-8.1-7.1-14.3-15.1-13.2l-67.6,9.4C10.9,66.3,2,76.5,2,88.6V423.4z"/>
<path d="M408.4,68.5V84c0,3.5,1.4,6.8,3.8,9.3l37.9,38.8v246.8l-38,39.8c-2.4,2.5-3.7,5.8-3.7,9.2v15.6c0,8.1,7.2,14.3,15.2,13.2
	l65.6-9.3c11.9-1.7,20.8-11.9,20.8-23.9V88.5c0-12-8.9-22.2-20.8-23.9l-65.6-9.3C415.6,54.2,408.4,60.4,408.4,68.5z"/>
<path d="M302.7,112.5v53.3c0,3,1.3,5.8,3.5,7.8l38.7,34.2c2.2,2,3.5,4.8,3.5,7.8v81c0,3-1.3,5.8-3.5,7.8l-38.7,34.2
	c-2.2,2-3.5,4.8-3.5,7.8v53.3c0,9,10.6,13.7,17.3,7.8l83.9-74.2c2.2-2,3.5-4.8,3.5-7.8V186.7c0-3-1.3-5.8-3.5-7.8L320,104.7
	C313.2,98.7,302.7,103.5,302.7,112.5z"/>
<path d="M163.6,296.5v-81c0-3,1.3-5.8,3.5-7.8l38.7-34.2c2.2-2,3.5-4.8,3.5-7.8v-53.3c0-9-10.6-13.7-17.3-7.8l-83.9,74.2
	c-2.2,2-3.5,4.8-3.5,7.8v138.7c0,3,1.3,5.8,3.5,7.8l83.9,74.2c6.7,5.9,17.3,1.2,17.3-7.8v-53.3c0-3-1.3-5.8-3.5-7.8l-38.7-34.2
	C164.9,302.3,163.6,299.5,163.6,296.5z"/>
<path d="M237.4,302.8l-28.2-28.2c-10.3-10.3-10.3-27,0-37.3l28.2-28.2c10.3-10.3,27-10.3,37.3,0l28.2,28.2c10.3,10.3,10.3,27,0,37.3
	l-28.2,28.2C264.3,313.1,247.7,313.1,237.4,302.8z"/>
</svg>
