<?xml version="1.0" encoding="utf-8"?>
<!-- Generator: Adobe Illustrator 19.2.1, SVG Export Plug-In . SVG Version: 6.00 Build 0)  -->
<svg version="1.1" id="Layer_1" xmlns="http://www.w3.org/2000/svg" xmlns:xlink="http://www.w3.org/1999/xlink" x="0px" y="0px"
	 viewBox="0 0 512 512" style="enable-background:new 0 0 512 512;" xml:space="preserve">
<g>
	<path d="M0,0h114.5c80.7,0,140.6,34.7,140.6,96.3c0,61.6-59.9,96.6-140.2,96.6H0V0z M114.5,142c38.8,0,61.8-21.4,61.8-45.7
		c0-26-20-45.4-61.5-45.4H77.6V142H114.5z"/>
	<path d="M388.3,132.2h-28V193h-77.6V0h136.7c59.9,0,92.2,30.1,92.2,66.2c0,33.3-25.7,50.9-46.1,58.4L512,193h-88.3L388.3,132.2z
		 M407.5,50.9h-47.2v30.4h47.2c13.1,0,25.4-4.6,25.4-15.3C432.9,55.5,420.6,50.9,407.5,50.9z"/>
</g>
<g>
	<path d="M453.3,310.4c-2.3-9.5-5.8-17.5-10.4-24.1c-4.6-6.6-10.8-9.9-18.7-9.9c-7.9,0-14.1,3.3-18.7,9.9
		c-4.6,6.6-8.1,14.6-10.5,24.1c-2.5,9.5-4,19.5-4.6,30c-0.6,10.5-1,19.8-1,27.6c0,5.3,0.2,11.3,0.5,17.9c0.3,6.6,0.8,13.3,1.6,20.1
		c0.7,6.8,1.9,13.4,3.5,19.8c1.6,6.4,3.7,12.1,6.2,17.1c2.6,5,5.7,9.1,9.4,12.1c3.7,3.1,8.3,4.6,13.6,4.6c5.1,0,9.6-1.5,13.4-4.6
		c3.8-3.1,7-7.1,9.6-12.1c2.6-5,4.6-10.7,6.2-17.1c1.6-6.4,2.8-13,3.5-19.8c0.7-6.8,1.3-13.5,1.6-20.1c0.3-6.6,0.5-12.6,0.5-17.9
		c0-7.9-0.4-17.1-1.1-27.6C457.2,329.8,455.6,319.8,453.3,310.4z"/>
	<path d="M281.9,310.4c-2.3-9.5-5.8-17.5-10.4-24.1c-4.6-6.6-10.8-9.9-18.7-9.9c-7.9,0-14.1,3.3-18.7,9.9
		c-4.6,6.6-8.1,14.6-10.5,24.1c-2.5,9.5-4,19.5-4.6,30c-0.6,10.5-1,19.8-1,27.6c0,5.3,0.2,11.3,0.5,17.9c0.3,6.6,0.8,13.3,1.6,20.1
		c0.7,6.8,1.9,13.4,3.5,19.8c1.6,6.4,3.7,12.1,6.2,17.1c2.6,5,5.7,9.1,9.4,12.1c3.7,3.1,8.3,4.6,13.6,4.6c5.1,0,9.6-1.5,13.4-4.6
		c3.8-3.1,7-7.1,9.6-12.1c2.6-5,4.6-10.7,6.2-17.1c1.6-6.4,2.8-13,3.5-19.8c0.7-6.8,1.3-13.5,1.6-20.1c0.3-6.6,0.5-12.6,0.5-17.9
		c0-7.9-0.4-17.1-1.1-27.6C285.8,329.8,284.2,319.8,281.9,310.4z"/>
	<path d="M0,225v287h512V225H0z M132.5,332.1c-1.8,6.3-4.3,12.5-7.3,18.5c-3.1,6.1-6.7,12.1-10.9,18.2c-4.2,6.1-8.7,12.4-13.6,19
		l-49.8,68.1h81.5v25.2H19.3v-26.5l63.3-85.9c7.5-10,13.2-19.5,17.3-28.4c4-8.9,6.1-17.9,6.1-26.8c0-10.2-2.3-19.1-7-26.5
		c-4.7-7.5-11.9-11.2-21.7-11.2c-8.5,0-15.6,2.9-21.1,8.8c-5.5,5.9-9.2,14.3-10.9,25.4L18,307c3-18.5,9.8-32.5,20.4-42
		c10.6-9.5,24.2-14.2,40.6-14.2c9.2,0,17.3,1.6,24.3,4.8c7,3.2,12.9,7.5,17.6,12.9c4.7,5.4,8.3,11.9,10.7,19.3
		c2.4,7.5,3.7,15.4,3.7,24C135.3,319,134.4,325.8,132.5,332.1z M315.9,394.9c-0.7,9.2-2,18.1-3.8,26.8c-1.8,8.7-4.3,16.9-7.3,24.6
		c-3.1,7.7-7,14.4-11.8,20.1c-4.8,5.8-10.5,10.3-17.1,13.7c-6.6,3.4-14.3,5.1-23,5.1c-8.7,0-16.4-1.7-23-5.1
		c-6.6-3.4-12.3-8-17.1-13.7c-4.8-5.8-8.7-12.5-11.8-20.1c-3.1-7.7-5.5-15.9-7.3-24.6c-1.8-8.7-3.1-17.7-3.8-26.8
		c-0.7-9.2-1.1-18.1-1.1-26.8c0-13,0.8-26.5,2.6-40.4c1.7-13.9,5-26.6,9.7-37.9c4.8-11.3,11.3-20.6,19.7-28c8.3-7.3,19.1-11,32.3-11
		c13.2,0,24,3.7,32.3,11c8.3,7.3,14.9,16.7,19.7,28c4.8,11.3,8,23.9,9.7,37.9c1.7,14,2.6,27.4,2.6,40.4
		C317,376.8,316.7,385.7,315.9,394.9z M487.3,394.9c-0.7,9.2-2,18.1-3.8,26.8c-1.8,8.7-4.3,16.9-7.3,24.6c-3.1,7.7-7,14.4-11.8,20.1
		c-4.8,5.8-10.5,10.3-17.1,13.7c-6.6,3.4-14.3,5.1-23,5.1c-8.7,0-16.4-1.7-23-5.1c-6.6-3.4-12.3-8-17.1-13.7
		c-4.8-5.8-8.7-12.5-11.8-20.1c-3.1-7.7-5.5-15.9-7.3-24.6c-1.8-8.7-3.1-17.7-3.8-26.8c-0.7-9.2-1.1-18.1-1.1-26.8
		c0-13,0.8-26.5,2.6-40.4c1.7-13.9,5-26.6,9.7-37.9c4.8-11.3,11.3-20.6,19.6-28c8.3-7.3,19.1-11,32.3-11c13.2,0,24,3.7,32.3,11
		c8.3,7.3,14.9,16.7,19.6,28c4.8,11.3,8,23.9,9.7,37.9c1.7,14,2.6,27.4,2.6,40.4C488.4,376.8,488.1,385.7,487.3,394.9z"/>
</g>
</svg>
