<?xml version="1.0" encoding="utf-8"?>
<!-- Generator: Adobe Illustrator 19.2.1, SVG Export Plug-In . SVG Version: 6.00 Build 0)  -->
<svg version="1.1" id="Layer_1" xmlns="http://www.w3.org/2000/svg" xmlns:xlink="http://www.w3.org/1999/xlink" x="0px" y="0px"
	 viewBox="0 0 512 512" style="enable-background:new 0 0 512 512;" xml:space="preserve">
<style type="text/css">
	.st0{fill:#FFFFFF;}
</style>
<g>
	<path d="M0,31.8v241.5h512V31.8H0z"/>
</g>
<g>
	<path class="st0" d="M81,100.6v35.8h49.8v33.9H81.3v69.7H33.6V65h101.8v35.6H81z"/>
	<path class="st0" d="M262.6,240.1v-73.2h-48.7v73.2H167V65h46.9v66.3h48.7V65h46.9v175H262.6z"/>
	<path class="st0" d="M486,153c0,13.2-1.7,25.1-5.2,35.8c-3.4,10.7-8.7,19.9-15.8,27.4c-7.1,7.6-16.1,13.4-27,17.6
		c-10.9,4.1-23.8,6.2-38.8,6.2h-58.7V65h58.7c14.9,0,27.9,2.1,38.8,6.2c10.9,4.1,19.9,10,27,17.7s12.3,16.9,15.8,27.7
		C484.3,127.4,486,139.5,486,153z M438.5,153c0-17.6-3.6-30.9-10.8-39.9c-7.2-9-16.5-13.5-27.9-13.5h-11.5v105.8h11.5
		c11.4,0,20.7-4.5,27.9-13.5C434.9,183,438.5,170,438.5,153z"/>
</g>
<g>
	<path d="M160.4,359.8c12.4,0,23.2,1.6,32.4,4.7c9.1,3.1,16.7,7.3,22.8,12.7c6.1,5.4,10.7,11.7,13.7,19c3,7.3,4.6,15.3,4.6,23.7
		c0,10.5-2.3,19.9-6.8,28.1c-4.5,8.2-10.9,15.1-19.1,20.7c-8.2,5.6-17.9,9.9-29,12.8c-11.1,2.9-23.3,4.4-36.5,4.4
		c-13.5,0-26-1.4-37.3-4.3S84,474.6,75.8,469c-8.2-5.6-14.6-12.5-19.3-20.6c-4.6-8.1-7-17.4-7-27.7c0-11.2,2.2-21.3,6.8-30.3
		c4.5-9,10.2-17.6,17.1-25.9l53.6-65.8h72.7l-54.4,62.7l0.4,0.3c1.3-0.5,3.5-0.9,6.6-1.3C155.3,360,158,359.8,160.4,359.8z
		 M172.7,419.4c0-9-2.7-16.3-8.1-21.9c-5.4-5.6-12.9-8.4-22.4-8.4c-9,0-16.5,2.9-22.4,8.6c-6,5.7-8.9,13-8.9,21.8
		c0,8.8,2.9,16.1,8.7,21.8c5.8,5.7,13.2,8.6,22.2,8.6c9.3,0,16.8-2.9,22.4-8.6C169.9,435.5,172.7,428.2,172.7,419.4z"/>
	<path d="M450.4,390.4c0,10.4-1.3,21.2-3.8,32.4c-2.5,11.2-7.1,21.6-13.9,31c-6.8,9.4-16.2,17.2-28.2,23.2
		c-12.1,6-27.6,9.1-46.7,9.1s-34.6-3-46.7-9.1c-12.1-6-21.5-13.8-28.2-23.2c-6.8-9.4-11.3-19.7-13.7-31c-2.4-11.2-3.6-22-3.6-32.4
		c0-10.4,1.2-21.2,3.6-32.4c2.4-11.2,7-21.6,13.7-31s16.2-17.1,28.2-23.2c12-6,27.6-9.1,46.7-9.1s34.6,3,46.7,9.1
		c12,6,21.4,13.8,28.2,23.2c6.8,9.4,11.4,19.7,13.9,31C449.1,369.2,450.4,380,450.4,390.4z M386.8,390.4c0-6-0.3-12.5-1-19.4
		c-0.7-6.9-2.1-13.3-4.2-19.2c-2.1-5.9-5-10.8-8.7-14.6c-3.7-3.9-8.7-5.8-15.1-5.8c-6.4,0-11.4,1.9-15.1,5.8
		c-3.7,3.9-6.6,8.8-8.7,14.6c-2.1,5.9-3.5,12.3-4.2,19.2c-0.7,6.9-1,13.4-1,19.4c0,6.2,0.3,12.8,1,19.7c0.7,6.9,2,13.3,4.2,19
		c2.1,5.8,5,10.6,8.7,14.5c3.7,3.9,8.7,5.8,15.1,5.8c6.4,0,11.4-1.9,15.1-5.8c3.7-3.9,6.6-8.7,8.7-14.5c2.1-5.8,3.5-12.1,4.2-19
		C386.5,403.2,386.8,396.6,386.8,390.4z"/>
</g>
</svg>
