<?xml version="1.0" encoding="utf-8"?>
<!-- Generator: Adobe Illustrator 19.2.1, SVG Export Plug-In . SVG Version: 6.00 Build 0)  -->
<svg version="1.1" id="Layer_1" xmlns="http://www.w3.org/2000/svg" xmlns:xlink="http://www.w3.org/1999/xlink" x="0px" y="0px"
	 viewBox="0 0 512 512" style="enable-background:new 0 0 512 512;" xml:space="preserve">
<polygon points="103.7,326 103.7,373.2 56.5,373.2 56.5,326 9.4,326 9.4,485.5 56.5,485.5 56.5,420.3 103.7,420.3 103.7,485.5 
	150.9,485.5 150.9,326 "/>
<path d="M262.2,80.7L240.7,27H130.2l-21.5,53.7H9.4v220.4h352.2V80.7H262.2z M185.5,267.6c-42.4,0-76.8-34.4-76.8-76.8
	c0-42.4,34.4-76.8,76.8-76.8c42.4,0,76.8,34.4,76.8,76.8C262.2,233.3,227.9,267.6,185.5,267.6z"/>
<polygon points="387.1,119.9 387.1,326 201.6,326 201.6,371.6 432.7,371.6 432.7,119.9 "/>
<polygon points="457.1,190.4 457.1,396.4 271.6,396.4 271.6,442 502.6,442 502.6,190.4 "/>
</svg>
