<?xml version="1.0" encoding="utf-8"?>
<!-- Generator: Adobe Illustrator 19.2.1, SVG Export Plug-In . SVG Version: 6.00 Build 0)  -->
<svg version="1.1" id="Layer_1" xmlns="http://www.w3.org/2000/svg" xmlns:xlink="http://www.w3.org/1999/xlink" x="0px" y="0px"
	 viewBox="0 0 512 512" style="enable-background:new 0 0 512 512;" xml:space="preserve">
<g>
	<path d="M460.5,11.3H51.6c-22.2,0-40.3,18.1-40.3,40.3v408.8c0,22.2,18.1,40.3,40.3,40.3h408.8c22.2,0,40.3-18.1,40.4-40.2V51.6
		C500.8,29.4,482.7,11.3,460.5,11.3z M261.5,393.4v-43.6h184.6v43.6H261.5z M20.8,456.6V55.5c0-19.1,15.6-34.6,34.6-34.6h401.1
		c9.5,0,18.2,3.9,24.4,10.1L31,481C24.7,474.8,20.8,466.1,20.8,456.6z"/>
	<polygon points="128.6,230.1 167.4,230.1 167.4,167.4 230.1,167.4 230.1,128.6 167.4,128.6 167.4,65.9 128.6,65.9 128.6,128.6 
		65.9,128.6 65.9,167.4 128.6,167.4 	"/>
</g>
</svg>
