<?xml version="1.0" encoding="utf-8"?>
<!-- Generator: Adobe Illustrator 19.2.1, SVG Export Plug-In . SVG Version: 6.00 Build 0)  -->
<svg version="1.1" id="Layer_1" xmlns="http://www.w3.org/2000/svg" xmlns:xlink="http://www.w3.org/1999/xlink" x="0px" y="0px"
	 viewBox="0 0 512 512" style="enable-background:new 0 0 512 512;" xml:space="preserve">
<path d="M256,0C156,0,75,81,75,181h362C437,81,356,0,256,0z"/>
<g>
	<path d="M86.9,470.2c12,6.9,30.1,12.9,49.1,12.9c23.8,0,37-11.1,37-27.7c0-15.4-10.2-24.4-36.1-33.7c-33.4-12-54.8-29.8-54.8-59
		c0-33.1,27.7-58.4,71.7-58.4c22,0,38.2,4.8,48.8,10.2l-9,29.8c-7.2-3.9-21.4-9.6-40.3-9.6c-23.5,0-33.7,12.6-33.7,24.4
		c0,15.7,11.7,22.9,38.8,33.4c35.2,13.2,52.4,31,52.4,60.2c0,32.5-24.7,60.8-77.1,60.8c-21.4,0-43.7-6-54.8-12.6L86.9,470.2z"/>
	<path d="M219,496.9c0-9.2,6.4-15.9,15.3-15.9c9,0,15.3,6.4,15.3,15.9c0,9-6,15.9-15.3,15.9C225.3,512.8,219,506,219,496.9z"/>
	<path d="M283.5,470.2c12,6.9,30.1,12.9,49.1,12.9c23.8,0,37-11.1,37-27.7c0-15.4-10.2-24.4-36.1-33.7c-33.4-12-54.8-29.8-54.8-59
		c0-33.1,27.7-58.4,71.7-58.4c22,0,38.2,4.8,48.8,10.2l-9,29.8c-7.2-3.9-21.4-9.6-40.3-9.6c-23.5,0-33.7,12.6-33.7,24.4
		c0,15.7,11.7,22.9,38.8,33.4c35.2,13.2,52.4,31,52.4,60.2c0,32.5-24.7,60.8-77.1,60.8c-21.4,0-43.7-6-54.8-12.6L283.5,470.2z"/>
	<path d="M415.6,496.9c0-9.2,6.4-15.9,15.3-15.9c9,0,15.3,6.4,15.3,15.9c0,9-6,15.9-15.3,15.9C421.9,512.8,415.6,506,415.6,496.9z"
		/>
</g>
</svg>
