<?xml version="1.0" encoding="utf-8"?>
<!-- Generator: Adobe Illustrator 20.1.0, SVG Export Plug-In . SVG Version: 6.00 Build 0)  -->
<svg version="1.1" id="Layer_1" xmlns="http://www.w3.org/2000/svg" xmlns:xlink="http://www.w3.org/1999/xlink" x="0px" y="0px"
	 viewBox="0 0 1600 900" style="enable-background:new 0 0 1600 900;" xml:space="preserve">
<style type="text/css">
	.st0{fill:none;stroke:#EAEAEA;stroke-width:0.5;stroke-miterlimit:10;}
	.st1{fill:none;stroke:#EAEAEA;stroke-miterlimit:10;}
	.st2{fill:#3F6DB5;}
	.st3{fill:none;stroke:#3F6DB5;stroke-miterlimit:10;}
</style>
<path class="st0" d="M0,72h1600 M0,204.8h1600 M0,338.2h1600 M0,469.7h1600 M0,603.1h1600 M0,735.9h1600 M0,868.2h1600 M0,5h1600
	 M0,21.6h1600 M0,38.2h1600 M0,54.8h1600 M0,88h1600 M0,121.2h1600 M0,137.8h1600 M0,154.4h1600 M0,171h1600 M0,187.6h1600 M0,237.4
	h1600 M0,253.9h1600 M0,270.5h1600 M0,287.1h1600 M0,303.7h1600 M0,320.3h1600 M0,370.1h1600 M0,386.7h1600 M0,403.3h1600 M0,419.9
	h1600 M0,436.5h1600 M0,453.1h1600 M0,502.9h1600 M0,519.5h1600 M0,536.1h1600 M0,552.7h1600 M0,569.3h1600 M0,585.9h1600 M0,635.6
	h1600 M0,652.2h1600 M0,668.8h1600 M0,685.4h1600 M0,702h1600 M0,718.6h1600 M0,768.4h1600 M0,785h1600 M0,801.6h1600 M0,818.2h1600
	 M0,834.8h1600 M0,851.4h1600 M1589.2,0v900 M1191.3,0v900 M1057.9,0v900 M1456.8,0v900 M1323.5,0v900 M925.8,0v900 M792.4,0v900
	 M660.3,0v900 M526.9,0v900 M394.1,0v900 M260.7,0v900 M129.2,0v900 M12.4,900V0 M29,900V0 M45.6,900V0 M62.2,900V0 M78.8,900V0
	 M112,900V0 M145.2,900V0 M161.8,900V0 M178.4,900V0 M195,900V0 M211.6,900V0 M244.8,900V0 M278,900V0 M294.5,900V0 M311.1,900V0
	 M327.7,900V0 M344.3,900V0 M377.5,900V0 M676.2,900V0 M692.8,900V0 M709.4,900V0 M726,900V0 M742.6,900V0 M775.8,900V0 M809,900V0
	 M825.6,900V0 M842.2,900V0 M858.8,900V0 M875.4,900V0 M908.6,900V0 M410.7,900V0 M427.3,900V0 M443.9,900V0 M460.5,900V0
	 M477.1,900V0 M510.3,900V0 M543.5,900V0 M560.1,900V0 M576.7,900V0 M593.3,900V0 M609.9,900V0 M643.1,900V0 M941.8,900V0
	 M958.4,900V0 M975,900V0 M991.6,900V0 M1008.2,900V0 M1041.3,900V0 M1074.5,900V0 M1091.1,900V0 M1107.7,900V0 M1124.3,900V0
	 M1140.9,900V0 M1174.1,900V0 M1472.8,900V0 M1489.4,900V0 M1506,900V0 M1522.6,900V0 M1539.2,900V0 M1555.8,900V0 M1207.3,900V0
	 M1223.9,900V0 M1240.5,900V0 M1257.1,900V0 M1273.7,900V0 M1306.9,900V0 M1340.1,900V0 M1356.7,900V0 M1373.3,900V0 M1389.9,900V0
	 M1406.5,900V0 M1423,900V0"/>
<path class="st1" d="M0,104.6h1600 M0,220.8h1600 M0,353.5h1600 M0,486.3h1600 M0,619.1h1600 M0,751.8h1600 M0,884.6h1600 M95.4,900
	V0 M228.2,900V0 M360.9,900V0 M759.2,900V0 M892,900V0 M493.7,900V0 M626.5,900V0 M1024.8,900V0 M1157.5,900V0 M1572.4,900V0
	 M1290.3,900V0 M1439.6,900V0"/>
<path d="M1038.5,437h-180v13c54,0,63,23.8,63,45v135c0,18-30.5,36-92.7,36C721.9,666,630,569.3,630,450s55.1-225,162-225
	c90,0,160.5,54,178.5,117h13l-5-144h-17c-6.3,20.2-18,36-57,21.6C872.8,208,826.8,198,791,198c-161,0-242,112.8-242,252
	s107.7,246,252,246c66.3,0,114.6-3,183.9-42.9c7.7-4.4,8.6-7,8.6-11.3V495c0-27,9-45,45-45l0,0V437z"/>
<rect x="900.2" y="215.5" class="st2" width="8.5" height="8.5"/>
<rect x="957.3" y="193.8" class="st2" width="8.5" height="8.5"/>
<rect x="974.3" y="193.8" class="st2" width="8.5" height="8.5"/>
<rect x="979.3" y="337.8" class="st2" width="8.5" height="8.5"/>
<rect x="787.8" y="220.8" class="st2" width="8.5" height="8.5"/>
<rect x="824.3" y="662" class="st2" width="8.5" height="8.5"/>
<rect x="796.6" y="691.8" class="st2" width="8.5" height="8.5"/>
<rect x="980.7" y="648.8" class="st2" width="8.5" height="8.5"/>
<rect x="989.3" y="637.5" class="st2" width="8.5" height="8.5"/>
<rect x="917.3" y="625.8" class="st2" width="8.5" height="8.5"/>
<rect x="854.3" y="432.8" class="st2" width="8.5" height="8.5"/>
<rect x="854.3" y="445.8" class="st2" width="8.5" height="8.5"/>
<rect x="625.8" y="445.8" class="st2" width="8.5" height="8.5"/>
<rect x="544.8" y="445.8" class="st2" width="8.5" height="8.5"/>
<rect x="917.3" y="490.8" class="st2" width="8.5" height="8.5"/>
<rect x="989.3" y="490.8" class="st2" width="8.5" height="8.5"/>
<rect x="1034.3" y="445.8" class="st2" width="8.5" height="8.5"/>
<rect x="1034.3" y="432.8" class="st2" width="8.5" height="8.5"/>
<rect x="786.7" y="193.8" class="st2" width="8.5" height="8.5"/>
<rect x="965.7" y="337.8" class="st2" width="8.5" height="8.5"/>
<circle class="st2" cx="828.5" cy="198" r="2.8"/>
<circle class="st2" cx="882.2" cy="225" r="2.8"/>
<circle class="st2" cx="685.2" cy="225" r="2.8"/>
<circle class="st2" cx="873" cy="208.2" r="2.8"/>
<circle class="st2" cx="943.6" cy="234.3" r="2.8"/>
<circle class="st2" cx="955.1" cy="218.3" r="2.8"/>
<circle class="st2" cx="952.4" cy="279.2" r="2.8"/>
<circle class="st2" cx="912.7" cy="450" r="2.8"/>
<circle class="st2" cx="1002.7" cy="450" r="2.8"/>
<circle class="st2" cx="993.6" cy="467.7" r="2.8"/>
<circle class="st2" cx="631.1" cy="198" r="2.8"/>
<circle class="st2" cx="549" cy="310.5" r="2.8"/>
<circle class="st2" cx="549" cy="589" r="2.8"/>
<line class="st3" x1="631.1" y1="198" x2="827" y2="198"/>
<line class="st3" x1="873" y1="208.2" x2="943.6" y2="234.3"/>
<line class="st3" x1="882.2" y1="225" x2="685.2" y2="225"/>
<line class="st3" x1="961.5" y1="198" x2="955.1" y2="218.3"/>
<line class="st3" x1="952.4" y1="279.2" x2="970.5" y2="342"/>
<line class="st3" x1="912.7" y1="450" x2="858.5" y2="450"/>
<line class="st3" x1="1038.5" y1="450" x2="1002.7" y2="450"/>
<line class="st3" x1="993.5" y1="495" x2="993.5" y2="467.7"/>
<circle class="st2" cx="921.5" cy="648.3" r="2.8"/>
<circle class="st2" cx="869.7" cy="666.2" r="2.8"/>
<circle class="st2" cx="867.2" cy="695.9" r="2.8"/>
<circle class="st2" cx="656.5" cy="695.9" r="2.8"/>
<circle class="st2" cx="722.5" cy="666.2" r="2.8"/>
<circle class="st2" cx="993.6" cy="645.8" r="2.8"/>
<circle class="st2" cx="992.7" cy="648.7" r="2.8"/>
<circle class="st2" cx="915.5" cy="693.1" r="2.8"/>
<line class="st3" x1="921.4" y1="495" x2="921.4" y2="473.5"/>
<line class="st3" x1="921.5" y1="630" x2="921.5" y2="648.3"/>
<line class="st3" x1="915.5" y1="693.1" x2="992.7" y2="648.7"/>
<line class="st3" x1="869.7" y1="666.2" x2="722.5" y2="666.2"/>
<line class="st3" x1="656.5" y1="695.9" x2="867.2" y2="695.9"/>
<line class="st3" x1="549" y1="310.5" x2="549" y2="589"/>
<circle class="st2" cx="630.2" cy="330.8" r="2.8"/>
<circle class="st2" cx="630.2" cy="568.5" r="2.8"/>
<line class="st3" x1="630.2" y1="330.8" x2="630.2" y2="568.5"/>
</svg>
