<?xml version="1.0" encoding="utf-8"?>
<!-- Generator: Adobe Illustrator 19.2.1, SVG Export Plug-In . SVG Version: 6.00 Build 0)  -->
<svg version="1.1" id="Layer_1" xmlns="http://www.w3.org/2000/svg" xmlns:xlink="http://www.w3.org/1999/xlink" x="0px" y="0px"
	 viewBox="0 0 6579.8 6663.9" style="enable-background:new 0 0 6579.8 6663.9;" xml:space="preserve">
<style type="text/css">
	.st0{fill:#FBFBFB;}
</style>
<path class="st0" d="M498.9,3082.2l-208.8-208.9l208.8-208.9c9.8-9.8,9.8-25.6,0-35.4c-9.8-9.8-25.6-9.8-35.4,0l-208.8,208.9
	L45.8,2629.1c-9.7-9.8-25.6-9.8-35.3,0c-9.8,9.7-9.8,25.6,0,35.3l208.8,208.9L10.5,3082.2c-9.8,9.8-9.8,25.6,0,35.4
	c4.9,4.9,11.3,7.3,17.7,7.3s12.8-2.4,17.7-7.3l208.8-208.9l208.9,208.9c4.9,4.9,11.3,7.3,17.7,7.3s12.8-2.4,17.7-7.3
	C508.7,3107.8,508.7,3091.9,498.9,3082.2z"/>
<g>
	<path class="st0" d="M2860.1,3487.8c-141.1,0-255.4,114.3-255.4,255.4c0,141.1,114.3,255.4,255.4,255.4s255.4-114.3,255.4-255.4
		S3001.2,3487.8,2860.1,3487.8z M3005.4,3888.5c-38.8,38.8-90.4,60.2-145.3,60.2s-106.5-21.4-145.3-60.2s-60.1-90.4-60.1-145.3
		c0-54.9,21.4-106.5,60.2-145.3s90.4-60.2,145.3-60.2c54.9,0,106.5,21.4,145.3,60.2s60.2,90.4,60.2,145.3
		C3065.5,3798.1,3044.2,3849.7,3005.4,3888.5z"/>
	<path class="st0" d="M2956.3,3661.6l-134.2,134.2l-67.8-67.8c-9.8-9.8-25.6-9.8-35.4,0s-9.8,25.6,0,35.4l85.5,85.5
		c4.9,4.9,11.3,7.3,17.7,7.3s12.7-2.4,17.6-7.3l152-151.9c9.8-9.8,9.8-25.6,0-35.4C2981.9,3651.8,2966.1,3651.8,2956.3,3661.6z"/>
</g>
<g>
	<path class="st0" d="M6528.9,5606.6h-52.8v-52.8c0-13.7-11.1-24.9-24.9-24.9c-13.7,0-24.9,11.1-24.9,24.9v52.8h-52.8
		c-13.7,0-24.9,11.1-24.9,24.9c0,13.7,11.1,24.9,24.9,24.9h52.8v52.8c0,13.7,11.1,24.9,24.9,24.9c13.7,0,24.9-11.1,24.9-24.9v-52.8
		h52.8c13.7,0,24.9-11.1,24.9-24.9C6553.8,5617.8,6542.7,5606.6,6528.9,5606.6z"/>
	<path class="st0" d="M6528.9,5307.2h-57.3v-59.5c0-13.7-11.1-24.9-24.9-24.9c-13.7,0-24.9,11.1-24.9,24.9v59.5h-248.1v-59.5
		c0-13.7-11.1-24.9-24.9-24.9c-13.7,0-24.9,11.1-24.9,24.9v59.5h-57.2c-13.8,0-24.9,11.1-24.9,24.8v376.1
		c0,13.8,11.1,24.9,24.9,24.9h119.4c13.7,0,24.9-11.1,24.9-24.9c0-13.7-11.1-24.9-24.9-24.9h-94.6v-190.7h437.4
		c13.7,0,24.9-11.1,24.9-24.9V5332C6553.8,5318.3,6542.7,5307.2,6528.9,5307.2z M6504.1,5442.8h-412.6v-86h412.6V5442.8z"/>
</g>
<g>
	<path class="st0" d="M980.7,5374.8c0,26.4,21.5,47.8,47.8,47.8c26.4,0,47.8-21.5,47.8-47.8c0-26.4-21.5-47.8-47.8-47.8
		C1002.2,5327,980.7,5348.5,980.7,5374.8z"/>
	<path class="st0" d="M1206.8,5350h53.1v53.1c0,13.8,11.2,25,25,25s25-11.2,25-25V5350h53.1c13.8,0,25-11.2,25-25s-11.2-25-25-25
		h-53.1v-53.1c0-13.8-11.2-25-25-25s-25,11.2-25,25v53.1h-53.1c-13.8,0-25,11.2-25,25S1193,5350,1206.8,5350z"/>
	<path class="st0" d="M1363,5478.2c-69.9,0-136.4,21.9-192.5,63.2c-19.6,14.4-37.4,30.9-53.2,49.2
		c-42.7-65.4-113.6-106.9-191.6-111.9v-206.8h95.3c13.8,0,25-11.2,25-25s-11.2-25-25-25H900.7c-13.8,0-25,11.2-25,25v462.8
		c0,13.8,11.2,25,25,25h177.2c0.1,0,0.1,0,0.2,0s0.1,0,0.2,0h284.8c13.8,0,25-11.2,25-25v-205.2c0-0.4,0-0.9,0-1.3
		C1388,5489.4,1376.8,5478.2,1363,5478.2z M1060.5,5684.7H925.7v-155.9c66.3,5.3,125.9,43.7,158,102.9c0.5,0.9,1.1,1.8,1.7,2.7
		C1075.6,5650.4,1067.3,5667.3,1060.5,5684.7z M1338,5684.7h-223.1c19.3-40.7,48.4-75.9,85.3-103.1c40.7-30,87.9-47.8,137.8-52.3
		L1338,5684.7L1338,5684.7z"/>
</g>
<g>
	<path class="st0" d="M5485.9,1172.7c-0.5-0.2-1.1-0.3-1.6-0.5c8.9-12.8,13.7-25.3,16.1-33.1c6.2-7.1,15.2-19.6,17.7-35.3
		c3.1-19.8-2-32.9-6.9-40.5c-0.8-1.2-1.6-2.4-2.4-3.4c-1.1-23.8-4.5-50-30.2-74.9c-27.5-26.6-63.2-29.2-77.7-29
		c-14.5-0.2-50.2,2.4-77.7,29c-25.8,25-29.1,51.1-30.2,74.9c-0.8,1-1.6,2.2-2.4,3.4c-4.9,7.6-10,20.8-6.9,40.5
		c2.5,15.7,11.4,28.2,17.7,35.3c2.4,7.9,7.2,20.4,16.1,33.1c-0.5,0.2-1.1,0.3-1.6,0.5c-24,7.3-44.7,13.7-72.8,40.6
		c-32,30.7-32.5,70.3-32.3,77.3v20.6c0,13.8,11.2,25,25,25h330.3c13.8,0,25-11.2,25-25v-18.5c0-0.4,0.1-0.9,0.1-1.4
		c0-4.6,0.7-46.1-32.5-78C5530.6,1186.3,5509.9,1180.1,5485.9,1172.7z M5260.8,1286.2c0.6-7,3.4-24,16.8-36.8
		c19.5-18.7,31.3-22.3,52.8-28.9c4.1-1.2,8.3-2.5,12.8-4c13.8-4.5,25.5-13,33.8-24.7c8-11.2,5.4-26.8-5.7-34.8
		c-17.4-12.5-22.7-34-23.1-35.6c-1-5.5-3.5-9.8-7.7-13.5c-2.8-2.7-6.9-8.2-7.5-11.8c-0.4-2.4-0.4-4-0.3-5c5.9-4.5,9.6-11.4,9.8-19
		l0.1-2.7c0.9-24.7,1.8-35.3,15.3-48.4c15.1-14.6,38.1-15,42.6-15c0.3,0,0.5,0,0.8,0c4.4-0.1,27.5,0.3,42.6,15
		c13.6,13.1,14.5,23.7,15.3,48.4l0.1,2.7c0.3,7.6,4,14.5,9.8,19c0.1,1,0.1,2.6-0.3,5c-0.6,3.7-4.7,9.2-7.5,11.8
		c-4.2,3.6-6.7,8.2-7.8,13.6c0,0.2-5.3,22.7-23.1,35.5c-11.2,8-13.7,23.6-5.7,34.8c8.3,11.7,20,20.3,33.8,24.7
		c4.6,1.5,8.8,2.8,12.8,4c21.5,6.6,33.3,10.2,52.8,28.9c13.4,12.8,16.2,29.8,16.8,36.8H5260.8z"/>
	<path class="st0" d="M5698.6,901.3h-52.2v-52.2c0-13.8-11.2-25-25-25s-25,11.2-25,25v52.2h-52.2c-13.8,0-25,11.2-25,25
		s11.2,25,25,25h52.2v52.2c0,13.8,11.2,25,25,25s25-11.2,25-25v-52.2h52.2c13.8,0,25-11.2,25-25
		C5723.6,912.6,5712.4,901.3,5698.6,901.3z"/>
</g>
<g>
	<path class="st0" d="M4819.3,5562.8c-13.8,0-25,11.2-25,25v97.1H4384V5272h95.3c13.8,0,25-11.2,25-25s-11.2-25-25-25H4359
		c-13.8,0-25,11.2-25,25v462.8c0,13.8,11.2,25,25,25h460.3c13.8,0,25-11.2,25-25v-122C4844.3,5574,4833.1,5562.8,4819.3,5562.8z"/>
	<path class="st0" d="M4440.4,5495.4c0,13.8,11.2,25,25,25h78.2c13.8,0,25-11.2,25-25s-11.2-25-25-25h-78.2
		C4451.6,5470.4,4440.4,5481.6,4440.4,5495.4z"/>
	<path class="st0" d="M4440.4,5602c0,13.8,11.2,25,25,25h156.4c13.8,0,25-11.2,25-25s-11.2-25-25-25h-156.4
		C4451.6,5577,4440.4,5588.2,4440.4,5602z"/>
	<path class="st0" d="M4664.9,5352.2h53.1v53.1c0,13.8,11.2,25,25,25s25-11.2,25-25v-53.1h53.1c13.8,0,25-11.2,25-25s-11.2-25-25-25
		H4768V5249c0-13.8-11.2-25-25-25s-25,11.2-25,25v53.2h-53.1c-13.8,0-25,11.2-25,25S4651.1,5352.2,4664.9,5352.2z"/>
</g>
<g>
	<path class="st0" d="M3091.2,5530.3c-13.8,0-25,11.2-25,25v13.3h-70.5v-13.3c0-13.8-11.2-25-25-25s-25,11.2-25,25v38.3v91.2h-169.5
		l-1.7-438c-0.1-13.8-11.2-24.9-25-24.9h-120.3c-13.8,0-25,11.2-25,25v462.8c0,13.8,11.2,25,25,25h462c13.8,0,25-11.2,25-25v-154.4
		C3116.2,5541.5,3105,5530.3,3091.2,5530.3z M2654.2,5271.9h70.4l0.3,64.5h-70.7V5271.9z M2654.2,5386.4h70.8l0.3,66.1h-71.1V5386.4
		z M2654.2,5502.5h71.3l0.3,66.1h-71.6V5502.5z M2654.2,5684.7v-66.2h71.7l0.3,66.2H2654.2z M3066.2,5684.7h-70.5v-66.2h70.5V5684.7
		z"/>
	<path class="st0" d="M2935,5350h53.1v53.1c0,13.8,11.2,25,25,25s25-11.2,25-25V5350h53.1c13.8,0,25-11.2,25-25s-11.2-25-25-25
		h-53.1v-53.1c0-13.8-11.2-25-25-25s-25,11.2-25,25v53.1H2935c-13.8,0-25,11.2-25,25S2921.2,5350,2935,5350z"/>
</g>
<g>
	<path class="st0" d="M272.3,3487.8c-141.1,0-255.4,114.3-255.4,255.4c0,141.1,114.3,255.4,255.4,255.4s255.4-114.3,255.4-255.4
		C527.7,3602.1,413.4,3487.8,272.3,3487.8z M417.6,3888.5c-38.8,38.8-90.4,60.2-145.3,60.2s-106.5-21.4-145.3-60.2
		s-60.1-90.4-60.1-145.3c0-54.9,21.4-106.5,60.2-145.3s90.4-60.2,145.3-60.2s106.5,21.4,145.3,60.2s60.2,90.4,60.2,145.3
		C477.7,3798.1,456.4,3849.7,417.6,3888.5z"/>
	<path class="st0" d="M361.7,3716.6h-65v-65c0-13.8-11.2-25-25-25s-25,11.2-25,25v65h-65c-13.8,0-25,11.2-25,25s11.2,25,25,25h65v65
		c0,13.8,11.2,25,25,25s25-11.2,25-25v-65h65c13.8,0,25-11.2,25-25S375.6,3716.6,361.7,3716.6z"/>
</g>
<path class="st0" d="M2231.1,2740.6c-9.8-9.8-25.6-9.8-35.4,0L1983.4,2953L1771,2740.6c-9.8-9.8-25.6-9.8-35.4,0s-9.8,25.6,0,35.4
	l230.1,230c4.9,4.9,11.3,7.3,17.7,7.3c6.4,0,12.8-2.4,17.7-7.3l230-230C2240.8,2766.2,2240.8,2750.4,2231.1,2740.6z"/>
<path class="st0" d="M3015.4,3121c9.8-9.8,9.8-25.6,0-35.4L2803,2873.3l212.4-212.4c9.8-9.8,9.8-25.6,0-35.4s-25.6-9.8-35.4,0
	l-230,230.1c-4.9,4.9-7.3,11.3-7.3,17.7s2.4,12.8,7.3,17.7l230,230C2989.8,3130.8,3005.6,3130.8,3015.4,3121z"/>
<path class="st0" d="M3577.9,2625.5c-9.8,9.8-9.8,25.6,0,35.4l212.4,212.3l-212.4,212.4c-9.8,9.8-9.8,25.6,0,35.4
	c9.8,9.8,25.6,9.8,35.4,0l230-230.1c4.9-4.9,7.3-11.3,7.3-17.7s-2.4-12.8-7.3-17.7l-230-230
	C3603.5,2615.7,3587.7,2615.7,3577.9,2625.5z"/>
<path class="st0" d="M884.4,3005.9c9.8,9.8,25.6,9.8,35.4,0l212.3-212.4l212.4,212.4c9.8,9.8,25.6,9.8,35.4,0s9.8-25.6,0-35.4
	l-230.1-230c-4.9-4.9-11.3-7.3-17.7-7.3c-6.4,0-12.8,2.4-17.7,7.3l-230,230C874.6,2980.3,874.6,2996.2,884.4,3005.9z"/>
<path class="st0" d="M3946.1,2138.1c-18-24.1-43.3-67.5-43.3-88.4c0-0.1,0-0.2,0-0.3l-0.8-63.3c0-40-12.9-77.9-37.3-109.8
	c-20.3-26.5-47.7-47.1-78.4-59.3c-7.8-27.3-32.9-47.4-62.7-47.4c-0.1,0-0.2,0-0.3,0c-16.5,0-32.2,6.2-44.3,17.4
	c-8.8,8.2-15.1,18.5-18.4,29.9c-30.8,12.1-58.3,32.8-78.6,59.3c-24.3,31.9-37.2,69.8-37.3,109.8l-0.8,63.3c0,0.1,0,0.2,0,0.3
	c0,21-25.3,64.4-43.3,88.4c-3.2,4.3-5,9.6-5,15v41.6c0,13.8,11.2,25,25,25h156.9v15.1c0,25.1,20.5,45.5,45.5,45.5
	s45.5-20.5,45.5-45.5v-15.1H3926c13.8,0,25-11.2,25-25V2153C3951,2147.7,3949.3,2142.4,3946.1,2138.1z M3901,2169.7h-355.4v-8.6
	c4.9-7,12.9-18.9,20.8-32.7c18.4-32.1,27.4-57.8,27.5-78.6l0.8-63.3c0-0.1,0-0.2,0-0.3c0-58.2,39.1-110.2,95.2-126.6
	c10.7-3.1,18.1-13,18-24.1c0.1-0.6,0.2-1.3,0.2-1.9c0.6-7.7,7.1-13.8,14.8-14c0.2,0,0.3,0,0.5,0c0.3,0,0.5,0,0.8,0
	c7.9,0.3,14.4,6.7,14.6,14.6c0,0.3,0,0.6,0,0.8c-0.2,11.3,7.1,21.4,18,24.5c56,16.4,95.2,68.4,95.2,126.6c0,0.1,0,0.2,0,0.3
	l0.8,63.3c0.1,20.8,9,46.5,27.5,78.6c8,13.8,15.9,25.7,20.8,32.7L3901,2169.7L3901,2169.7z"/>
<path class="st0" d="M3941.5,6307.4h-97.9v-77.6c0-13.9-11.2-25.1-25.1-25.1h-215.7c-13.9,0-25.1,11.2-25.1,25.1v77.6h-98
	c-13.9,0-25.1,11.2-25.1,25.1v227.6c0,13.9,11.2,25.1,25.1,25.1h461.8c13.9,0,25.1-11.2,25.1-25.1v-227.6
	C3966.6,6318.6,3955.4,6307.4,3941.5,6307.4z M3627.9,6254.9h165.5v52.5h-165.5V6254.9z M3916.4,6535h-411.6v-177.4h411.6V6535
	L3916.4,6535z"/>
<path class="st0" d="M5683.1,5307.6h-55.3v-59.9c0-13.8-11.2-25-25-25s-25,11.2-25,25v60h-248.3v-60c0-13.8-11.2-25-25-25
	s-25,11.2-25,25v60h-58.4c-13.8,0-25,11.2-25,25v376.2c0,13.8,11.2,25,25,25h462c13.8,0,25-11.2,25-25v-376.3
	C5708.1,5318.8,5696.9,5307.6,5683.1,5307.6z M5658.2,5357.6v84.3H5246v-84.3H5658.2z M5246,5683.9v-192h412.1v192H5246z"/>
<g>
	<path class="st0" d="M501.8,6150.2H41.2c-13.8,0-25,11.2-25,25v460.7c0,13.8,11.2,25,25,25h460.7c13.8,0,25-11.2,25-25v-460.7
		C526.8,6161.4,515.6,6150.2,501.8,6150.2z M476.9,6610.8h-0.1H66.2v-410.6h410.7L476.9,6610.8L476.9,6610.8z"/>
	<path class="st0" d="M408.4,6295.6c15,0,27.2-12.2,27.2-27.2s-12.2-27.2-27.2-27.2s-27.2,12.3-27.2,27.3S393.4,6295.6,408.4,6295.6
		z"/>
	<path class="st0" d="M270.8,6562.8c78.1,0,141.4-63.3,141.4-141.4S348.9,6280,270.8,6280s-141.4,63.4-141.4,141.5
		S192.7,6562.8,270.8,6562.8z M270.8,6330.1c50.4,0,91.4,41,91.4,91.4s-41,91.4-91.4,91.4s-91.4-41-91.4-91.4
		S220.4,6330.1,270.8,6330.1z"/>
</g>
<g>
	<path class="st0" d="M1376.5,6259.6c-7-4.6-15.8-5.4-23.6-2.2l-116.8,49.6v-67.2c0-13.8-11.2-25-25-25H901c-13.8,0-25,11.2-25,25
		v335.3c0,13.8,11.2,25,25,25h310.2c13.8,0,25-11.2,25-25v-55.7L1353,6569c3.1,1.3,6.5,2,9.8,2c4.8,0,9.6-1.4,13.8-4.2
		c7-4.6,11.2-12.5,11.2-20.8v-265.6C1387.7,6272,1383.5,6264.2,1376.5,6259.6z M1186.2,6550.1H926v-285.3h260.2V6550.1z
		 M1337.7,6508.2l-101.5-43.1v-103.8l101.5-43.1V6508.2z"/>
	<path class="st0" d="M1012.7,6375.2c15,0,27.2-12.2,27.2-27.2s-12.2-27.2-27.2-27.2c-15,0-27.2,12.2-27.2,27.2
		S997.7,6375.2,1012.7,6375.2z"/>
</g>
<g>
	<path class="st0" d="M3890.6,4435.5c-48.1-48.1-112-74.5-180-74.5s-131.9,26.4-180,74.5s-74.6,112-74.6,180
		c0,41.3,10.1,82,29.2,118.4l-28.3,105.9c-2.3,8.6,0.2,17.8,6.5,24.1c4.8,4.8,11.1,7.3,17.7,7.3c2.2,0,4.3-0.3,6.5-0.9l106.6-28.6
		c35.9,18.5,75.9,28.2,116.4,28.2c68,0,131.9-26.5,180-74.6s74.6-112,74.6-180S3938.7,4483.6,3890.6,4435.5z M3710.6,4820
		c-35.4,0-70.3-9.2-100.9-26.7c-3.8-2.2-8.1-3.3-12.4-3.3c-2.2,0-4.3,0.3-6.5,0.9l-74.4,19.9l19.8-73.7c1.7-6.4,0.8-13.3-2.5-19
		c-18.1-31.1-27.6-66.6-27.6-102.6c0-112.8,91.8-204.5,204.5-204.5s204.5,91.8,204.5,204.5C3915.1,4728.2,3823.4,4820,3710.6,4820z"
		/>
	<polygon class="st0" points="3729.3,4548.2 3694.4,4548.2 3661.6,4548.2 3594.4,4548.2 3594.4,4581 3661.6,4581 3661.6,4714.2 
		3694.4,4714.2 3694.4,4581 3729.3,4581 3729.3,4714.2 3762.2,4714.2 3762.2,4581 3827.1,4581 3827.1,4548.2 3762.2,4548.2 	"/>
</g>
<g>
	<circle class="st0" cx="2940.3" cy="4646.7" r="24.8"/>
	<path class="st0" d="M2861.3,4621.9c-13.7,0-24.8,11.1-24.8,24.8c0,13.7,11.1,24.8,24.8,24.8s24.8-11.1,24.8-24.8
		S2874.9,4621.9,2861.3,4621.9z"/>
	<circle class="st0" cx="2782.2" cy="4646.7" r="24.8"/>
	<path class="st0" d="M3007.2,4353.8c-20.6,0-40.5,4.2-59.2,12.6c-12.6,5.6-18.3,20.4-12.6,33c5.6,12.6,20.4,18.3,33,12.6
		c12.2-5.5,25.3-8.2,38.8-8.2c52.5,0,95.2,42.7,95.2,95.2c0,15.8-4,31.5-11.4,45.3c-6.6,12.1-2.1,27.3,10.1,33.9
		c3.8,2.1,7.9,3,11.9,3c8.9,0,17.5-4.7,22-13.1c11.4-21.1,17.5-45,17.5-69.1C3152.4,4418.9,3087.3,4353.8,3007.2,4353.8z"/>
	<path class="st0" d="M2860.5,4427.6c-58.5,0-113.5,22.8-154.9,64.2c-41.4,41.3-64.2,96.3-64.2,154.8c0,35,8.4,69.6,24.5,100.5
		l-23.7,88.2c-2.3,8.6,0.2,17.8,6.5,24.1c4.8,4.8,11.1,7.3,17.7,7.3c2.2,0,4.3-0.3,6.5-0.9l88.7-23.8c30.6,15.5,64.5,23.6,98.9,23.6
		c58.5,0,113.5-22.8,154.9-64.2s64.2-96.4,64.2-154.9s-22.8-113.5-64.2-154.9C2974,4450.4,2919,4427.6,2860.5,4427.6z
		 M2860.5,4815.7c-29.2,0-58.1-7.6-83.4-22c-3.8-2.2-8.1-3.3-12.4-3.3c-2.2,0-4.3,0.3-6.5,0.9l-56.5,15.1l15-55.9
		c1.7-6.4,0.8-13.3-2.5-19c-14.9-25.7-22.8-55-22.8-84.8c0-93.2,75.8-169.1,169.1-169.1s169,75.8,169,169
		C3029.5,4739.8,2953.7,4815.7,2860.5,4815.7z"/>
</g>
<g>
	<path class="st0" d="M2163.4,4436c-48.1-48.2-112.1-74.7-180.1-74.7s-132,26.5-180.1,74.6s-74.6,112.1-74.6,180.2
		c0,41.3,10.1,82,29.2,118.5l-28.4,106c-2.3,8.6,0.2,17.8,6.5,24.1c4.8,4.8,11.1,7.3,17.7,7.3c2.2,0,4.3-0.3,6.5-0.9l106.7-28.6
		c35.9,18.5,76,28.2,116.5,28.2c68,0,132-26.5,180.1-74.6S2238,4684,2238,4616S2211.5,4484.1,2163.4,4436z M1983.3,4820.8
		c-35.4,0-70.3-9.2-101-26.7c-3.8-2.2-8.1-3.3-12.4-3.3c-2.2,0-4.3,0.3-6.5,0.9l-74.5,20l19.8-73.9c1.7-6.4,0.8-13.3-2.5-19
		c-18.1-31.2-27.6-66.7-27.6-102.7c0-112.9,91.8-204.7,204.7-204.7s204.7,91.8,204.7,204.7C2188,4728.9,2096.2,4820.8,1983.3,4820.8
		z"/>
	<path class="st0" d="M1890.8,4589.5c-15,0-27.2,12.2-27.2,27.2s12.2,27.2,27.2,27.2s27.2-12.2,27.2-27.2
		C1917.9,4601.7,1905.8,4589.5,1890.8,4589.5z"/>
	<path class="st0" d="M1983.3,4589.5c-15,0-27.2,12.2-27.2,27.2s12.2,27.2,27.2,27.2s27.2-12.2,27.2-27.2
		C2010.4,4601.7,1998.3,4589.5,1983.3,4589.5z"/>
	<path class="st0" d="M2075.8,4589.5c-15,0-27.2,12.2-27.2,27.2s12.2,27.2,27.2,27.2s27.2-12.2,27.2-27.2
		C2102.9,4601.7,2090.7,4589.5,2075.8,4589.5z"/>
</g>
<path class="st0" d="M6551.4,2681c-10.7-8.8-26.4-7.3-35.2,3.4l-268.5,326l-156.5-137.3c-10.4-9.1-26.2-8.1-35.3,2.3
	c-9.1,10.4-8.1,26.2,2.3,35.3l175.9,154.2c0,0,0.1,0.1,0.2,0.1c0.1,0.1,0.3,0.3,0.4,0.4c0.2,0.2,0.4,0.3,0.6,0.5
	c0.3,0.2,0.6,0.5,0.9,0.7s0.6,0.4,1,0.6c0.3,0.2,0.6,0.4,0.9,0.6c0.3,0.2,0.7,0.4,1,0.5c0.3,0.2,0.6,0.3,0.9,0.5
	c0.4,0.2,0.7,0.3,1.1,0.5c0.3,0.1,0.6,0.3,0.9,0.4c0.4,0.1,0.8,0.3,1.2,0.4c0.3,0.1,0.5,0.2,0.8,0.3c0.5,0.1,0.9,0.2,1.4,0.3
	c0.2,0,0.5,0.1,0.7,0.2c0.6,0.1,1.1,0.2,1.7,0.2c0.2,0,0.3,0,0.5,0.1c0.7,0.1,1.4,0.1,2.2,0.1c0.3,0,0.6,0,0.9,0c0.2,0,0.3,0,0.5,0
	s0.4,0,0.6-0.1c0.2,0,0.5,0,0.7-0.1c0.2,0,0.4-0.1,0.6-0.1s0.5-0.1,0.7-0.1s0.4-0.1,0.6-0.1c0.3,0,0.5-0.1,0.8-0.1
	c0.2,0,0.4-0.1,0.5-0.1c0.3-0.1,0.5-0.1,0.8-0.2c0.2,0,0.3-0.1,0.5-0.2c0.3-0.1,0.5-0.1,0.8-0.2c0.2-0.1,0.3-0.1,0.5-0.2
	c0.2-0.1,0.5-0.2,0.7-0.3s0.3-0.1,0.5-0.2c0.2-0.1,0.5-0.2,0.7-0.3s0.4-0.2,0.5-0.3c0.2-0.1,0.5-0.2,0.7-0.3s0.4-0.2,0.5-0.3
	c0.2-0.1,0.4-0.2,0.6-0.4c0.2-0.1,0.4-0.2,0.6-0.3s0.4-0.3,0.6-0.4c0.2-0.1,0.4-0.3,0.6-0.4c0.2-0.1,0.4-0.3,0.6-0.4
	s0.4-0.3,0.6-0.4c0.2-0.1,0.3-0.3,0.5-0.4c0.2-0.2,0.4-0.3,0.5-0.5c0.2-0.1,0.3-0.3,0.5-0.5s0.4-0.3,0.5-0.5
	c0.2-0.2,0.3-0.3,0.5-0.5s0.3-0.3,0.5-0.5c0.1-0.1,0.2-0.2,0.2-0.2c0.1-0.1,0.2-0.2,0.3-0.3c0.1-0.1,0.2-0.2,0.2-0.3l284.9-345.9
	C6563.5,2705.5,6562,2689.7,6551.4,2681z"/>
<g>
	<path class="st0" d="M6305.1,3487.2c-141.4,0-256,114.6-256,256s114.6,256,256,256s256-114.6,256-256S6446.5,3487.2,6305.1,3487.2z
		 M6450.8,3888.9c-38.9,38.9-90.7,60.3-145.7,60.3s-106.8-21.4-145.7-60.3c-38.9-38.9-60.3-90.7-60.3-145.7s21.4-106.8,60.3-145.7
		s90.7-60.3,145.7-60.3s106.8,21.4,145.7,60.3c38.9,38.9,60.3,90.7,60.3,145.7S6489.7,3850,6450.8,3888.9z"/>
	<path class="st0" d="M6304.9,3569.6c-13.8,0-25,11.2-25,25v137.8l-60.4,56.6c-10.1,9.4-10.6,25.3-1.1,35.3
		c4.9,5.3,11.6,7.9,18.2,7.9c6.1,0,12.3-2.2,17.1-6.8l68.3-64c0.1-0.1,0.2-0.2,0.3-0.2c0.2-0.2,0.3-0.3,0.5-0.5
		c0.1-0.1,0.3-0.3,0.4-0.4s0.3-0.3,0.4-0.4c0.3-0.2,0.5-0.4,0.6-0.6c0.1-0.1,0.2-0.3,0.3-0.4c0.2-0.2,0.3-0.4,0.5-0.6
		c0.1-0.1,0.2-0.2,0.3-0.4c0.2-0.2,0.3-0.4,0.5-0.6c0.1-0.1,0.2-0.2,0.2-0.3c0.1-0.2,0.3-0.4,0.4-0.7c0.1-0.1,0.1-0.2,0.2-0.4
		s0.3-0.4,0.4-0.7c0.1-0.1,0.1-0.3,0.2-0.4c0.1-0.2,0.2-0.4,0.3-0.6c0.1-0.2,0.2-0.3,0.2-0.5c0.1-0.2,0.2-0.4,0.3-0.6
		c0.1-0.2,0.2-0.4,0.2-0.6c0.1-0.2,0.1-0.3,0.2-0.5s0.2-0.5,0.2-0.7c0-0.1,0.1-0.3,0.1-0.4c0.1-0.3,0.2-0.5,0.2-0.8
		c0-0.1,0.1-0.3,0.1-0.4c0.1-0.3,0.1-0.5,0.2-0.8c0-0.1,0.1-0.3,0.1-0.4c0.1-0.3,0.1-0.5,0.2-0.8c0-0.1,0.1-0.3,0.1-0.4
		c0-0.3,0.1-0.5,0.1-0.8c0-0.2,0-0.3,0.1-0.5c0-0.2,0.1-0.5,0.1-0.7s0-0.4,0-0.6c0-0.2,0-0.4,0-0.6c0-0.2,0-0.4,0-0.7
		c0-0.1,0-0.3,0-0.4v-148.4C6329.9,3580.8,6318.7,3569.6,6304.9,3569.6z"/>
</g>
<g>
	<path class="st0" d="M1132.1,3487.2c-141.4,0-256,114.6-256,256s114.6,256,256,256s256-114.6,256-256S1273.5,3487.2,1132.1,3487.2z
		 M1277.8,3888.9c-38.9,38.9-90.7,60.3-145.7,60.3s-106.8-21.4-145.7-60.3c-38.9-38.9-60.3-90.7-60.3-145.7s21.4-106.8,60.3-145.7
		s90.7-60.3,145.7-60.3s106.8,21.4,145.7,60.3c38.9,38.9,60.3,90.7,60.3,145.7S1316.7,3850,1277.8,3888.9z"/>
	<path class="st0" d="M1167.4,3743.2l55.7-55.7c9.8-9.8,9.8-25.6,0-35.4c-9.8-9.8-25.6-9.8-35.4,0l-55.7,55.7l-55.9-55.9
		c-9.8-9.8-25.6-9.8-35.4,0s-9.8,25.6,0,35.4l55.9,55.9l-56,56c-9.8,9.8-9.8,25.6,0,35.4c4.9,4.9,11.3,7.3,17.7,7.3
		s12.8-2.4,17.7-7.3l56-56l55.7,55.7c4.9,4.9,11.3,7.3,17.7,7.3c6.4,0,12.8-2.4,17.7-7.3c9.8-9.8,9.8-25.6,0-35.4L1167.4,3743.2z"/>
</g>
<g>
	<path class="st0" d="M4818.9,6138h-461.6c-13.8,0-25,11.2-25,25v368.8c0,13.8,11.2,25,25,25h80.5l82.1,82.1
		c4.8,4.8,11.2,7.3,17.7,7.3c3.2,0,6.5-0.6,9.5-1.9c9.3-3.9,15.4-13,15.4-23.1v-64.4H4819c13.8,0,25-11.2,25-25V6163
		C4843.8,6149.2,4832.7,6138,4818.9,6138z M4793.9,6506.8h-256.5H4448h-65.8v-318.9h411.7L4793.9,6506.8L4793.9,6506.8z"/>
	<path class="st0" d="M4453.1,6315.7h79.3c13.8,0,25-11.2,25-25s-11.2-25-25-25h-79.3c-13.8,0-25,11.2-25,25
		S4439.3,6315.7,4453.1,6315.7z"/>
	<path class="st0" d="M4453.1,6423.8h158.5c13.8,0,25-11.2,25-25s-11.2-25-25-25h-158.5c-13.8,0-25,11.2-25,25
		C4428.1,6412.6,4439.3,6423.8,4453.1,6423.8z"/>
</g>
<g>
	<path class="st0" d="M5692.4,6170.6c0-20.3-16.5-36.8-36.8-36.8v0.1h-30.3v73.4l30.3,0.1
		C5675.9,6207.4,5692.4,6190.9,5692.4,6170.6z"/>
	<path class="st0" d="M5655.6,6280.1l-30.3,0.1v73.4h30.3v0.1c20.3,0,36.8-16.5,36.8-36.8C5692.4,6296.5,5676,6280.1,5655.6,6280.1z
		"/>
	<path class="st0" d="M5655.6,6426.3l-30.3,0.1v73.4h30.3v0.1c20.3,0,36.8-16.5,36.8-36.8C5692.4,6442.8,5676,6426.3,5655.6,6426.3z
		"/>
	<path class="st0" d="M5655.6,6572.5l-30.3,0.1v73.4h30.3v0.1c20.3,0,36.8-16.5,36.8-36.8C5692.4,6589,5676,6572.5,5655.6,6572.5z"
		/>
	<path class="st0" d="M5561.8,6134.4h-344.4c-13.8,0-25,11.2-25,25v462c0,13.8,11.2,25,25,25h344.4c13.8,0,25-11.2,25-25v-462
		C5586.8,6145.6,5575.7,6134.4,5561.8,6134.4z M5536.8,6596.3h-294.4v-412h294.4V6596.3z"/>
	<path class="st0" d="M5281.2,6498.7h216.7V6485h0.1c0,0,0.9-22.3-16.2-38.7c-18.3-17.6-30.2-19.1-49.3-25.3
		c-6.6-2.2-11-6.1-13.9-10.2c17.5-12.6,21.7-33.4,21.7-33.4s8.6-7.7,10.1-17.4c2.4-15.2-6.1-18.9-6.1-18.9
		c-0.6-17-0.6-30.7-15.1-44.7c-14.2-13.7-33.7-14.5-39.6-14.4c-5.9-0.1-25.4,0.7-39.6,14.4c-14.5,14-14.5,27.7-15.1,44.7
		c0,0-8.5,3.7-6.1,18.9c1.5,9.7,10.1,17.4,10.1,17.4s4.2,20.8,21.7,33.4c-2.9,4.1-7.3,8-13.9,10.2c-19.1,6.2-31,7.7-49.3,25.3
		c-17.1,16.4-16.2,38.7-16.2,38.7L5281.2,6498.7L5281.2,6498.7z"/>
</g>
<g>
	<path class="st0" d="M3042.3,1843.9c-9.8-9.8-25.6-9.8-35.4,0l-58.4,58.4l0.4-31.6c0.2-13.8-10.9-25.2-24.7-25.3
		c-13.8-0.2-25.2,10.9-25.3,24.7l-1.1,93c-0.1,6.7,2.6,13.2,7.4,18c4.7,4.7,11.2,7.4,18,7.4l93-1.1c13.8-0.2,24.9-11.5,24.7-25.3
		c-0.2-13.9-11.5-24.9-25.4-24.8l-31.6,0.4l58.4-58.4C3052.1,1869.5,3052.1,1853.7,3042.3,1843.9z"/>
	<path class="st0" d="M2799.4,2061.5l-93,1.1c-13.9,0.1-25,11.5-24.7,25.3c0.1,13.9,11.5,25,25.3,24.7l31.6-0.4l-58.4,58.4
		c-9.8,9.8-9.8,25.6,0,35.4c9.8,9.8,25.6,9.8,35.4,0l58.4-58.4l-0.4,31.6c-0.1,13.9,10.9,25.2,24.8,25.4c13.9,0.1,25.1-11,25.3-24.7
		l1.1-93c0.1-6.7-2.6-13.2-7.4-18C2812.7,2064.2,2806.2,2061.5,2799.4,2061.5z"/>
</g>
<g>
	<path class="st0" d="M1996.1,3487.8c-141.1,0-255.5,114.3-255.5,255.4s114.4,255.4,255.5,255.4s255.5-114.3,255.5-255.4
		S2137.2,3487.8,1996.1,3487.8z M2141.4,3888.5c-38.8,38.8-90.4,60.2-145.3,60.2s-106.5-21.4-145.3-60.2s-60.2-90.4-60.2-145.3
		s21.4-106.5,60.2-145.3c38.8-38.8,90.4-60.2,145.3-60.2c54.9,0,106.5,21.4,145.3,60.2s60.2,90.4,60.2,145.3
		S2180.2,3849.7,2141.4,3888.5z"/>
	<path class="st0" d="M2043.2,3751.2l-22.1,22.6v-122.6c0-13.8-11.2-25-25-25s-25,11.2-25,25v122.6l-22.1-22.6
		c-9.6-9.9-25.5-10.1-35.4-0.4c-9.9,9.6-10.1,25.5-0.4,35.4l65,66.5c4.7,4.8,11.2,7.5,17.9,7.5c6.7,0,13.2-2.7,17.9-7.5l65-66.5
		c9.6-9.9,9.5-25.7-0.4-35.4S2052.9,3741.3,2043.2,3751.2z"/>
</g>
<g>
	<path class="st0" d="M1879.5,6403.8l-23.3,87.1c-2.3,8.6,0.2,17.8,6.5,24.1c4.8,4.8,11.1,7.3,17.7,7.3c2.2,0,4.3-0.3,6.5-0.9
		l84-22.5c5.5-0.7,10.6-3.2,14.5-7.1l246.7-246.7c9.8-9.8,9.8-25.6,0-35.4l-64.2-63.8c-9.8-9.8-25.6-9.8-35.4,0l-246.6,246.7
		C1882.8,6395.7,1880.6,6399.6,1879.5,6403.8z M1926,6423.2l224.3-224.2l28.6,28.6l-224,223.9l-39.3,10.5L1926,6423.2z"/>
	<path class="st0" d="M2214.2,6479.3c-13.8,0-25,11.2-25,25v97.1h-412v-412.8h95.3c13.8,0,25-11.2,25-25s-11.2-25-25-25h-120.3
		c-13.8,0-25,11.2-25,25v462.8c0,13.8,11.2,25,25,25h462c13.8,0,25-11.2,25-25v-122.1C2239.2,6490.5,2228,6479.3,2214.2,6479.3z"/>
</g>
<path class="st0" d="M3091.5,6207.4h-462.6c-13.8,0-25,11.2-25,25v325.2c0,13.8,11.2,25,25,25h462.6c13.8,0,25-11.2,25-25v-325.2
	C3116.5,6218.6,3105.3,6207.4,3091.5,6207.4z M3066.5,6532.6h-412.6v-170.4l192.9,122.1c4.1,2.6,8.7,3.9,13.4,3.9s9.3-1.3,13.4-3.9
	l192.9-122.1L3066.5,6532.6L3066.5,6532.6z M3066.5,6303l-206.3,130.6L2653.9,6303v-45.6h412.6V6303z"/>
<g>
	<path class="st0" d="M2164.2,1844.7c-4.7-4.7-11.2-7.4-18-7.4l-93,1.1c-13.8,0.2-24.9,11.5-24.7,25.3c0.2,13.9,11.5,25,25.4,24.8
		l31.6-0.4l-58.4,58.4c-9.8,9.8-9.8,25.6,0,35.4s25.6,9.8,35.4,0l58.4-58.4l-0.4,31.6c-0.2,13.8,10.9,25.2,24.7,25.3
		c13.8,0.2,25.2-10.9,25.3-24.7l1.1-93C2171.7,1856,2169,1849.5,2164.2,1844.7z"/>
	<path class="st0" d="M1904.1,2069.7l-58.4,58.4l0.4-31.6c0.1-13.9-11-25.2-24.8-25.4c-13.9-0.1-25.1,11-25.3,24.7l-1.1,93
		c-0.1,6.7,2.6,13.2,7.4,18c4.7,4.7,11.2,7.4,18,7.4l93-1.1c13.9-0.1,25-11.5,24.7-25.3c-0.1-13.9-11.5-25-25.3-24.7l-31.6,0.4
		l58.4-58.4c9.8-9.8,9.8-25.6,0-35.4C1929.7,2059.9,1913.9,2059.9,1904.1,2069.7z"/>
</g>
<g>
	<path class="st0" d="M6553.5,4824.4l-64.4-64.4c36.5-44.3,56.5-100.1,56.5-157.6c0-66.3-25.8-128.6-72.7-175.4
		c-46.8-46.9-109.1-72.7-175.3-72.7c-66.3,0-128.6,25.8-175.4,72.7c-46.9,46.8-72.7,109.1-72.7,175.4s25.8,128.6,72.7,175.4
		c46.9,46.9,109.2,72.7,175.4,72.7c24.2,0,48.1-3.5,71.1-10.4c13-3.9,20.4-17.6,16.5-30.6s-17.6-20.4-30.6-16.5
		c-18.4,5.5-37.6,8.3-57,8.3c-109.7,0-199-89.2-199-199c0-109.7,89.2-199,199-199c109.7,0,199,89.2,199,199c0,47.4-17,93.4-48,129.5
		c-0.3,0.3-0.5,0.6-0.7,0.9c-6,7.7-10.1,12.3-10.1,12.3c-8.8,9.7-8.4,24.6,0.9,33.8l80.2,80.2c4.8,4.8,11.1,7.2,17.4,7.2
		s12.6-2.4,17.4-7.2C6563.1,4849.5,6563.1,4834,6553.5,4824.4z"/>
	<path class="st0" d="M6297.8,4665.9c-7.9,0-14.7,3-19.8,8.5c-4.9,5.4-7.4,11.6-7.4,18.6s2.5,13.3,7.4,18.6
		c5.1,5.6,11.9,8.5,19.8,8.5s14.8-3,19.8-8.5c4.9-5.4,7.4-11.6,7.4-18.6s-2.5-13.3-7.4-18.6
		C6312.5,4668.8,6305.7,4665.9,6297.8,4665.9z"/>
	<path class="st0" d="M6336.3,4595.6c4.1-3.4,7.9-6.8,11.4-9.9c4.1-3.7,7.7-8,10.7-12.5c3.1-4.7,5.6-10.1,7.3-16
		c1.7-5.8,2.6-12.6,2.6-20.1c0-10-1.9-19.2-5.7-27.3v-0.1c-3.8-8-8.9-14.9-15.3-20.5c-6.3-5.5-13.9-9.7-22.4-12.4
		c-8.2-2.7-17.1-4-26.3-4c-18.3,0-34.1,5.4-46.9,16c-12.7,10.6-20.9,25.1-24.5,43.3l-0.9,4.4c-0.4,2.1,0.1,4.2,1.5,5.8
		c1.3,1.6,3.3,2.5,5.4,2.5h29c3.3,0,6.1-2.2,6.8-5.4l0.7-2.9c1.6-6.7,4.5-12.2,8.8-16.5c4.8-4.8,10.9-7,19.1-7c4,0,7.8,0.6,11.2,1.8
		c3.2,1.2,6.1,2.8,8.5,5c2.3,2,4.2,4.6,5.5,7.7c1.4,3,2.1,6.7,2.1,10.8c0,5.8-1.1,10.5-3.4,14.1c-2.7,4.2-6.2,8.1-10.5,11.6
		c-0.1,0.1-0.1,0.1-0.2,0.2l-8.6,7.7c0,0-0.1,0-0.1,0.1c-3.1,2.9-6.2,5.9-9.3,8.9c-3.5,3.5-6.6,7.4-9.4,11.7
		c-2.9,4.5-5.1,9.6-6.7,15.1s-2.4,11.7-2.4,18.4v22c0,3.9,3.1,7,7,7h28.7c3.9,0,7-3.1,7-7v-17.7c0-4.7,0.3-8.7,1-11.8
		c0.6-2.7,1.5-5.2,2.7-7.3c1.3-2.3,3.1-4.5,5.3-6.7C6328.7,4601.9,6332.1,4598.9,6336.3,4595.6z"/>
</g>
<g>
	<path class="st0" d="M3969.3,5422.9l-194.1-194.1c-3.8-3.8-8.9-5.9-14.2-5.9l-271.4,0.2c-13.8,0-25,11.2-25,25v460.6
		c0,13.8,11.2,25,25,25h167.6c0.1,0,0.1,0,0.2,0h0.1h292.7c13.8,0,25-11.2,25-25v-271.6C3975.2,5431.7,3973.1,5426.7,3969.3,5422.9z
		 M3769.9,5428.1v-133.9l134,134h-134V5428.1z M3925.2,5526.7v157h-233.8h-176.8v-0.1v-155.8v-50.1h-0.1v-204.6H3720v182.3
		c1.1,12.8,11.8,22.8,24.9,22.8h167.6c0.1,0,0.1,0,0.2,0h0.1h12.4V5526.7z"/>
	<path class="st0" d="M3783.7,5556h-189.6c-13.8,0-25,11.2-25,25s11.2,25,25,25h189.6c13.8,0,25-11.2,25-25S3797.5,5556,3783.7,5556
		z"/>
	<path class="st0" d="M3594.1,5503.4h73.6c13.8,0,25-11.2,25-25s-11.2-25-25-25h-73.6c-13.8,0-25,11.2-25,25
		C3569.1,5492.2,3580.3,5503.4,3594.1,5503.4z"/>
	<path class="st0" d="M3594.1,5400.8h73.6c13.8,0,25-11.2,25-25c0-13.9-11.2-25-25-25h-73.6c-13.8,0-25,11.2-25,25
		C3569.1,5389.6,3580.3,5400.8,3594.1,5400.8z"/>
</g>
<g>
	<path class="st0" d="M484.4,2108.7h-71c-10.3-29.1-38.1-50-70.7-50s-60.4,20.9-70.7,50H25c-13.8,0-25,11.2-25,25s11.2,25,25,25h247
		c10.4,29.1,38.2,50,70.7,50c32.6,0,60.4-20.9,70.7-50h71c13.8,0,25-11.2,25-25C509.4,2119.9,498.2,2108.7,484.4,2108.7z
		 M367.5,2137.4c-0.6,3.7-2,7.2-4,10.2c-0.2,0.3-0.5,0.7-0.7,1c-1.4,1.9-3.2,3.6-5.1,5.1c-0.3,0.2-0.6,0.5-1,0.7
		c-3,2-6.4,3.4-10.2,4c-1.2,0.2-2.5,0.3-3.8,0.3s-2.5-0.1-3.8-0.3c-3.7-0.6-7.2-2-10.2-4c-0.3-0.2-0.7-0.5-1-0.7
		c-1.9-1.4-3.6-3.2-5.1-5.1c-0.2-0.3-0.5-0.6-0.7-1c-2-3-3.4-6.4-4-10.2c-0.2-1.2-0.3-2.5-0.3-3.8s0.1-2.6,0.3-3.8
		c0.6-3.7,2-7.2,4-10.2c0.2-0.3,0.5-0.7,0.7-1c1.4-1.9,3.2-3.6,5.1-5.1c0.3-0.2,0.6-0.5,1-0.7c3-2,6.4-3.4,10.2-4
		c1.2-0.2,2.5-0.3,3.8-0.3s2.6,0.1,3.8,0.3c3.7,0.6,7.2,2,10.2,4c0.3,0.2,0.7,0.5,1,0.7c1.9,1.4,3.6,3.2,5.1,5.1
		c0.2,0.3,0.5,0.6,0.7,1c2,3,3.4,6.4,4,10.2c0.2,1.2,0.3,2.5,0.3,3.8S367.7,2136.2,367.5,2137.4z"/>
	<path class="st0" d="M25,1924.9h78.6c10.3,29.1,38.1,50,70.7,50s60.4-20.9,70.7-50h239.4c13.8,0,25-11.2,25-25s-11.2-25-25-25H245
		c-10.3-29.1-38.1-50-70.7-50s-60.4,20.9-70.7,50H25c-13.8,0-25,11.2-25,25C0,1913.7,11.2,1924.9,25,1924.9z M149.5,1896
		c0.6-3.7,2-7.2,4-10.2c0.2-0.3,0.5-0.7,0.7-1c1.4-1.9,3.2-3.6,5.1-5.1c0.3-0.2,0.6-0.5,1-0.7c3-2,6.4-3.4,10.2-4
		c1.2-0.2,2.5-0.3,3.8-0.3s2.6,0.1,3.8,0.3c3.7,0.6,7.2,2,10.2,4c0.3,0.2,0.7,0.5,1,0.7c1.9,1.4,3.6,3.2,5.1,5.1
		c0.2,0.3,0.5,0.6,0.7,1c2,3,3.4,6.4,4,10.2c0.2,1.2,0.3,2.5,0.3,3.8s-0.1,2.6-0.3,3.8c-0.6,3.7-2,7.2-4,10.2
		c-0.2,0.3-0.5,0.7-0.7,1c-1.4,1.9-3.2,3.6-5.1,5.1c-0.3,0.2-0.6,0.5-1,0.7c-3,2-6.4,3.4-10.2,4c-1.2,0.2-2.5,0.3-3.8,0.3
		s-2.6-0.1-3.8-0.3c-3.7-0.6-7.2-2-10.2-4c-0.3-0.2-0.7-0.5-1-0.7c-1.9-1.4-3.6-3.2-5.1-5.1c-0.2-0.3-0.5-0.6-0.7-1
		c-2-3-3.4-6.4-4-10.2c-0.2-1.2-0.3-2.5-0.3-3.8S149.3,1897.2,149.5,1896z"/>
</g>
<path class="st0" d="M3973.9,187c-4.7-6-12-9.5-19.6-9.5H3883v-19.8c0-13.8-11.2-25-25-25h-181.9l-48.6-48.6
	c-4.7-4.7-11-7.3-17.7-7.3h-117.6c-13.8,0-25,11.2-25,25v55.9v273.8c0,13.8,11.2,25,25,25h407.5c11.6,0,21.6-7.9,24.3-19.2l54.6-229
	C3980.4,200.8,3978.7,193,3973.9,187z M3833,406.5h-315.8V182.7H3833V406.5L3833,406.5z M3883,393.6V227.5h39.7L3883,393.6z"/>
<g>
	<path class="st0" d="M5444.6,4701.9c-47.7,0-86.6-38.8-86.6-86.6c0-47.7,38.8-86.6,86.6-86.6c47.8,0,86.6,38.8,86.6,86.6
		C5531.1,4663.1,5492.3,4701.9,5444.6,4701.9z M5444.6,4578.8c-20.2,0-36.6,16.4-36.6,36.6s16.4,36.6,36.6,36.6s36.6-16.4,36.6-36.6
		S5464.7,4578.8,5444.6,4578.8z"/>
	<path class="st0" d="M5446.4,4872.4h-4.5c-0.1,0-0.2,0-0.2,0c-14.1-0.1-28.3-1.5-42.3-3.9c-10.4-1.8-18.6-10-20.3-20.5l-5.9-35.3
		c-24-8.5-46.3-21.4-65.8-38l-33.9,12.6c-10,3.7-21.2,0.7-28-7.5c-18.7-22.6-33.3-48-43.3-75.5c-3.6-9.9-0.6-21.1,7.6-27.8l27.8-23
		c-2.2-12.3-3.4-24.8-3.4-37.4c0-12.5,1.1-25,3.4-37.4l-27.8-23c-8.2-6.7-11.2-17.9-7.6-27.8c10-27.5,24.6-52.9,43.3-75.5
		c6.8-8.2,18-11.2,28-7.5l33.8,12.6c19.4-16.6,41.7-29.5,65.7-38l6-35.3c1.8-10.4,9.9-18.6,20.3-20.5c15-2.6,30-4,44.8-4
		c13.8,0,27.8,1.2,41.8,3.4c10.5,1.7,18.8,10,20.6,20.5l6,35.8c24,8.5,46.3,21.4,65.7,38l33.8-12.6c9.9-3.7,21.1-0.7,27.9,7.4
		c3.8,4.6,7.6,9.4,11.5,14.9c0.5,0.7,0.9,1.4,1.3,2.1l23,39.8c0.4,0.7,0.8,1.5,1.1,2.2c2.5,5.5,4.6,10.6,6.4,15.5
		c3.7,10,0.7,21.3-7.5,28l-27.9,23c2.3,12.6,3.5,25.4,3.5,38.2c0,12.8-1.2,25.6-3.5,38.2l28,23c8.2,6.8,11.3,18,7.5,28
		c-1.8,4.8-3.9,9.8-6.3,15.3c-0.3,0.8-0.7,1.5-1.1,2.2l-23.2,40.3c-0.4,0.7-0.9,1.4-1.4,2.1c-3.8,5.3-7.5,10.1-11.2,14.5
		c-6.8,8.1-18,11.1-27.9,7.4l-33.8-12.6c-19.4,16.6-41.8,29.5-65.8,38l-6,35.8c-1.8,10.5-10.1,18.8-20.6,20.5
		c-12.9,2.1-26.1,3.3-39.3,3.4C5446.5,4872.4,5446.5,4872.4,5446.4,4872.4z M5442,4822.4h4.2c4.7,0,9.4-0.3,14-0.6l5.5-32.5
		c1.6-9.7,8.7-17.5,18.2-20c26.8-7.2,51.4-21.4,71-41.1c6.9-6.9,17.2-9.2,26.4-5.8l30.5,11.4l17.3-30.1l-25-20.6
		c-7.6-6.2-10.8-16.3-8.2-25.8c3.6-13.5,5.4-27.3,5.4-41.2c0-13.9-1.8-27.8-5.4-41.2c-2.5-9.5,0.7-19.5,8.2-25.8l25-20.6l-17.3-30.1
		l-30.5,11.4c-9.2,3.4-19.5,1.2-26.4-5.7c-19.7-19.7-44.2-33.9-71-41c-9.4-2.5-16.5-10.3-18.2-20l-5.5-32.5
		c-11.7-0.9-23.3-0.9-35,0.2l-5.4,32.2c-1.6,9.6-8.7,17.5-18.2,20c-26.8,7.2-51.3,21.4-71,41c-6.9,6.9-17.2,9.2-26.4,5.8l-30.8-11.5
		c-6.8,9.7-12.6,20-17.6,30.7l25.4,20.9c7.5,6.2,10.7,16.2,8.3,25.6c-3.5,13.2-5.2,26.8-5.2,40.5s1.8,27.3,5.2,40.6
		c2.5,9.4-0.7,19.4-8.3,25.6l-25.4,21c5,10.7,10.9,21,17.6,30.7l30.9-11.5c9.2-3.4,19.5-1.2,26.4,5.8c19.7,19.7,44.2,33.8,71,41
		c9.5,2.5,16.6,10.4,18.2,20l5.4,32.3C5430.9,4822.1,5436.5,4822.4,5442,4822.4z"/>
</g>
<g>
	<path class="st0" d="M501.9,5223H41.4c-13.8,0-25,11.2-25,25v460.6c0,13.8,11.2,25,25,25H209c0.1,0,0.1,0,0.2,0h0.1H502
		c13.8,0,25-11.2,25-25V5248C526.9,5234.2,515.7,5223,501.9,5223z M476.9,5273v204.3c-1.4-0.2-2.8-0.4-4.3-0.4
		c-34.1,0-67.5,5.7-99.3,17.1c-30.8,10.9-59.3,26.8-85,47.2c-13.6,10.8-26.1,22.7-37.5,35.6c-43.6-58.5-111-95-184.5-99.2V5273
		H476.9z M66.4,5527.7c62.7,4.5,119.5,38.5,153.1,91.6c-12.3,20.1-22.1,41.7-29.3,64.2H66.4V5527.7z M243.2,5683.6
		c15.8-40.2,42.1-76.1,76.3-103.2c43.9-34.9,96.9-53.4,153.2-53.4c1.5,0,2.9-0.1,4.3-0.4v157H243.2z"/>
	<path class="st0" d="M370.2,5436.5c29.9,0,54.3-24.4,54.3-54.3s-24.4-54.3-54.3-54.3s-54.3,24.4-54.3,54.3
		C315.9,5412.1,340.2,5436.5,370.2,5436.5z"/>
</g>
<g>
	<path class="st0" d="M255.3,4361.5c-141,0-255.3,114.3-255.3,255.3s114.3,255.3,255.3,255.3s255.3-114.3,255.3-255.3
		S396.3,4361.5,255.3,4361.5z M400.5,4762c-38.7,38.8-90.3,60.1-145.2,60.1s-106.4-21.4-145.2-60.1S50,4671.6,50,4616.8
		c0-54.8,21.4-106.4,60.1-145.2c38.7-38.8,90.4-60.1,145.2-60.1s106.4,21.4,145.2,60.1s60.1,90.3,60.1,145.2
		S439.2,4723.2,400.5,4762z"/>
	<path class="st0" d="M254.7,4583.5c-13.8,0-25,11.2-25,25v120.4c0,13.8,11.2,25,25,25s25-11.2,25-25v-120.4
		C279.7,4594.7,268.6,4583.5,254.7,4583.5z"/>
	<path class="st0" d="M275.5,4510.9c-0.2-0.3-0.5-0.7-0.7-1c-1.4-1.9-3.2-3.6-5.1-5.1c-0.3-0.2-0.6-0.5-1-0.7c-3-2-6.4-3.4-10.2-4
		c-1.2-0.2-2.5-0.3-3.8-0.3s-2.6,0.1-3.8,0.3c-3.7,0.6-7.2,2-10.2,4c-0.3,0.2-0.7,0.5-1,0.7c-1.9,1.4-3.6,3.2-5.1,5.1
		c-0.2,0.3-0.5,0.6-0.7,1c-2,3-3.4,6.4-4,10.2c-0.2,1.2-0.3,2.5-0.3,3.8s0.1,2.6,0.3,3.8c0.6,3.7,2,7.2,4,10.2
		c0.2,0.3,0.5,0.7,0.7,1c1.4,1.9,3.2,3.6,5.1,5.1c0.3,0.2,0.6,0.5,1,0.7c3,2,6.4,3.4,10.2,4c1.2,0.2,2.5,0.3,3.8,0.3
		s2.6-0.1,3.8-0.3c3.7-0.6,7.2-2,10.2-4c0.3-0.2,0.7-0.5,1-0.7c1.9-1.4,3.6-3.2,5.1-5.1c0.2-0.3,0.5-0.6,0.7-1c2-3,3.4-6.4,4-10.2
		c0.2-1.2,0.3-2.5,0.3-3.8s-0.1-2.6-0.3-3.8C278.9,4517.3,277.5,4513.9,275.5,4510.9z"/>
</g>
<g>
	<path class="st0" d="M5477.9,2117.1c-13.8,0-25,11.2-25,25v87.8h-189.7v-410h189.7v87.9c0,13.7,11.2,24.9,25,24.9s25-11.2,25-25
		v-112.8c0-13.8-11.2-25-25-25h-239.7c-13.8,0-25,11.2-25,25v460c0,13.8,11.2,25,25,25h239.7c13.8,0,25-11.2,25-25v-112.8
		C5502.9,2128.3,5491.7,2117.1,5477.9,2117.1z"/>
	<path class="st0" d="M5717.7,2009.3l-110.3-107.4c-9.9-9.6-25.7-9.4-35.4,0.4c-9.6,9.9-9.4,25.7,0.4,35.4l63.8,62.2h-263
		c-13.8,0-25,11.2-25,25s11.2,25,25,25h265.9l-66.3,61.8c-10.1,9.4-10.6,25.2-1.2,35.3c4.9,5.3,11.6,7.9,18.3,7.9
		c6.1,0,12.2-2.2,17-6.7l110.2-102.8c5-4.7,7.9-11.2,7.9-18S5722.5,2014.1,5717.7,2009.3z"/>
</g>
<g>
	<path class="st0" d="M6528.2,6382.4h-67.9v-206.5c0-13.8-11.2-25-25-25h-367.9c-13.8,0-25,11.2-25,25v463c0,13.8,11.2,25,25,25
		h367.9c0.1,0,0.1,0,0.2,0c64.9-0.2,117.7-52.8,117.7-117.4v-139.1C6553.2,6393.6,6542,6382.4,6528.2,6382.4z M6410.3,6404.8
		c-0.1,0.9-0.1,1.7-0.1,2.6v206.5h-317.8v-413h317.9V6404.8z M6503.2,6546.5c0,28.4-17.8,52.7-42.9,62.6v-176.7h42.9V6546.5z"/>
	<path class="st0" d="M6160,6314.3h180.8c13.8,0,25-11.2,25-25s-11.2-25-25-25H6160c-13.8,0-25,11.2-25,25
		C6135,6303.1,6146.1,6314.3,6160,6314.3z"/>
	<path class="st0" d="M6160,6421.6h180.8c13.8,0,25-11.2,25-25s-11.2-25-25-25H6160c-13.8,0-25,11.2-25,25
		S6146.1,6421.6,6160,6421.6z"/>
	<path class="st0" d="M6160,6528.9h180.8c13.8,0,25-11.2,25-25s-11.2-25-25-25H6160c-13.8,0-25,11.2-25,25
		C6135,6517.7,6146.1,6528.9,6160,6528.9z"/>
</g>
<g>
	<path class="st0" d="M3030.1,63.5c-35.2-34-81.3-52.6-129.7-52.6s-94.4,18.7-129.7,52.6c-35.7,34.4-55.5,79.9-55.5,128.1
		c0,54.2,22.5,90.3,59.8,150c4.3,6.9,8.8,14.1,13.5,21.8c41.5,67.1,90.1,146.2,90.6,147c4.5,7.4,12.6,11.9,21.3,11.9
		s16.8-4.5,21.3-11.9c0.5-0.8,49.1-79.9,90.6-147c4.8-7.7,9.3-14.9,13.5-21.8c37.3-59.7,59.8-95.8,59.8-150
		C3085.6,143.4,3065.9,97.9,3030.1,63.5z M2983.4,315.1c-4.3,6.9-8.9,14.2-13.7,22c-24.4,39.5-51.2,83.1-69.3,112.5
		c-18.1-29.4-45-73-69.3-112.5c-4.8-7.8-9.3-15.1-13.7-22c-35.8-57.4-52.2-83.7-52.2-123.5c0-34.5,14.3-67.2,40.2-92.1
		c25.5-24.6,60.2-38.6,95-38.6s69.5,14.1,95,38.6c25.9,24.9,40.2,57.6,40.2,92.1C3035.6,231.5,3019.3,257.7,2983.4,315.1z"/>
	<path class="st0" d="M2900.4,128.9c-29.9,0-54.3,24.4-54.3,54.3s24.4,54.3,54.3,54.3c29.9,0,54.3-24.4,54.3-54.3
		S2930.4,128.9,2900.4,128.9z"/>
</g>
<g>
	<path class="st0" d="M4822.8,875.4h-44.6c-65.1,0-118.1,53-118.1,118.1v84.9h-203.9c-15.1,0-29.4,5.9-40.4,16.6
		c-10.6,10.3-17,24.2-18.2,39.1c-0.1,0.7-0.1,1.3-0.1,2l-0.1,188.8c0,33.5,26.4,60.7,58.8,60.7h271.4c32.4,0,58.8-27.2,58.8-60.7
		v-185.8c0-33.5-26.4-60.7-58.8-60.7H4710v-84.9c0-37.6,30.6-68.1,68.1-68.1h44.6c13.8,0,25-11.2,25-25S4836.6,875.4,4822.8,875.4z
		 M4736.4,1139.1v185.8c0,5.8-4,10.7-8.8,10.7h-271.4c-4.8,0-8.8-4.9-8.8-10.7l0.1-187.6c0.7-5.1,4.4-8.9,8.7-8.9h271.4
		C4732.4,1128.4,4736.4,1133.3,4736.4,1139.1z"/>
	<path class="st0" d="M4561.3,1256.2h61.2c13.8,0,25-11.2,25-25s-11.2-25-25-25h-61.2c-13.8,0-25,11.2-25,25
		S4547.5,1256.2,4561.3,1256.2z"/>
</g>
<g>
	<path class="st0" d="M3855.6,1078.4H3838v-84.9c0-65.1-53-118.1-118.1-118.1s-118.1,53-118.1,118.1v84.9h-17.6
		c-15.1,0-29.4,5.9-40.4,16.6c-10.6,10.3-17,24.2-18.2,39.1c-0.1,0.7-0.1,1.3-0.1,2l-0.1,188.8c0,33.5,26.4,60.7,58.8,60.7h271.4
		c32.4,0,58.8-27.2,58.8-60.7v-185.8C3914.4,1105.6,3888,1078.4,3855.6,1078.4z M3651.8,993.5c0-37.6,30.6-68.1,68.1-68.1
		s68.1,30.6,68.1,68.1v84.9h-136.2L3651.8,993.5L3651.8,993.5z M3864.4,1324.9c0,5.8-4,10.7-8.8,10.7h-271.4
		c-4.8,0-8.8-4.9-8.8-10.7l0.1-187.6c0.7-5.1,4.4-8.9,8.7-8.9h271.4c4.8,0,8.8,4.9,8.8,10.7V1324.9L3864.4,1324.9z"/>
	<path class="st0" d="M3719.9,1175.6c-13.8,0-25,11.2-25,25v61.2c0,13.8,11.2,25,25,25s25-11.2,25-25v-61.2
		C3744.9,1186.8,3733.7,1175.6,3719.9,1175.6z"/>
</g>
<path class="st0" d="M4778.9,4419.3c-41.8-41.8-97.3-64.8-156.4-64.8s-114.7,23-156.5,64.8s-64.8,97.3-64.8,156.4
	c0,51,17.2,99.4,48.7,138.5l-110,109.1c-9.8,9.7-9.9,25.5-0.2,35.4c4.9,4.9,11.3,7.4,17.8,7.4c6.4,0,12.7-2.4,17.6-7.2l110.4-109.3
	c38.9,30.8,86.6,47.5,137,47.5c59.1,0,114.6-23,156.4-64.8s64.8-97.3,64.8-156.4C4843.7,4516.8,4820.7,4461.1,4778.9,4419.3z
	 M4622.5,4747c-94.4,0-171.2-76.8-171.2-171.2c0-94.4,76.8-171.2,171.2-171.2c94.4,0,171.2,76.7,171.2,171.2
	C4793.7,4670.2,4716.9,4747,4622.5,4747z"/>
<g>
	<path class="st0" d="M270.6,341.5c49.7,0,90.2-40.5,90.2-90.2v-151c0-49.7-40.5-90.2-90.2-90.2s-90.2,40.5-90.2,90.2v151
		C180.4,301.1,220.9,341.5,270.6,341.5z M230.4,100.3c0-22.2,18-40.2,40.2-40.2s40.2,18,40.2,40.2v151c0,22.2-18,40.2-40.2,40.2
		s-40.2-18-40.2-40.2L230.4,100.3L230.4,100.3z"/>
	<path class="st0" d="M435.8,226.3c-13.8,0-25,11.2-25,25c0,18.9-3.7,37.3-11,54.6c-7.1,16.7-17.2,31.7-30,44.5
		c-12.9,12.9-27.8,23-44.5,30c-17.3,7.3-35.7,11-54.6,11s-37.3-3.7-54.6-11c-16.7-7.1-31.7-17.2-44.5-30c-12.9-12.9-23-27.8-30-44.5
		c-7.3-17.3-11-35.7-11-54.6c0-13.8-11.2-25-25-25s-25,11.2-25,25c0,25.6,5,50.5,15,74.1c9.6,22.7,23.3,43,40.7,60.4
		s37.8,31.1,60.4,40.7c15.8,6.7,32.2,11.1,49.1,13.4v58.2c0,13.8,11.2,25,25,25s25-11.2,25-25v-58.2c16.8-2.2,33.3-6.7,49.1-13.4
		c22.7-9.6,43-23.3,60.4-40.7c17.4-17.4,31.1-37.8,40.7-60.4c10-23.5,15-48.5,15-74.1C460.8,237.5,449.6,226.3,435.8,226.3z"/>
</g>
<path class="st0" d="M1357.7,3.8c-7.4-4.6-16.6-5-24.3-1.1L874,233c-8.5,4.2-13.8,12.9-13.8,22.3s5.3,18.1,13.8,22.3l153,76.7v131.2
	c0,10.1,6.1,19.2,15.4,23.1c3.1,1.3,6.3,1.9,9.6,1.9c6.5,0,12.9-2.5,17.7-7.3l84.9-84.9l178.7,89.6c3.5,1.8,7.4,2.7,11.2,2.7
	c4.6,0,9.1-1.2,13.1-3.7c7.4-4.6,11.9-12.6,11.9-21.3V25.1C1369.5,16.4,1365,8.4,1357.7,3.8z M1053.8,311.9L941,255.3L1270.8,90
	L1053.8,311.9z M1319.5,445l-218.7-109.6l218.7-223.7V445L1319.5,445z"/>
<path class="st0" d="M4813.4,1823.5c-42.2-42.2-110.8-42.2-153,0l-218.6,218.8c-12.6,12.6-19.5,29.3-19.5,47.1s6.9,34.5,19.5,47.1
	c13,13,30.1,19.5,47.1,19.5c17.1,0,34.1-6.5,47.1-19.5l186.2-186.2c9.8-9.8,9.8-25.6,0-35.4s-25.6-9.8-35.4,0l-186.1,186.3
	c-6.5,6.5-17,6.5-23.5,0c-3.1-3.1-4.9-7.3-4.9-11.8c0-4.4,1.7-8.6,4.9-11.8l218.6-218.8c22.7-22.7,59.6-22.7,82.3,0
	c22.7,22.7,22.7,59.6,0,82.3c-1,1-2,2.2-2.8,3.3l-221.6,221.5c-18.9,18.9-44,29.3-70.6,29.3s-51.8-10.4-70.7-29.3
	c-18.9-18.9-29.3-44-29.3-70.6s10.4-51.8,29.3-70.6l191.4-191.4c9.8-9.8,9.8-25.6,0-35.4s-25.6-9.8-35.4,0l-191.3,191.4
	c-28.3,28.3-43.9,66-43.9,106s15.6,77.7,43.9,106s66,43.9,106,43.9s77.7-15.6,106-43.9l224.6-224.6c1.2-1.2,2.3-2.5,3.2-3.9
	C4855.5,1930.4,4854.4,1864.5,4813.4,1823.5z"/>
<g>
	<path class="st0" d="M4588.1,3487.6c-141.2,0-255.6,114.5-255.6,255.6s114.4,255.6,255.6,255.6s255.6-114.4,255.6-255.6
		S4729.3,3487.6,4588.1,3487.6z M4733.5,3888.6c-38.8,38.8-90.5,60.2-145.4,60.2s-106.6-21.4-145.4-60.2s-60.2-90.5-60.2-145.4
		s21.4-106.6,60.2-145.4c38.8-38.8,90.5-60.2,145.4-60.2s106.6,21.4,145.4,60.2s60.2,90.5,60.2,145.4S4772.3,3849.8,4733.5,3888.6z"
		/>
	<path class="st0" d="M4524,3639.5c-13.8,0-25,11.2-25,25v164.6c0,13.8,11.2,25,25,25s25-11.2,25-25v-164.6
		C4549,3650.7,4537.8,3639.5,4524,3639.5z"/>
	<path class="st0" d="M4652.2,3639.5c-13.8,0-25,11.2-25,25v164.6c0,13.8,11.2,25,25,25s25-11.2,25-25v-164.6
		C4677.2,3650.7,4666,3639.5,4652.2,3639.5z"/>
</g>
<g>
	<path class="st0" d="M4732,2624c-13.8,0-25,11.2-25,25v460c0,13.8,11.2,25,25,25s25-11.2,25-25v-460
		C4757,2635.2,4745.8,2624,4732,2624z"/>
	<path class="st0" d="M4446.4,2624c-13.8,0-25,11.2-25,25v460c0,13.8,11.2,25,25,25s25-11.2,25-25v-460
		C4471.4,2635.2,4460.2,2624,4446.4,2624z"/>
</g>
<path class="st0" d="M2230.7,107.4l-88-88c-4.7-4.7-11-7.3-17.7-7.3c-6.6,0-13,2.6-17.7,7.3L2041.7,85c-0.8,0.6-1.5,1.2-2.2,1.9
	c-0.7,0.7-1.3,1.4-1.9,2.2L1768,358.8c-3.1,3.1-5.3,7-6.5,11.2l-32.1,119.8c-2.3,8.6,0.2,17.8,6.5,24.1c4.8,4.8,11.1,7.3,17.7,7.3
	c2.2,0,4.3-0.3,6.5-0.9l116.1-31c5.5-0.6,10.9-3,15.1-7.2l339.4-339.4c4.7-4.7,7.3-11,7.3-17.7S2235.3,112.1,2230.7,107.4z
	 M1861.1,441.6l-72.2,19.3l19.2-71.5l249.2-249.2l52.6,52.6L1861.1,441.6z M2145.3,157.4l-52.6-52.6l32.4-32.4l52.6,52.6
	L2145.3,157.4z"/>
<g>
	<path class="st0" d="M6428.2,1204.1c-30.6-29.4-53.3-36.3-79.5-44.3c-1.8-0.5-3.5-1.1-5.4-1.6c11.3-15.2,17.1-30.5,19.8-39.5
		c6.7-7.5,16.6-21.1,19.3-38.2c3.3-21-2.1-35-7.3-43c-1-1.5-2-2.9-3.1-4.2c-1.2-27-4.5-54.7-32.7-82c-29.8-28.8-68.6-31.6-84.2-31.4
		c-15.7-0.2-54.5,2.6-84.2,31.4c-28.2,27.3-31.6,55-32.7,82c-1,1.3-2.1,2.7-3.1,4.2c-5.2,8-10.6,22-7.3,43
		c2.7,17.1,12.6,30.7,19.3,38.2c2.7,9.1,8.6,24.3,19.8,39.5c-1.8,0.6-3.6,1.1-5.4,1.6c-26.2,8-48.9,15-79.5,44.3
		c-34.4,33-35.1,76.8-35,83.5v23c0,13.8,11.2,25,25,25h365.8c13.8,0,25-11.2,25-25v-20.7c0-0.5,0.1-1,0.1-1.5
		C6463.2,1286.4,6464.8,1239.2,6428.2,1204.1z M6413.1,1285.6h-315.9c0.1-4.5,1.4-27.9,19.6-45.4c22-21.1,36.1-25.4,59.5-32.6
		c4.5-1.4,9.1-2.8,14.2-4.4c14.7-4.8,27.2-13.9,36.1-26.4c8-11.2,5.4-26.8-5.7-34.8c-20.2-14.5-26.3-39.5-26.7-41.1
		c-1-5.4-3.7-9.9-7.8-13.6c-1.7-1.6-8.2-8.9-9.1-14.6c-0.6-3.7-0.4-6.2-0.2-7.4c6.4-4.4,10.4-11.7,10.7-19.6l0.1-3
		c1-27.5,2.1-40.2,17.8-55.5c17.5-16.9,43.9-17.4,49.1-17.3c0.3,0,0.5,0,0.8,0c5.1-0.1,31.6,0.4,49.1,17.3
		c15.7,15.2,16.8,28,17.8,55.5l0.1,3c0.3,8,4.3,15.2,10.7,19.6c0.2,1.3,0.4,3.7-0.2,7.4c-0.8,4.9-5.9,11.6-9.2,14.7
		c-4.2,3.6-6.7,8.2-7.8,13.6c-0.1,0.3-6.1,26.2-26.6,41c-11.2,8-13.7,23.6-5.7,34.8c8.9,12.5,21.4,21.6,36.1,26.4
		c5,1.6,9.7,3.1,14.2,4.4c23.4,7.2,37.5,11.5,59.5,32.6c17.2,16.5,19.3,38.8,19.6,44.9C6413.1,1285.2,6413.1,1285.4,6413.1,1285.6z"
		/>
	<path class="st0" d="M6554.6,1111.3c-0.4-0.4-0.8-1-1.4-1.7c-8.5-10.3-31.1-37.6-74-56.3c6.4-12.8,9.1-24.2,10.2-32.3
		c6.6-7.8,15-20.5,17.5-36.1c3.3-21-2.1-35-7.3-43c-1-1.5-2-2.9-3.1-4.2c-1.2-27-4.5-54.7-32.7-82c-28.3-27.4-64.9-31.5-84.3-31.5
		c-22.4,0-42.7,4.7-60.4,14c-12.2,6.4-16.9,21.5-10.5,33.8c6.4,12.2,21.5,16.9,33.8,10.5c10.4-5.5,22.9-8.2,37.1-8.2
		c9.5,0,33.3,1.7,49.5,17.3c15.7,15.2,16.8,28,17.8,55.5l0.1,3c0.3,8,4.3,15.2,10.7,19.6c0.2,1.3,0.4,3.7-0.2,7.4
		c-0.8,4.9-5.9,11.6-9.2,14.7c-6,5.2-9,11.7-8.3,19.6c-0.1,2.5-1.1,19.4-18.5,37.4c-6.2,6.4-8.5,15.7-6,24.2
		c2.5,8.6,9.3,15.2,17.9,17.4c49.1,12.4,73.3,41.5,81.2,51.1c0.8,1,1.5,1.8,2.1,2.5c4.9,5.7,11.9,8.6,18.9,8.6
		c5.8,0,11.6-2,16.3-6.1C6562.5,1137.5,6563.6,1121.7,6554.6,1111.3z"/>
</g>
<g>
	<path class="st0" d="M5578.5,3721.3l-172.7-99.7c-7.7-4.5-17.3-4.5-25,0s-12.5,12.8-12.5,21.7v199.4c0,9,4.8,17.2,12.5,21.7
		c3.9,2.2,8.2,3.3,12.5,3.3c4.4,0,8.7-1.1,12.5-3.3l172.7-99.7c7.7-4.5,12.5-12.7,12.5-21.7S5586.2,3725.8,5578.5,3721.3z
		 M5418.3,3799.5v-112.9l97.8,56.4L5418.3,3799.5z"/>
	<path class="st0" d="M5452.1,3487.6c-141.2,0-255.6,114.5-255.6,255.6s114.4,255.6,255.6,255.6s255.6-114.4,255.6-255.6
		S5593.3,3487.6,5452.1,3487.6z M5597.5,3888.6c-38.8,38.8-90.5,60.2-145.4,60.2s-106.6-21.4-145.4-60.2s-60.2-90.5-60.2-145.4
		s21.4-106.6,60.2-145.4c38.8-38.8,90.5-60.2,145.4-60.2s106.6,21.4,145.4,60.2s60.2,90.5,60.2,145.4S5636.3,3849.8,5597.5,3888.6z"
		/>
</g>
<path class="st0" d="M5247.1,3132c-4.3,0-8.6-1.1-12.5-3.3c-7.7-4.5-12.5-12.7-12.5-21.7v-456c0-8.9,4.8-17.2,12.5-21.6
	c7.7-4.4,17.3-4.5,25,0l395,227.8c7.7,4.5,12.5,12.7,12.5,21.6s-4.8,17.2-12.5,21.7l-395,228.1
	C5255.7,3130.9,5251.4,3132,5247.1,3132z M5272.1,2694.3v369.4l320-184.9L5272.1,2694.3z"/>
<g>
	<path class="st0" d="M4818.6,11.5h-300.5c-13.8,0-25,11.2-25,25v79.7c0,13.8,11.2,25,25,25s25-11.2,25-25V61.5h250.5v252.2h-53.5
		c-13.8,0-25,11.2-25,25s11.2,25,25,25h78.5c13.8,0,25-11.2,25-25V36.5C4843.6,22.7,4832.4,11.5,4818.6,11.5z"/>
	<path class="st0" d="M4659.8,169.6h-302.2c-13.8,0-25,11.2-25,25v302.2c0,13.8,11.2,25,25,25h302.2c13.8,0,25-11.2,25-25V194.6
		C4684.8,180.7,4673.6,169.6,4659.8,169.6z M4634.8,471.7h-252.2l0,0V219.6h252.2V471.7z"/>
</g>
<g>
	<path class="st0" d="M3566,3968.2c-6.3,0-12.4-2.4-17.1-6.7c-25.5-23.7-45.5-51.8-59.6-83.4c-14.6-32.8-22-67.8-22-103.9
		c0-68.4,26.6-132.6,75-181c48.3-48.3,112.6-75,181-75s132.6,26.6,181,75c48.3,48.3,75,112.6,75,181c0,36.2-7.4,71.1-22,103.9
		c-14.1,31.6-34.2,59.7-59.6,83.4c-5.7,5.3-13.5,7.6-21.1,6.4c-7.7-1.2-14.3-6-18-12.8c-2.7-5-5.9-9.3-9.9-13
		c-19.8-19-31.8-22.7-53.7-29.4c-4.1-1.3-8.4-2.6-13-4.1c-13.9-4.5-25.8-13.2-34.2-25c-8-11.2-5.4-26.9,5.8-34.9
		c17.7-12.8,23.2-34.7,23.6-36.3c1-5.6,3.5-9.9,7.8-13.6c2.9-2.7,7.1-8.4,7.7-12.2c0.4-2.5,0.4-4.2,0.3-5.2
		c-5.9-4.5-9.7-11.5-10-19.1l-0.1-2.8c-0.9-25.2-1.8-35.9-15.7-49.3c-15.4-14.9-38.9-15.3-43.4-15.3c-0.3,0-0.5,0-0.8,0
		c-4.6-0.1-28,0.3-43.4,15.3c-13.8,13.4-14.8,24.2-15.7,49.3l-0.1,2.8c-0.3,7.6-4,14.6-10,19.1c-0.1,1-0.1,2.7,0.3,5.2
		c0.6,3.8,4.8,9.5,7.7,12.2c4.3,3.7,6.7,8,7.8,13.6c0.4,1.6,5.9,23.6,23.6,36.3c11.2,8.1,13.8,23.7,5.8,34.9
		c-8.4,11.8-20.3,20.5-34.2,25l0,0c-4.6,1.5-8.9,2.8-13,4.1c-21.8,6.7-33.9,10.4-53.7,29.4c-3.9,3.8-7.2,8-9.9,13
		c-3.7,6.8-10.3,11.5-18,12.8C3568.7,3968.1,3567.3,3968.2,3566,3968.2z M3723.2,3568.4c-113.5,0-205.8,92.3-205.8,205.8
		c0,29.1,5.9,57.2,17.7,83.5c7.6,17.1,17.4,32.9,29.2,47.2c27.9-26.4,48.6-32.7,72.6-40.1c0.7-0.2,1.3-0.4,2-0.6
		c-9.2-13.1-14.1-25.9-16.6-33.9c-6.3-7.1-15.4-19.8-17.9-35.7c-3.2-20,2-33.3,7-40.9c0.8-1.3,1.6-2.4,2.5-3.5
		c1.1-24.9,4.4-50.5,30.6-75.9c27.8-27,64-29.6,78.7-29.4c14.7-0.2,50.9,2.4,78.7,29.4c26.3,25.4,29.5,51.1,30.6,76
		c7.3,9.3,12.7,23.8,9.5,44.3c-2.5,16-11.6,28.6-17.9,35.7c-2.5,8-7.4,20.9-16.6,33.9c0.7,0.2,1.3,0.4,2,0.6
		c24,7.3,44.8,13.7,72.6,40.1c11.8-14.3,21.6-30.1,29.2-47.2c11.7-26.3,17.7-54.4,17.7-83.5
		C3928.9,3660.7,3836.6,3568.4,3723.2,3568.4z M3656.8,3884.8L3656.8,3884.8L3656.8,3884.8z"/>
</g>
<g>
	<path class="st0" d="M1179.2,2171.9l-22.1,22.6v-82.6c0-13.8-11.2-25-25-25s-25,11.2-25,25v82.6l-22.1-22.6
		c-9.6-9.9-25.5-10.1-35.4-0.4c-9.9,9.6-10.1,25.5-0.4,35.4l65,66.5c4.7,4.8,11.2,7.5,17.9,7.5c6.7,0,13.2-2.7,17.9-7.5l65-66.5
		c9.6-9.9,9.5-25.7-0.4-35.4S1188.9,2162,1179.2,2171.9z"/>
	<path class="st0" d="M1085,1877.9l22.1-22.6v82.6c0,13.8,11.2,25,25,25s25-11.2,25-25v-82.6l22.1,22.6c9.7,9.9,25.5,10.1,35.4,0.4
		s10-25.5,0.4-35.4l-65-66.5c-4.7-4.8-11.2-7.5-17.9-7.5c-6.7,0-13.2,2.7-17.9,7.5l-65,66.5c-9.7,9.9-9.5,25.8,0.4,35.4
		C1059.5,1888,1075.4,1887.8,1085,1877.9z"/>
	<path class="st0" d="M1380.6,2007l-66.5-65c-9.9-9.6-25.7-9.5-35.4,0.4c-9.7,9.9-9.5,25.7,0.4,35.4l22.6,22.1h-82.6
		c-13.8,0-25,11.2-25,25s11.2,25,25,25h82.6l-22.6,22.1c-9.9,9.6-10.1,25.5-0.4,35.4c9.6,9.9,25.5,10.1,35.4,0.4l66.5-65
		c4.8-4.7,7.5-11.2,7.5-17.9C1388.1,2018.2,1385.4,2011.7,1380.6,2007z"/>
	<path class="st0" d="M962.5,2049.9h82.6c13.8,0,25-11.2,25-25s-11.2-25-25-25h-82.6l22.6-22.1c9.9-9.7,10.1-25.5,0.4-35.4
		s-25.5-10-35.4-0.4l-66.5,65c-4.8,4.7-7.5,11.2-7.5,17.9c0,6.7,2.7,13.2,7.5,17.9l66.5,65c9.9,9.7,25.8,9.5,35.4-0.4
		c9.7-9.9,9.5-25.8-0.4-35.4L962.5,2049.9z"/>
</g>
<path class="st0" d="M5693.3,148.2c-4.7-6.9-12.4-11-20.7-11h-13.3l36.5-91.8c3.1-7.7,2.1-16.4-2.5-23.3c-4.7-6.9-12.4-11-20.7-11
	h-460.4c-8.2,0-16,4.1-20.6,10.9s-5.7,15.6-2.7,23.3l35.7,92h-12.4c-8.2,0-16,4.1-20.6,10.9s-5.7,15.5-2.7,23.2l35.7,92h-12.4
	c-8.2,0-16,4.1-20.6,10.9s-5.7,15.5-2.7,23.2l81,208.7c3.7,9.6,13,16,23.3,16h296.3c10.2,0,19.4-6.2,23.2-15.8l83.1-208.7
	c3.1-7.7,2.1-16.4-2.5-23.3c-4.7-6.9-12.4-11-20.7-11h-13.3l36.5-91.8C5698.9,163.8,5697.9,155.1,5693.3,148.2z M5572.5,472h-262.2
	l-61.6-158.7h387L5572.5,472z M5605.4,263.3h-327.2l-29.5-76h387L5605.4,263.3z M5605.4,137.3h-327.2l-29.5-76h387L5605.4,137.3z"/>
<path class="st0" d="M6460.9,2073.2c-30.2,0-57.3,13.5-75.7,34.7l-138.4-70.1c1.5-7,2.4-14.2,2.4-21.6c0-7.1-0.8-14.1-2.2-20.8
	l137.5-68.2c18.4,21.7,45.8,35.5,76.4,35.5c55.2,0,100.1-44.9,100.1-100.1c0-55.3-44.9-100.1-100.1-100.1s-100.1,44.8-100.1,100
	c0,6.7,0.7,13.2,1.9,19.5l-138.1,68.5c-18.4-21.1-45.4-34.5-75.5-34.5c-55.2,0-100.1,44.9-100.1,100.1
	c0,55.2,44.9,100.1,100.1,100.1c29.8,0,56.6-13.1,75-33.9l138.9,70.4c-1.4,6.6-2.1,13.5-2.1,20.6c0,55.2,44.9,100.1,100.1,100.1
	s100.1-44.9,100.1-100.1C6561,2118.1,6516.1,2073.2,6460.9,2073.2z M6460.9,1812.5c27.6,0,50.1,22.5,50.1,50.1s-22.5,50.1-50.1,50.1
	s-50.1-22.5-50.1-50.1S6433.3,1812.5,6460.9,1812.5z M6194.9,2036.2c-0.6,0.8-1.1,1.7-1.5,2.6s-0.8,1.7-1.1,2.6
	c-8.7,14.8-24.8,24.8-43.2,24.8c-27.6,0-50.1-22.5-50.1-50.1s22.5-50.1,50.1-50.1c18.5,0,34.8,10.1,43.4,25.2
	c0.3,0.9,0.7,1.8,1.1,2.6c0.5,0.9,1,1.8,1.5,2.6c2.6,6,4,12.7,4,19.6C6199.1,2023.3,6197.6,2030,6194.9,2036.2z M6460.9,2223.4
	c-27.6,0-50.1-22.5-50.1-50.1s22.5-50.1,50.1-50.1s50.1,22.5,50.1,50.1S6488.5,2223.4,6460.9,2223.4z"/>
<g>
	<path class="st0" d="M280.9,939.5c-8.8-4.1-19.2-2.7-26.6,3.5l-105.6,88.4H52.1c-13.8,0-25,11.2-25,25v179.4c0,13.8,11.2,25,25,25
		h96.6l105.6,88.4c4.5,3.8,10.2,5.8,16,5.8c3.6,0,7.2-0.7,10.6-2.3c8.8-4.2,14.4-13,14.4-22.7V962.2
		C295.3,952.4,289.7,943.6,280.9,939.5z M245.2,1276.5l-71.5-59.9c-4.5-3.7-10.1-5.8-16-5.8H77.1v-129.4h80.6c5.8,0,11.5-2,16-5.8
		l71.5-59.9V1276.5z"/>
	<path class="st0" d="M473.1,1146.1l37.3-37.3c9.7-9.7,9.8-25.5,0-35.2c-9.7-9.7-25.5-9.8-35.2,0l-37.3,37.3l-37.3-37.3
		c-9.7-9.7-25.5-9.8-35.2,0c-9.7,9.7-9.8,25.5,0,35.2l37.3,37.3l-37.3,37.3c-9.7,9.7-9.8,25.5,0,35.2c9.7,9.7,25.5,9.8,35.2,0
		l37.3-37.3l37.3,37.3c9.7,9.7,25.5,9.8,35.2,0c9.7-9.6,9.8-25.4,0-35.2L473.1,1146.1z"/>
</g>
<path class="st0" d="M1179.2,1355c-5.8,0-11.5-2-16-5.8l-105.6-88.4H961c-13.8,0-25-11.2-25-25v-179.4c0-13.8,11.2-25,25-25h96.6
	l105.6-88.4c7.4-6.2,17.8-7.6,26.6-3.5c8.8,4.1,14.4,12.9,14.4,22.7V1330c0,9.7-5.6,18.5-14.4,22.7
	C1186.4,1354.3,1182.8,1355,1179.2,1355z M986,1210.8h80.6c5.9,0,11.5,2.1,16,5.8l71.5,59.9v-260.8l-71.5,59.9
	c-4.5,3.8-10.2,5.8-16,5.8H986V1210.8z"/>
<g>
	<path class="st0" d="M2013.4,939.5c-8.8-4.1-19.2-2.7-26.6,3.5l-105.6,88.4h-96.6c-13.8,0-25,11.2-25,25v179.4
		c0,13.8,11.2,25,25,25h96.6l105.6,88.4c4.5,3.8,10.2,5.8,16,5.8c3.6,0,7.2-0.7,10.6-2.3c8.8-4.2,14.4-13,14.4-22.7V962.2
		C2027.8,952.4,2022.2,943.6,2013.4,939.5z M1977.7,1276.5l-71.5-59.9c-4.5-3.7-10.1-5.8-16-5.8h-80.6v-129.4h80.6
		c5.8,0,11.5-2,16-5.8l71.5-59.9V1276.5z"/>
	<path class="st0" d="M2104.5,1065.6c-15-17.9-43.8-7.1-43.8,16v0.7c0,5.7,2.1,11.3,5.8,15.7c10.9,13,17.5,29.8,17.5,48.2
		s-6.6,35.1-17.5,48.2c-3.7,4.4-5.8,9.9-5.8,15.7v0.7c0,23.1,28.8,33.8,43.8,16.2c18.5-21.8,29.6-50,29.6-80.7
		C2134.1,1115.6,2123,1087.4,2104.5,1065.6z"/>
</g>
<g>
	<path class="st0" d="M2876.9,939.5c-8.8-4.1-19.2-2.7-26.6,3.5l-105.6,88.4h-96.6c-13.8,0-25,11.2-25,25v179.4
		c0,13.8,11.2,25,25,25h96.6l105.6,88.4c4.5,3.8,10.2,5.8,16,5.8c3.6,0,7.2-0.7,10.6-2.3c8.8-4.2,14.4-13,14.4-22.7V962.2
		C2891.3,952.4,2885.7,943.6,2876.9,939.5z M2841.2,1276.5l-71.5-59.9c-4.5-3.7-10.1-5.8-16-5.8h-80.6v-129.4h80.6
		c5.8,0,11.5-2,16-5.8l71.5-59.9V1276.5z"/>
	<path class="st0" d="M3027.9,990.6c-20.1-20.1-43.5-35.9-68.9-46.8c-16.5-7.1-34.8,5.2-34.8,23.1c0,10.1,6.1,19.1,15.3,23.1
		c60.4,26.1,102.8,86.2,102.8,156.1s-42.4,130-102.8,156.1c-9.2,4-15.3,13-15.3,23.1c0,17.9,18.3,30.2,34.8,23.1
		c25.4-10.9,48.8-26.6,68.9-46.8c41.5-41.5,64.4-96.8,64.4-155.5C3092.3,1087.4,3069.4,1032.1,3027.9,990.6z"/>
	<path class="st0" d="M2968,1227c18.5-21.8,29.6-50,29.6-80.7s-11.1-58.9-29.6-80.7c-15-17.9-43.8-7.1-43.8,16v0.7
		c0,5.7,2.1,11.3,5.8,15.7c10.9,13,17.5,29.8,17.5,48.2s-6.6,35.1-17.5,48.2c-3.7,4.4-5.8,9.9-5.8,15.7v0.7
		C2924.2,1233.9,2953,1244.6,2968,1227z"/>
</g>
<g>
	<path class="st0" d="M6574.3,15.7c-4.7-5.9-11.9-9.3-19.5-9.3h-459.6c-7.6,0-14.7,3.4-19.5,9.3s-6.6,13.6-4.9,21l101,461.2
		c2.5,11.5,12.7,19.7,24.4,19.7h257.7c11.7,0,21.9-8.2,24.4-19.7l101-461.2C6580.9,29.4,6579.1,21.6,6574.3,15.7z M6433.7,467.6
		h-217.4l-68.1-310.8h353.5L6433.7,467.6z M6512.7,106.8h-375.4l-11-50.4h397.5L6512.7,106.8z"/>
	<path class="st0" d="M6253.4,388.8c4.9,4.9,11.3,7.3,17.7,7.3c6.4,0,12.8-2.4,17.7-7.3l41.1-41.1l41.1,41.1
		c4.9,4.9,11.3,7.3,17.7,7.3c6.4,0,12.8-2.4,17.7-7.3c9.8-9.8,9.8-25.6,0-35.4l-41.1-41.1l41.1-41.1c9.8-9.8,9.8-25.6,0-35.4
		c-9.8-9.8-25.6-9.8-35.4,0l-41.1,41.1l-41.1-41.1c-9.8-9.8-25.6-9.8-35.4,0s-9.8,25.6,0,35.4l41.1,41.1l-41.1,41.1
		C6243.6,363.2,6243.6,379,6253.4,388.8z"/>
</g>
<path class="st0" d="M2227.3,5222.3h-462.2c-13.8,0-25,11.2-25,25v462.1c0,13.8,11.2,25,25,25h462.1c13.8,0,25-11.2,25-25v-462.1
	C2252.3,5233.5,2241.1,5222.3,2227.3,5222.3z M1790.1,5502.6h61v65.9h-61V5502.6z M1851.1,5386.7v65.9h-61v-65.9H1851.1z
	 M1901.1,5272.3h190.1v412.1h-190.1V5272.3z M2141.3,5452.6v-65.9h61v65.9H2141.3z M2141.3,5502.6h61v65.9h-61V5502.6z
	 M2202.3,5336.7h-61v-64.4h61V5336.7z M1851.1,5272.3v64.4h-61v-64.4H1851.1z M1790.1,5618.5h61v65.9h-61V5618.5z M2141.3,5684.4
	v-65.9h61v65.9H2141.3z"/>
<path class="st0" d="M1353.8,4719.6c13.8-31.5,21.5-66.2,21.5-102.8c0-141.4-114.6-256-256-256s-256,114.6-256,256
	c0,37.5,8,73,22.5,105.1v2.1h1c40.5,87.8,129.4,148.8,232.5,148.8s192-61,232.5-148.8h2V4719.6z M1119.3,4822.8
	c-15.4,0-34.5-18.4-50-48.1c-7.7-14.9-14.3-32-19.5-50.7h139c-5.2,18.7-11.7,35.8-19.5,50.7
	C1153.8,4804.4,1134.7,4822.8,1119.3,4822.8z M1039.7,4674c-2.5-18.5-3.8-37.7-3.8-57.2c0-14.5,0.7-28.8,2.1-42.8h162.6
	c1.4,14,2.1,28.3,2.1,42.8c0,19.5-1.3,38.7-3.8,57.2H1039.7z M913.3,4616.8c0-14.6,1.5-28.9,4.4-42.8h70
	c-1.2,13.9-1.9,28.2-1.9,42.8c0,19.7,1.2,38.8,3.3,57.2h-67.8C916,4655.6,913.3,4636.4,913.3,4616.8z M1119.3,4410.8
	c15.4,0,34.5,18.4,50,48.1c9.7,18.7,17.5,40.8,23.1,65.1h-146.2c5.6-24.3,13.4-46.5,23.1-65.1
	C1084.8,4429.2,1103.9,4410.8,1119.3,4410.8z M1250.8,4574h70c2.9,13.9,4.4,28.2,4.4,42.8c0,19.6-2.7,38.8-8,57.2h-67.9
	c2.2-18.4,3.3-37.5,3.3-57.2C1252.7,4602.2,1252.1,4587.9,1250.8,4574z M1303.4,4524h-59.7c-7-34.8-17.9-65.8-31.7-91.3
	c19.4,9.8,37.2,22.6,53,38.4C1280.7,4486.8,1293.6,4504.7,1303.4,4524z M973.6,4471.1c15.8-15.8,33.7-28.7,53-38.4
	c-13.7,25.5-24.6,56.5-31.7,91.3h-59.7C945,4504.7,957.9,4486.8,973.6,4471.1z M943.3,4724h54.9c7,29,16.7,55,28.5,76.9
	c-19.4-9.8-37.2-22.6-53-38.4C961.9,4750.8,951.7,4737.8,943.3,4724z M1265,4762.5c-15.8,15.8-33.7,28.7-53,38.4
	c11.8-21.9,21.5-47.9,28.5-76.9h54.8C1286.9,4737.8,1276.7,4750.8,1265,4762.5z"/>
</svg>
